<svg width="120" height="44" viewBox="0 0 120 44" fill="none" xmlns="http://www.w3.org/2000/svg">
<g clip-path="url(#clip0_14738_28540)">
<path d="M26.3615 3.64586C20.4058 3.85177 15.3034 7.39493 12.888 12.4514C15.9096 8.13329 21.0741 5.28798 26.9376 5.28798C32.8012 5.28798 37.7664 8.02516 40.8112 12.204C38.296 7.17379 33.0993 3.70191 27.0803 3.63733C34.0536 3.69216 40.0181 7.77234 42.5299 13.5534C40.9137 6.40893 34.5336 1.075 26.9097 1.075C19.2857 1.075 12.7483 6.54204 11.2319 13.8193C13.6251 8.01876 19.4691 3.86609 26.3615 3.64586Z" fill="white"/>
<path d="M36.7789 31.2469C39.5405 30.1391 41.6243 28.9639 41.6647 28.7839C40.4397 29.3358 39.1185 29.6261 37.7338 29.7431C38.4563 29.6362 39.1462 29.4208 39.8048 29.1001C41.0867 28.4753 41.9257 27.1975 41.999 25.7716C42.0219 25.3233 42.0386 24.8594 42.0504 24.3927C40.7524 27.3288 38.5253 28.9874 35.3713 29.3693C39.2679 28.2301 40.9888 25.3638 42.0748 21.9927C42.0669 19.8389 41.992 18.0862 41.992 18.0862C39.6299 24.9005 37.0721 27.6264 26.8804 28.2213C25.443 28.1795 24.152 28.0775 22.9878 27.9118C25.732 28.5493 28.3099 28.8622 30.9193 28.9895C26.1132 29.4132 21.6825 28.3459 17.5051 26.2688C17.6098 26.3065 17.7135 26.3446 17.8173 26.3815C14.7627 24.7765 13.1535 22.0801 11.7688 18.0862C11.7688 18.0862 11.6945 19.8389 11.6866 21.9921C12.772 25.3638 14.4935 28.2298 18.3901 29.369C15.2361 28.987 13.009 27.3285 11.711 24.3924C11.7259 24.9912 11.7493 25.5843 11.7834 26.1472C11.8494 27.2289 12.4347 28.2179 13.3619 28.7763C14.1969 29.2789 15.0846 29.603 16.0276 29.7425C14.6429 29.6255 13.322 29.3349 12.0964 28.7833C12.1803 29.1564 15.9808 32.7462 26.3194 33.2637C26.6151 33.2536 26.9105 33.2515 27.2062 33.2607C29.979 33.5436 33.6194 32.4927 36.5538 31.3359C32.1203 32.9137 27.6579 33.0261 23.1767 32.1394C28.4188 32.5759 32.6253 32.1607 36.7789 31.2469Z" fill="white"/>
<path d="M12.8873 13.9275C17.5319 9.87013 23.0569 7.45858 29.1084 6.03242C21.6091 6.06593 16.2022 8.69741 12.8873 13.9275Z" fill="#28E7EF"/>
<path d="M27.9808 18.2866C29.6643 15.6073 30.1763 11.67 29.1088 6.63212C24.0441 8.23799 17.7291 11.1153 13.3568 14.441C13.7447 17.8815 15.2803 20.0633 17.5101 21.1904C21.2144 23.0628 25.7711 21.8036 27.9808 18.2866Z" fill="#28E7EF"/>
<path d="M35.1338 13.3909L33.3311 12.3284L34.5881 13.9651L33.8519 15.2091L35.1275 14.44L36.6765 15.4046L35.6483 13.8198L36.4291 12.4515L35.1338 13.3909Z" fill="white"/>
<path d="M34.0778 20.6825L34.6984 21.7291L34.5758 20.476L35.4571 19.9067L34.4033 20.0642L33.6626 18.8817L33.9044 20.236L33.0879 20.7456L34.0778 20.6825Z" fill="#28E7EF"/>
<path d="M21.4427 24.8807L20.7567 23.7857L20.9806 25.0397L20.2244 25.5116L21.1412 25.4534L21.7159 26.4223L21.6024 25.2618L22.4186 24.7348L21.4427 24.8807Z" fill="white"/>
<path d="M41.7359 17.5497C42.6172 17.5293 43.312 17.2603 43.4258 16.2146C43.5843 14.4979 43.2506 13.3812 41.8105 13.6154C42.1414 14.8396 42.1861 16.0276 41.8105 17.1629C42.115 17.1382 42.355 17.0639 42.5305 16.9399C42.3492 17.204 42.0772 17.402 41.7359 17.5497Z" fill="white"/>
<path d="M9.99687 16.7515C10.1103 17.7972 10.8054 18.0662 11.6864 18.0866C11.3454 17.9389 11.0731 17.7409 10.8918 17.4768C11.0674 17.6008 11.3074 17.6751 11.6119 17.6998C11.2362 16.5645 11.2809 15.3763 11.6119 14.1523C10.1715 13.9184 9.83838 15.0348 9.99687 16.7515Z" fill="white"/>
<path d="M12.1323 30.1031C11.3912 28.0276 9.91218 26.5795 7.72069 25.7363L10.809 26.1021C9.8489 25.6017 10.0113 22.7244 10.2295 19.728C8.71088 19.0301 7.6127 17.9406 7.31762 16.1044C8.01546 17.7286 9.05767 18.4088 10.3198 18.4867C8.77293 17.2674 8.65429 13.5786 10.8771 11.9128C10.1978 11.9027 9.55261 11.9249 8.95759 11.9947L8.995 11.7726L9.29921 11.7327C9.53284 11.702 9.72479 11.5332 9.78563 11.3054C9.83369 11.1251 9.79232 10.9325 9.67459 10.7879L9.49451 10.5664C9.28217 10.3057 9.22194 9.95263 9.33541 9.63584C9.38408 9.50029 9.51823 9.415 9.66151 9.42901C9.88206 9.45064 10.0807 9.29499 10.1126 9.07537C10.1464 8.84539 9.98519 8.63217 9.7549 8.60232C9.69467 8.5944 9.65269 8.53835 9.66182 8.47834L9.69406 8.2703C9.73178 8.02692 9.92404 7.83715 10.1677 7.80273L12.8076 7.43081C13.1614 7.38085 13.4054 7.05005 13.3491 6.69701C13.2919 6.33819 12.9478 6.09907 12.5919 6.17127L8.09304 7.08325C7.79553 7.14356 7.54425 7.3443 7.42288 7.62301C6.74146 9.18777 6.40501 10.8664 6.41353 12.6593C6.41353 12.7215 6.419 12.783 6.42752 12.8433C5.69591 13.3806 5.25998 14.1973 5.24021 15.4041C3.13086 31.0404 10.4391 26.7567 12.1323 30.1031Z" fill="white"/>
<path d="M41.2216 7.43024L43.8615 7.80216C44.1052 7.83658 44.2975 8.02635 44.3352 8.26973L44.3674 8.47777C44.3769 8.53808 44.3346 8.59383 44.2743 8.60175C44.0441 8.6316 43.8831 8.84482 43.9166 9.0748C43.9488 9.29442 44.1475 9.45007 44.3677 9.42844C44.511 9.41443 44.6452 9.49972 44.6938 9.63527C44.8073 9.95175 44.7471 10.3051 44.5347 10.5658L44.3546 10.7873C44.2369 10.932 44.1955 11.1245 44.2436 11.3048C44.3041 11.533 44.4964 11.7017 44.73 11.7322L45.0342 11.7721L45.0878 12.0898V12.0916C44.3273 11.9454 43.4606 11.8988 42.5297 11.9125C45.0178 13.4593 44.4164 17.3634 43.087 18.4865C43.0873 18.4901 43.0873 18.4935 43.0879 18.4971L43.4417 18.4865C44.7039 18.4085 45.7461 17.7283 46.4439 16.1042C46.1269 18.0765 44.8843 19.1871 43.1886 19.8767C43.4013 22.8192 43.5418 25.6103 42.5982 26.1022L45.6868 25.7364C43.4953 26.5795 42.0159 28.0276 41.2752 30.1032C42.9684 26.7568 50.2769 31.0404 48.1675 15.4042C48.1526 14.4888 47.8983 13.7986 47.4575 13.2838C47.5585 13.0953 47.6151 12.8817 47.616 12.6591C47.6245 10.8662 47.2881 9.1875 46.6067 7.62275C46.4853 7.34403 46.234 7.1433 45.9365 7.08299L41.4376 6.171C41.082 6.09881 40.738 6.33792 40.6805 6.69675C40.6242 7.04978 40.8679 7.38028 41.2216 7.43024Z" fill="white"/>
<path d="M11.8853 39.845C13.4951 41.1457 15.2093 42.0598 17.0552 42.4859L0 42.485L1.32937 40.8252C1.84469 40.103 2.29309 39.3716 2.50938 38.7585C3.33316 39.4399 4.36046 39.9617 5.59431 40.3217C4.50192 39.9114 3.91085 38.6847 3.51295 37.1428C3.77456 36.7478 4.04439 36.3597 4.32213 35.979C5.54899 37.1197 7.00886 37.9979 8.61202 38.7152C7.15549 37.7828 6.24288 36.222 5.5934 34.3572C5.72907 34.1961 5.86566 34.0359 6.00438 33.8781C7.61179 35.476 10.13 36.3801 13.1118 36.9305C10.1376 36.3768 8.3431 34.7666 7.4457 32.3517C7.45239 32.345 7.45878 32.3392 7.46547 32.3322C8.59163 31.2253 10.4576 30.8924 12.0282 31.504C14.7542 32.5652 17.5438 33.4608 19.9719 33.9558L20.8997 41.8977C17.4564 41.9827 14.4208 41.3528 11.8853 39.845Z" fill="white"/>
<path d="M36.6852 42.4859C38.5312 42.0595 40.2453 41.1457 41.8552 39.845C39.2062 41.4201 36.0111 42.0369 32.3768 41.8822L33.3031 33.9558C35.7313 33.4608 38.5208 32.5652 41.2468 31.504C42.8174 30.8924 44.6834 31.2253 45.8095 32.3322C45.8162 32.3392 45.8226 32.345 45.8293 32.3517C44.9319 34.7669 43.1374 36.3768 40.1632 36.9305C43.145 36.3801 45.6629 35.476 47.2706 33.8781C47.4097 34.0359 47.5459 34.1961 47.6816 34.3572C47.0321 36.222 46.1195 37.7828 44.663 38.7152C46.2662 37.9979 47.726 37.1197 48.9529 35.979C49.2306 36.3597 49.5005 36.7478 49.7621 37.1428C49.3642 38.6847 48.7728 39.9114 47.6807 40.3217C48.9146 39.9617 49.9418 39.4399 50.7656 38.7585C50.9822 39.3716 51.4306 40.103 51.9456 40.8252L53.275 42.485L36.6852 42.4859Z" fill="white"/>
<path d="M25.7374 37.3542C24.4402 37.7888 23.1428 37.769 21.8442 36.585L22.3762 39.9588C23.4129 40.5108 24.422 40.4983 25.4033 39.9043C24.5373 40.7456 23.6146 41.2881 22.5669 41.1687L22.7744 42.4855H30.5118L31.8193 34.1994C30.0005 34.6785 28.2708 34.9277 26.643 34.9146C25.0158 34.9277 23.2861 34.6782 21.4672 34.1994L21.56 34.7867C22.9235 36.2853 24.303 37.4328 25.7374 37.3542Z" fill="white"/>
<path d="M70.9768 5.40571V28.0211H65.8196L61.2271 14.3011V28.0211H57.0111V5.40571H62.1683L66.7605 19.1257V5.40571H70.9768Z" fill="#28E7EF"/>
<path d="M74.6278 21.8395V11.6249C74.6278 7.02656 76.8111 5.17944 81.4037 5.17944C85.9962 5.17944 88.1795 7.02625 88.1795 11.6249V21.8395C88.1795 26.4378 86.034 28.2471 81.4037 28.2471C76.7734 28.2471 74.6278 26.4378 74.6278 21.8395ZM83.6621 21.8395V11.6249C83.6621 9.51396 82.9469 8.64706 81.4034 8.64706C79.8598 8.64706 79.1446 9.51396 79.1446 11.6249V21.8395C79.1446 23.9126 79.8598 24.7795 81.4034 24.7795C82.9469 24.7795 83.6621 23.9126 83.6621 21.8395Z" fill="#28E7EF"/>
<path d="M105.081 5.40571L100.187 28.0211H94.8421L89.9487 5.40571H94.6541L97.5148 21.6134L100.376 5.40571H105.081Z" fill="#28E7EF"/>
<path d="M114.379 22.9704H109.937L109.109 28.0211H104.592L109.41 5.40571H114.906L119.724 28.0211H115.207L114.379 22.9704ZM113.814 19.5784L112.158 9.55229L110.501 19.5784H113.814Z" fill="#28E7EF"/>
<path d="M75.9001 27.3578C75.8514 27.3822 75.8027 27.5284 75.754 27.674C75.6567 27.9414 75.0492 29.1833 74.9762 29.2808C74.9275 29.3052 74.9275 29.3539 74.9275 29.3539C74.9275 29.3783 74.8788 29.427 74.8545 29.4757C74.8058 29.5245 74.7572 29.6463 74.6842 29.7432C74.5625 29.9866 74.3197 30.3761 74.1007 30.7167C74.0033 30.8873 73.8817 31.0572 73.8573 31.1547C73.8087 31.2278 73.7356 31.3253 73.687 31.3984C73.6383 31.4715 73.5896 31.5446 73.5896 31.569C73.5896 31.5933 73.541 31.6664 73.4679 31.7396C73.4193 31.8127 73.2009 32.0801 73.0305 32.3725C72.5201 33.1027 72.4957 33.1514 72.2283 33.4435C72.1066 33.6141 71.9369 33.8084 71.8639 33.9303C71.4995 34.3927 71.4264 34.4658 71.1104 34.8066C70.9157 35.0259 70.6973 35.269 70.6243 35.3909C70.4052 35.6827 69.9678 36.121 69.8707 36.1941C69.8221 36.2185 69.7247 36.3159 69.7004 36.3647C69.6517 36.4378 69.5544 36.5352 69.457 36.6084C69.384 36.6571 69.2867 36.7789 69.238 36.8274C69.2137 36.8761 69.1163 36.9979 69.019 37.071C68.9216 37.1441 68.8002 37.266 68.7275 37.3385C68.6789 37.436 68.5815 37.5091 68.5572 37.5334C68.4112 37.6065 67.0012 38.9696 66.9282 39.0915C66.9038 39.1159 66.8552 39.1646 66.8308 39.1646C66.8065 39.1646 66.6361 39.2864 66.4907 39.432C66.3453 39.5776 66.102 39.7726 65.9803 39.8701C65.8586 39.9432 65.6889 40.065 65.6158 40.1137C65.5428 40.1868 65.4211 40.2599 65.3728 40.3087C65.3241 40.3331 65.2268 40.4062 65.1537 40.4793C65.0807 40.528 64.9591 40.6255 64.8623 40.6742C64.765 40.7473 64.5952 40.8204 64.4979 40.8932C64.1578 41.0882 63.574 41.38 63.5013 41.4044C63.4526 41.4044 63.3553 41.4287 63.2579 41.4775C63.0146 41.5749 62.8692 41.5993 62.7962 41.5993C62.6015 41.5506 61.9697 41.5749 61.8966 41.6237C61.8723 41.648 61.8236 41.6237 61.7993 41.5993C61.7506 41.5749 61.6776 41.5262 61.6289 41.4775C61.5803 41.4287 61.5316 41.38 61.5073 41.38C61.5073 41.4044 61.4586 41.38 61.4342 41.3312C61.3856 41.3069 61.2882 41.2338 61.1909 41.185C61.0692 41.1363 60.9962 41.0632 60.9475 40.9901C60.8988 40.9413 60.8015 40.7951 60.7288 40.7226C60.6315 40.6252 60.5098 40.4552 60.4617 40.3577C60.413 40.2603 60.3644 40.1871 60.34 40.1871C60.3157 40.1871 60.3157 40.1628 60.3157 40.114C60.3157 40.0166 60.2183 39.8466 60.1697 39.8466C60.1697 39.8466 60.1453 39.7979 60.121 39.7735C60.121 39.7248 60.0967 39.676 60.0723 39.676C59.9263 39.5786 60.0237 39.238 60.194 39.2867C60.267 39.3111 60.3157 39.3355 60.34 39.3355C60.34 39.3111 60.4617 39.3355 60.5831 39.3355C60.9232 39.3842 60.9475 39.3598 60.8265 39.1649C60.7534 39.0918 60.7048 39.0187 60.6804 38.9943C60.4133 38.8237 60.2673 37.7774 60.4614 37.315C60.4857 37.2176 60.5344 37.0714 60.5587 36.9989C60.6561 36.7552 60.7778 36.4877 60.9475 36.1712C61.0449 36.0007 61.1665 35.7332 61.2633 35.5626C61.3363 35.4164 61.4823 35.149 61.6034 34.9784C61.7737 34.6622 61.8948 34.4429 62.3569 33.5909C62.4786 33.3716 62.6483 33.0554 62.7213 32.9336C62.9647 32.5687 63.2075 32.1791 63.3535 31.887C63.4265 31.7651 63.5725 31.5221 63.6692 31.3759C63.7666 31.2053 63.8396 31.0597 63.8639 31.0353C63.8639 31.0109 63.9856 30.8404 64.083 30.646C64.2046 30.4754 64.35 30.2324 64.423 30.0862C64.4961 29.9643 64.6418 29.7212 64.7388 29.5507C64.8362 29.4045 64.9575 29.2101 65.0059 29.137C65.0302 29.0883 65.1519 28.8933 65.273 28.7477C65.3703 28.5771 65.492 28.4072 65.5164 28.3341C65.638 28.0904 65.9538 27.6039 66.0511 27.4577C66.0755 27.409 66.1728 27.2628 66.2458 27.1415C66.3189 27.0197 66.4162 26.8979 66.4162 26.8979C66.4405 26.8735 66.5135 26.7273 66.6352 26.5329C66.7326 26.338 66.9023 26.0218 67.024 25.8028C67.2911 25.3648 67.3154 25.2917 67.4371 24.9752C67.6075 24.4641 67.8015 24.1963 67.9476 24.2207C68.0692 24.2207 68.3363 24.3913 68.3363 24.4644C68.3363 24.4887 68.385 24.5618 68.4337 24.6106C68.4823 24.6593 68.531 24.7324 68.5067 24.7568C68.5067 24.7568 68.5067 24.7812 68.5554 24.7812C68.5797 24.7812 68.604 24.8299 68.6284 24.8786C68.6527 25.0005 68.7257 25.1705 68.7744 25.1948C68.7744 25.1948 68.8231 25.2679 68.8717 25.3654C68.9204 25.4629 68.9609 25.4711 68.9934 25.3898C69.2848 24.8543 70.1117 24.27 70.9625 24.0754C71.0599 24.051 71.1813 24.0267 71.254 24.0023C71.3267 23.9779 71.4243 23.9536 71.4727 23.9536C71.521 23.9536 71.6187 23.9292 71.716 23.9048C71.8134 23.8561 72.0318 23.8561 72.4452 23.8317C72.7853 23.8317 73.126 23.8073 73.2474 23.8073C73.3691 23.783 73.4178 23.783 73.3934 23.8073C73.3934 23.8317 73.4178 23.8561 73.5394 23.8561C73.7341 23.8561 74.3173 24.051 74.4146 24.1235C74.4633 24.1723 74.512 24.1966 74.5363 24.1966C74.5363 24.1966 74.585 24.221 74.585 24.2454C74.585 24.2697 74.6337 24.2941 74.658 24.2941C74.7067 24.2941 74.9981 24.6103 75.1441 24.8052C75.1928 24.854 75.2901 25.0002 75.3875 25.1214C75.6308 25.462 75.8493 25.949 75.8979 26.2655C75.9466 26.6548 75.9466 27.2634 75.8979 27.3609L75.8991 27.3587L75.9001 27.3578ZM74.3197 25.4592C74.2954 25.4592 74.2224 25.4348 74.198 25.3861C74.0764 25.2886 73.1528 25.3374 73.2258 25.4592C73.2258 25.4592 73.1771 25.4836 73.1041 25.4592C73.0068 25.4592 72.9094 25.4836 72.837 25.5323C72.764 25.5567 72.691 25.6054 72.6667 25.6054C72.618 25.6054 72.5693 25.6298 72.545 25.6542C72.5207 25.6785 72.4476 25.7029 72.399 25.7029C72.3503 25.7273 72.2773 25.7516 72.2286 25.776C72.1799 25.8004 72.1069 25.8247 72.0826 25.8247C72.0583 25.8247 71.9366 25.8735 71.8155 25.9466C71.6938 25.9953 71.4998 26.0684 71.4024 26.1172C71.3051 26.1415 71.159 26.1903 71.0866 26.239C71.0142 26.2877 70.9163 26.3121 70.9163 26.3121C70.892 26.3121 70.7946 26.3608 70.7216 26.4096C70.6242 26.4583 70.5269 26.5314 70.4782 26.5314C70.3322 26.5802 69.8461 26.872 69.7734 26.9451C69.7491 26.9938 69.676 27.0182 69.6274 27.0182C69.603 27.0182 69.5544 27.0426 69.5544 27.0669C69.5544 27.0913 69.53 27.0913 69.5057 27.0913C69.4814 27.0913 69.4327 27.14 69.384 27.1888C69.3353 27.2131 69.2137 27.3106 69.0926 27.3593C68.9952 27.4324 68.8979 27.5056 68.8736 27.5056C68.8736 27.5299 68.8006 27.5787 68.7032 27.6518C68.3631 27.8711 68.0711 28.1629 68.0467 28.3091C68.0224 28.3578 67.9737 28.4309 67.925 28.4553C67.8277 28.504 67.7547 28.6015 67.5363 29.0395C67.4633 29.137 67.3903 29.2345 67.3659 29.2832C67.2929 29.3563 66.8555 30.0621 66.8555 30.0865C66.8555 30.1108 66.8311 30.1596 66.7825 30.2083C66.6121 30.452 66.4424 30.6951 66.345 30.8656C66.2963 30.9875 66.2233 31.085 66.199 31.1331C66.1747 31.1575 66.1016 31.2793 66.053 31.3768C65.98 31.4986 65.8826 31.6442 65.834 31.7417C65.7609 31.8392 65.6879 31.961 65.6393 32.0579C65.5906 32.131 65.4932 32.3015 65.3959 32.4228C65.3229 32.5203 65.2499 32.6421 65.2499 32.6665C65.2499 32.6665 65.2255 32.7152 65.2012 32.7396C65.1769 32.7639 65.1525 32.8127 65.1525 32.8614C65.1282 32.9101 65.0552 33.032 65.0065 33.1289C64.9335 33.202 64.8848 33.2994 64.8848 33.3238C64.8848 33.3482 64.8362 33.4213 64.7875 33.5187C64.7145 33.5919 64.6171 33.7624 64.5685 33.8837C64.4955 34.0055 64.3981 34.1511 64.3494 34.1998C64.3251 34.2729 64.2521 34.3461 64.2521 34.4192C64.2521 34.4679 64.2278 34.5166 64.2034 34.541C64.1547 34.5654 63.8633 35.0034 63.7903 35.1983C63.7416 35.3202 63.6443 35.4658 63.5713 35.5633C63.4983 35.6364 63.4496 35.7338 63.4496 35.7582C63.4496 35.7826 63.3766 35.9044 63.2792 36.05C63.1819 36.1962 63.0602 36.4393 62.9878 36.5855C62.8905 36.7317 62.7931 36.9261 62.7444 37.0235C62.6714 37.121 62.5984 37.2672 62.5741 37.3884C62.5498 37.4859 62.4767 37.5834 62.4524 37.6321C62.4037 37.6809 62.3307 37.8027 62.2821 37.9483C62.2091 38.0701 62.1117 38.3376 62.015 38.5082C61.869 38.8487 61.7959 39.1899 61.869 39.1899C61.8933 39.1899 61.9176 39.1655 61.8933 39.1655C61.8933 39.1411 61.942 39.1168 62.015 39.1168C62.4037 39.068 63.3033 38.6544 63.7407 38.3135C63.8381 38.2404 63.9598 38.1673 64.0322 38.1186C64.1782 38.0455 64.5426 37.8024 64.9073 37.51C65.029 37.4125 65.1744 37.315 65.1988 37.2907C65.2474 37.2663 65.3448 37.1932 65.4421 37.0957C65.5395 37.0226 65.7092 36.9008 65.8309 36.8039C65.9283 36.7308 66.098 36.5849 66.1953 36.4877C66.2927 36.4146 66.4144 36.2928 66.4868 36.244C66.5598 36.1953 66.7058 36.0491 66.8025 35.9522C66.9242 35.8548 67.1183 35.6848 67.2643 35.563C67.4103 35.4411 67.6288 35.2224 67.7748 35.0762C67.9208 34.93 68.0905 34.76 68.1392 34.7113C68.1879 34.6625 68.3339 34.5407 68.455 34.4195C68.5767 34.322 68.7707 34.1277 68.8924 34.0302C69.0141 33.9327 69.1838 33.7627 69.2812 33.6409C69.5002 33.3972 70.2534 32.5943 71.0069 31.8154C71.2984 31.4992 71.6878 31.0853 71.8821 30.8903C72.0525 30.6954 72.2952 30.4036 72.4413 30.2573C72.5873 30.0868 72.7327 29.9412 72.7327 29.8924C72.7814 29.8193 73.0241 29.5275 73.1945 29.3569C73.8266 28.6752 74.6775 27.0691 74.7505 26.363C74.8235 25.8762 74.6045 25.4623 74.313 25.4623L74.3179 25.4595L74.3197 25.4592Z" fill="white"/>
<path d="M81.7097 35.6096C81.6367 35.7802 81.515 35.9258 81.4183 36.072C80.6888 37.0699 79.9596 38.1168 79.1334 39.0659C78.2582 40.0638 77.0913 41.3782 75.73 41.1836C75.1465 41.1105 74.6117 40.7699 74.4417 40.3316C74.2227 39.8936 74.3687 38.7979 74.7088 38.1655C74.9759 37.6788 75.1949 37.3623 75.2436 37.3623C75.2436 37.3623 75.2679 37.3379 75.2679 37.3136C75.2923 37.2648 75.3166 37.2161 75.3409 37.1917C75.6567 36.7781 76.6049 35.4393 76.6779 35.3175C76.7266 35.2444 76.7509 35.1956 76.7752 35.1956C76.7996 35.1956 76.8239 35.1469 76.8239 35.1225C76.8483 35.0738 76.8483 35.0494 76.8726 35.0494C76.8969 35.0494 76.9213 35.0251 76.9456 34.9763C76.9456 34.952 76.9943 34.8545 77.0429 34.8057C77.116 34.7326 77.1646 34.6352 77.1646 34.6108C77.189 34.5864 77.2133 34.5133 77.262 34.4646C77.3106 34.4402 77.3837 34.3428 77.4323 34.2453C77.481 34.1722 77.554 34.0991 77.554 34.0991C77.5783 34.0991 77.627 34.0016 77.6514 33.9285C77.8217 33.6367 77.9428 33.4174 77.9671 33.4174C77.9915 33.4174 77.9914 33.393 77.9914 33.3686C78.0158 33.2711 78.1131 33.1249 78.1375 33.1496C78.1618 33.174 78.1861 33.1252 78.1861 33.1009C78.2105 33.0521 78.3078 32.8334 78.4295 32.6385C78.7209 32.1274 78.7209 31.7865 78.5025 31.3729C78.2354 30.9836 77.8704 30.6671 77.7247 30.6671L71.9877 37.8235C71.9877 37.8235 71.6232 38.1153 71.3799 37.9209C71.1368 37.726 71.3799 37.2636 71.3799 37.2636L75.9016 31.1054C75.9746 31.0323 76.0233 30.9592 76.0719 30.8861C76.1449 30.813 76.2179 30.7155 76.2909 30.6427C76.6797 30.156 77.3119 29.0116 77.8956 29.1821C78.4304 29.3284 79.1839 30.3262 79.597 30.8858C79.6944 31.032 79.8158 31.1532 79.8885 31.2994C80.0102 31.4944 80.1072 31.7131 80.1556 31.9568C80.1799 31.9811 80.2042 32.0299 80.2042 32.1274C80.3746 32.8819 80.0826 33.831 78.7456 35.6327C76.8981 38.0912 76.0716 39.235 76.7521 39.2594C77.2869 39.2594 77.773 38.7726 78.1134 38.4561C79.2074 37.4095 80.1312 36.3138 81.1278 35.316C81.2251 35.2185 81.3465 35.1454 81.4922 35.1698C81.5166 35.1698 81.5409 35.1941 81.5652 35.2185C81.6869 35.2916 81.7356 35.4622 81.7113 35.6078L81.7097 35.6084V35.6096Z" fill="white"/>
<path d="M87.5194 36.5829C87.4707 36.6317 87.422 36.7292 87.3733 36.8263C87.3247 36.8994 87.2517 36.9969 87.1786 37.07C87.0813 37.1918 86.9353 37.4349 86.8385 37.5811C86.8142 37.6055 86.7899 37.6542 86.7655 37.6786C86.7655 37.703 86.5709 37.9223 86.3768 38.1654C85.9637 38.6521 85.0155 39.6503 84.7237 39.869C84.6264 39.9421 84.505 40.064 84.4566 40.1127C84.3836 40.1858 84.2863 40.2589 84.2136 40.3077C84.1406 40.332 84.0432 40.4051 83.9702 40.4539C83.7268 40.6488 83.5084 40.6975 83.022 40.7457C82.6168 40.7783 82.3412 40.7618 82.1955 40.6969C81.685 40.5264 80.7368 39.6991 80.7368 39.4313C80.7368 39.4313 80.6882 39.3095 80.6152 39.1639C80.4935 38.8964 80.3961 38.6771 80.3718 38.5553C80.3718 38.4822 80.3475 38.409 80.3231 38.3359C80.2744 38.1654 80.2501 37.5083 80.2988 37.1675C80.3718 36.3155 80.3961 36.194 80.4691 36.0478C80.5178 35.9503 80.5421 35.8528 80.5421 35.8284C80.5421 35.8284 80.5421 35.8041 80.5665 35.8041C80.5908 35.8041 80.6151 35.7553 80.6395 35.7066C80.6882 35.536 80.7612 35.4148 80.9309 35.098C81.0039 34.9518 81.1013 34.7575 81.1499 34.66C81.2473 34.465 81.3933 34.2463 81.636 33.9055C81.7334 33.7836 81.8064 33.6618 81.8064 33.638L81.8307 33.6137C81.8551 33.6137 81.8794 33.5893 81.8794 33.5649C81.8794 33.5406 81.9281 33.4675 82.0011 33.4187L82.1228 33.2969C82.1228 33.2725 82.1228 33.2238 82.1471 33.1994C82.1715 33.175 82.2688 33.0776 82.3661 32.9557C82.5608 32.6883 83.9221 31.2764 83.9708 31.2764C83.9952 31.2764 84.0438 31.2521 84.0682 31.2033C84.1168 31.179 84.1655 31.1302 84.1898 31.0815C85.1381 30.327 86.1833 29.9374 86.7668 30.1323C87.1312 30.2542 87.2772 30.3273 87.3259 30.4485C87.3502 30.4973 87.4232 30.5947 87.4719 30.6435C87.5206 30.6922 87.5449 30.7897 87.5449 30.8384C87.5449 30.8871 87.5693 30.9846 87.5936 31.0577C87.6423 31.1552 87.6423 31.2039 87.6179 31.3739C87.4476 32.2259 87.3989 32.3962 87.2535 32.6639C87.1805 32.7614 87.1318 32.8589 87.1318 32.8832C87.1318 32.9076 87.0831 33.0051 87.0345 33.1022C86.9858 33.2241 86.9128 33.3697 86.8641 33.4428C86.8398 33.4915 86.7424 33.6865 86.6207 33.8564C86.5234 34.0026 86.426 34.197 86.402 34.2457C86.3533 34.3188 86.3047 34.4163 86.256 34.4894C86.11 34.66 85.5025 35.5117 85.4538 35.6091C85.1624 36.0715 84.2626 36.9235 83.7764 37.1915C83.339 37.4349 82.7799 37.3134 82.5368 36.9241C82.2937 36.6079 82.3181 36.6079 82.148 36.9728C82.1237 37.0216 82.075 37.1434 82.0507 37.2403C81.6862 38.0435 81.6862 38.6034 82.0507 39.0414C82.2454 39.2851 82.6828 39.3576 83.0229 39.1876C83.0959 39.1633 83.2176 39.1145 83.3387 39.0658C83.6058 38.9683 84.2382 38.5546 84.554 38.3113C85.0158 37.8976 85.1861 37.7514 85.2104 37.7027C85.2348 37.6539 85.3321 37.5808 85.3808 37.5321C85.4538 37.4834 85.8426 37.1184 86.2073 36.7289C87.3012 35.6335 87.3256 35.6091 87.4956 35.6579C87.6903 35.7066 87.6897 36.2421 87.5194 36.5829ZM83.022 36.0475C83.168 36.1206 83.241 36.1206 83.4838 35.9743C83.5811 35.9012 83.7028 35.8038 83.7509 35.7794C83.7752 35.7307 83.9212 35.6332 84.0423 35.5357C84.3824 35.2683 84.8688 34.7568 85.1849 34.2945C85.2579 34.2213 85.3066 34.1482 85.3309 34.1482C85.3309 34.1482 85.3552 34.1239 85.3552 34.0995C85.3552 34.0751 85.3796 34.0264 85.4039 33.9777C85.4526 33.9533 85.4769 33.9046 85.4769 33.8802C85.4769 33.8558 85.6229 33.6365 85.6716 33.6127C85.6716 33.6127 85.696 33.5396 85.7446 33.4909C85.769 33.4178 85.8176 33.3203 85.8663 33.2716C85.8907 33.2229 85.9393 33.1254 85.9637 33.0766C85.988 33.0523 86.0123 33.0035 86.0367 33.0035C86.061 33.0035 86.061 33.0035 86.061 32.9792C86.061 32.9548 86.1584 32.8086 86.2557 32.6143C86.3531 32.4437 86.426 32.2981 86.4504 32.2737C86.5964 31.9819 86.6694 31.6895 86.5964 31.5433C86.5234 31.3243 85.8916 31.7138 85.3081 32.2978C85.2594 32.3465 85.0894 32.5171 84.9193 32.6627C84.5549 33.0032 84.3845 33.2225 84.0198 33.758C83.9225 33.9286 83.7764 34.0986 83.7284 34.1473C83.631 34.2935 83.485 34.5122 83.3396 34.7559C83.2909 34.8534 83.1692 35.0477 83.0725 35.194C82.9752 35.3402 82.9022 35.4858 82.9022 35.5345C82.9022 35.5832 82.8778 35.632 82.8535 35.6563C82.7318 35.7782 82.8048 35.9238 83.0238 36.0456L83.022 36.0475Z" fill="white"/>
<path d="M97.6083 35.8527C97.5839 35.9014 97.5596 35.9989 97.5596 36.0476C97.5352 36.0964 97.5109 36.1939 97.4622 36.2182C97.4379 36.267 97.3162 36.4619 97.2189 36.6563C97.0972 36.8512 96.9518 37.0943 96.9031 37.1674C96.8301 37.2649 96.7814 37.3623 96.7814 37.3867C96.7814 37.4111 96.7814 37.4354 96.7571 37.4354L96.6111 37.6304C96.5624 37.7279 96.4894 37.8253 96.4894 37.8497C96.465 37.8497 96.4407 37.8984 96.4164 37.9228C96.2704 38.1665 96.1249 38.3852 96.0763 38.4096C96.0519 38.4339 95.9789 38.507 95.9546 38.5801C95.9059 38.6532 95.8329 38.7751 95.7599 38.8476C95.6869 38.9207 95.6382 38.9938 95.6382 39.0182C95.6382 39.0425 95.5895 39.0913 95.5409 39.14C95.4435 39.2131 95.2495 39.4805 95.1034 39.6999L94.9331 39.8704C94.8844 39.8948 94.8357 39.9679 94.8114 39.9923C94.7871 40.0654 94.3253 40.479 94.2523 40.479C94.2523 40.479 94.1793 40.5278 94.1063 40.6009C94.0332 40.6496 93.9116 40.7227 93.8392 40.7471C93.7661 40.7715 93.6688 40.7958 93.6445 40.8446C93.5715 40.9177 93.207 40.942 92.988 40.8689C92.6966 40.7958 92.3559 40.5771 92.1858 40.3578C92.1371 40.2847 92.0641 40.1629 91.9911 40.1141C91.9424 40.041 91.9181 39.9679 91.9181 39.9435C91.9181 39.8948 91.8694 39.7973 91.7964 39.7245C91.6991 39.554 91.6504 39.4571 91.5531 38.9941C91.4801 38.6292 91.5044 38.3855 91.6261 38.0449C91.6991 37.8013 91.5287 37.9475 91.0426 38.5073C90.7755 38.8479 90.0217 39.554 89.9487 39.554C89.9244 39.554 89.9 39.5783 89.9 39.5783C89.9 39.6271 89.5843 39.9189 89.5356 39.9189C89.5112 39.9189 89.4626 39.9676 89.4382 39.992C89.3409 40.1382 88.5387 40.5518 88.0769 40.7221C87.1531 41.0139 86.1078 40.2841 86.0591 39.2372C86.0348 39.091 86.0105 38.7991 86.0105 38.6042C85.9861 38.3368 85.9861 38.2393 86.0348 38.02C86.0835 37.8738 86.1321 37.5819 86.1808 37.387C86.2782 36.9977 86.7156 36.0483 86.91 35.7802C86.9343 35.7315 87.0073 35.6096 87.0317 35.5365C87.0804 35.4878 87.129 35.3659 87.1777 35.3172C87.2264 35.2685 87.2994 35.171 87.3237 35.0982C87.3481 35.0251 87.4454 34.8545 87.5427 34.7089C87.6401 34.5627 87.7618 34.3684 87.8098 34.2953L87.9072 34.1491C87.9315 34.1491 88.0045 34.0516 88.0775 33.9297C88.1505 33.8079 88.2722 33.6861 88.3209 33.6379C88.3939 33.5892 88.4669 33.4917 88.5156 33.4186C88.6859 33.1512 90.4117 31.3494 90.509 31.3494C90.5334 31.3494 90.6064 31.3007 90.6794 31.252C90.7767 31.1789 90.8984 31.0814 90.9951 31.0329C91.0682 30.9842 91.1655 30.9111 91.1898 30.8867C91.2385 30.838 92.065 30.4243 92.1137 30.4243C92.138 30.4243 92.2597 30.3756 92.3808 30.3269C92.8669 30.1076 94.0098 30.1319 94.2282 30.4C94.2282 30.4 94.3012 30.4487 94.3986 30.4731C94.5933 30.5218 95.0794 31.0329 95.0794 31.1789C95.0794 31.1789 95.1037 31.252 95.1281 31.2763C95.1524 31.3251 95.1767 31.4953 95.2011 31.6412C95.2011 31.7875 95.2498 31.9818 95.2741 32.0549C95.3228 32.128 95.3471 32.2255 95.3471 32.2498C95.3471 32.2986 95.5905 32.0305 95.5905 31.9824C95.5905 31.958 95.6391 31.8849 95.7121 31.8118C96.0279 31.3982 96.1009 31.3007 96.1009 31.252C96.1009 31.252 96.1253 31.2032 96.1739 31.1545C96.2956 31.057 96.441 30.8139 96.4654 30.6921C96.4897 30.6434 96.4897 30.5946 96.514 30.5946C96.5384 30.5946 96.5384 30.5703 96.5384 30.5459C96.5384 30.4971 96.6114 30.4728 96.7817 30.4728C96.9034 30.4728 97.2192 30.7165 97.2192 30.789C97.2192 30.8133 97.2678 30.8864 97.3409 30.9595C97.6079 31.3732 97.6079 31.6412 97.3895 32.2252C97.3165 32.4442 97.0251 32.9309 96.8547 33.1503C96.7817 33.2234 96.6844 33.3452 96.6357 33.4421C96.5627 33.5152 96.514 33.6126 96.4654 33.6614C96.441 33.6857 96.4167 33.7345 96.4167 33.7589C96.4167 33.7589 96.3193 33.9051 96.222 34.0263C96.1246 34.1725 95.9786 34.3668 95.9062 34.4887C95.6629 34.8536 95.6148 34.9511 95.5905 34.9754C95.5905 34.9754 95.4931 35.0973 95.4201 35.2191C95.3471 35.341 95.2014 35.5109 95.1287 35.6084C95.08 35.7059 95.007 35.779 95.007 35.8034C95.007 35.8277 94.4722 36.6553 94.3992 36.7284C94.3505 36.7772 94.3018 36.8747 94.2532 36.9478C94.1072 37.2152 93.8157 37.6779 93.7427 37.751C93.7184 37.7997 93.6697 37.8728 93.6697 37.9216C93.6454 37.9703 93.5967 38.0678 93.548 38.1653C93.4994 38.2384 93.4507 38.3602 93.4264 38.3843C93.402 38.433 93.3533 38.6036 93.2803 38.7248C93.0856 39.1141 93.0856 39.1872 93.256 39.1872C93.4264 39.1872 93.7908 38.9923 93.9368 38.8467C93.9855 38.7979 94.1315 38.7005 94.2526 38.603C94.836 38.165 96.2217 36.7287 96.3677 36.4126C96.392 36.3638 96.4651 36.2664 96.5381 36.1933C96.6354 36.0958 96.7327 35.9499 96.7814 35.8771C96.8058 35.804 96.8544 35.7552 96.8788 35.7552C96.9031 35.7552 96.9274 35.7065 96.9518 35.6578C97.2675 35.171 97.8026 35.3172 97.6083 35.8527ZM93.4023 34.5383C93.4997 34.4409 93.597 34.319 93.6457 34.2709C93.67 34.2465 93.7674 34.1491 93.816 34.0516C93.8647 33.9785 93.9621 33.8326 94.0107 33.7354C94.1081 33.6136 94.1567 33.5164 94.3022 33.1755C94.3265 33.1268 94.3508 33.0781 94.3265 33.0537L94.3752 32.9075C94.5212 32.3233 94.3752 31.739 94.0351 31.6175C93.6706 31.4713 92.8438 31.715 92.382 32.0799C92.1873 32.2261 92.1873 32.2505 92.163 32.2505C92.1387 32.2505 91.944 32.421 91.7255 32.6641C91.4822 32.8834 91.2151 33.1509 91.1178 33.2483C91.0447 33.3214 90.9474 33.4189 90.9474 33.4433C90.9474 33.4433 90.9231 33.4677 90.8987 33.4677C90.8744 33.4677 90.8257 33.5164 90.8257 33.5651C90.8014 33.5895 90.7284 33.7113 90.6554 33.7844C90.5824 33.8575 90.5093 33.9306 90.5093 33.955C90.5093 33.9794 90.4607 34.0525 90.3877 34.1256C90.339 34.1743 90.2416 34.2962 90.2173 34.369C90.1686 34.4177 90.0956 34.4908 90.0713 34.5152C90.0226 34.5396 89.9983 34.5883 89.9983 34.6127C89.9983 34.637 89.9496 34.7101 89.8766 34.7832C89.8279 34.832 89.7306 34.9538 89.7062 35.0023C89.6819 35.0754 89.5602 35.2459 89.4629 35.3672C89.3655 35.5134 89.2682 35.6346 89.2682 35.659C89.2682 35.6833 89.2195 35.7565 89.1708 35.8052C89.1222 35.8539 89.0492 35.9514 89.0492 36.0001C89.0492 36.0732 88.9762 36.1463 88.9275 36.1951C88.8545 36.2438 88.8058 36.3169 88.7815 36.39C88.7815 36.4388 88.7328 36.5362 88.7085 36.5606C88.6598 36.6093 88.6354 36.7068 88.6354 36.7312C88.6354 36.7799 88.5868 36.9018 88.5138 36.9749C88.4164 37.1211 88.2467 37.5835 88.2467 37.705C88.2467 37.7294 88.2223 37.8025 88.198 37.8268C88.1007 37.9974 88.0763 38.1187 88.1493 38.1918C88.1737 38.2405 88.198 38.2649 88.1737 38.2405C88.0763 38.1918 88.052 38.8491 88.125 39.0194C88.198 39.1412 88.271 39.1168 88.7085 38.8975C88.8788 38.8001 89.0972 38.6539 89.1946 38.5814C89.2919 38.5082 89.3893 38.4595 89.3893 38.4595C89.4136 38.4595 89.4379 38.4351 89.4623 38.4108C89.4866 38.3864 89.5596 38.3377 89.6083 38.3133C89.7056 38.2402 90.2891 37.7291 90.3861 37.6316C90.4348 37.5829 90.6295 37.4123 90.8236 37.2423C91.5528 36.6581 92.9868 35.1731 93.4005 34.5405L93.4023 34.5383Z" fill="white"/>
<path d="M110.102 35.8526C110.078 35.9013 110.054 35.9988 110.029 36.0475C110.029 36.0963 109.981 36.1937 109.956 36.2181C109.908 36.2669 109.81 36.4374 109.689 36.6561C109.592 36.8511 109.446 37.0942 109.373 37.1673C109.325 37.2647 109.276 37.3622 109.276 37.3866C109.276 37.4109 109.252 37.4353 109.252 37.4353C109.227 37.4353 109.154 37.5328 109.106 37.6303C109.033 37.7277 108.984 37.8252 108.96 37.8496C108.96 37.8496 108.935 37.8739 108.911 37.9227C108.741 38.1664 108.595 38.3851 108.547 38.4094C108.522 38.4338 108.474 38.5069 108.425 38.58C108.401 38.6531 108.303 38.775 108.23 38.8475C108.157 38.92 108.109 38.9937 108.109 39.018C108.109 39.0424 108.06 39.0911 108.011 39.1399C107.938 39.2374 107.744 39.4804 107.574 39.6997C107.549 39.7485 107.476 39.8216 107.403 39.8703C107.355 39.8947 107.306 39.9678 107.306 39.9922C107.257 40.0653 106.796 40.4789 106.747 40.4789C106.723 40.4789 106.65 40.5277 106.577 40.6008C106.504 40.6495 106.382 40.7226 106.309 40.747C106.237 40.7713 106.163 40.7957 106.139 40.8201C106.042 40.8932 105.677 40.9176 105.458 40.8688L105.24 40.7957C105.24 40.7957 105.24 40.7713 105.215 40.7713C104.924 40.747 104.607 40.6251 104.607 40.552C104.607 40.5277 104.559 40.5033 104.534 40.4789C104.073 40.3571 103.732 39.262 103.975 38.7022C103.975 38.6778 104 38.6291 104 38.6047C104.024 38.5803 104.024 38.5316 104.024 38.5072C104.024 38.4585 104.267 37.923 104.315 37.8986C104.34 37.8986 104.34 37.8499 104.364 37.7768C104.388 37.728 104.413 37.6549 104.461 37.6062C104.486 37.5575 104.534 37.4356 104.559 37.3869C104.583 37.3138 104.632 37.2407 104.656 37.2163C104.68 37.1919 104.705 37.1676 104.705 37.1432C104.705 37.0945 104.729 37.0457 104.753 37.0214C104.778 36.9726 104.851 36.8508 104.924 36.7052C104.997 36.559 105.094 36.4134 105.118 36.389C105.143 36.3646 105.216 36.2184 105.289 36.0728V36.0485C105.362 35.9022 105.459 35.7079 105.532 35.6348C105.581 35.5617 105.678 35.3911 105.751 35.2699C105.8 35.148 105.873 35.0509 105.873 35.0509C105.897 35.0509 105.921 35.0021 105.946 34.9778C105.946 34.929 105.994 34.8559 106.067 34.7588C106.116 34.6856 106.238 34.5151 106.311 34.3451C106.408 34.1989 106.481 34.0777 106.505 34.0533C106.53 34.0533 106.53 34.0289 106.53 34.0046L106.627 33.8583C106.676 33.7852 106.822 33.5422 106.918 33.2985C107.04 33.0548 107.186 32.7874 107.234 32.7142C107.332 32.568 107.38 32.2031 107.332 32.1544C107.307 32.1544 107.21 32.1788 107.089 32.2275C106.991 32.2762 106.869 32.325 106.845 32.325C106.748 32.325 106.408 32.4712 106.408 32.4955C106.408 32.5199 106.383 32.5443 106.359 32.5443C106.335 32.5443 106.262 32.5686 106.213 32.6174C106.164 32.6905 106.067 32.7636 105.994 32.788C105.921 32.8367 105.799 32.9098 105.727 32.9829C105.655 33.056 105.508 33.1779 105.387 33.2504C105.289 33.3235 105.095 33.4697 104.998 33.5665C104.901 33.6396 104.731 33.8102 104.609 33.9071C104.245 34.1989 103.588 34.9781 103.588 35.0999C103.588 35.0999 103.515 35.2461 103.418 35.3917C103.175 35.7566 103.199 35.7323 103.078 35.8541C102.981 36.0003 102.859 36.2434 102.859 36.2921C102.859 36.3165 102.835 36.3652 102.81 36.3652C102.713 36.3896 102.519 36.7058 102.519 36.8033C102.519 36.8764 102.47 36.9738 102.348 37.1682C102.275 37.2413 102.251 37.3144 102.251 37.3388C102.251 37.3388 102.178 37.4362 102.105 37.5093C102.056 37.5824 101.959 37.6799 101.935 37.7283C101.837 37.9233 101.74 38.1176 101.643 38.2395C101.595 38.2882 101.522 38.4344 101.497 38.5313C101.449 38.6531 101.351 38.8475 101.278 38.9693C101.205 39.0911 101.132 39.2367 101.084 39.2855C101.059 39.3586 101.011 39.4317 100.962 39.4804C100.913 39.5292 100.865 39.6266 100.84 39.6754C100.816 39.7485 100.792 39.846 100.743 39.8947C100.548 40.2596 100.427 40.552 100.427 40.6251C100.427 40.8685 100.16 41.0632 99.9896 40.9657C99.9409 40.9169 99.8679 40.8682 99.8436 40.8438C98.847 40.1621 98.8227 39.3833 99.7219 37.8011C99.9166 37.4606 100.086 37.2169 100.208 37.0223C100.281 36.9004 100.378 36.7305 100.427 36.6086C100.476 36.4868 100.549 36.3893 100.573 36.3649C100.597 36.3162 100.646 36.2431 100.67 36.1944C100.695 36.1213 100.743 36.0725 100.743 36.0481C100.768 36.0238 100.816 35.9507 100.865 35.8776C100.889 35.8045 100.962 35.707 100.987 35.6586C101.035 35.6098 101.084 35.5123 101.133 35.4392C101.157 35.3661 101.23 35.2443 101.279 35.1718C101.328 35.0993 101.401 34.9525 101.425 34.8556C101.474 34.7825 101.595 34.6119 101.668 34.4907C101.766 34.3445 101.863 34.1745 101.935 34.0527C102.057 33.8093 102.154 33.639 102.324 33.371C102.397 33.2491 102.494 33.0792 102.543 32.9817C102.592 32.8842 102.665 32.7867 102.689 32.7624C102.713 32.7136 102.762 32.5918 102.811 32.4706C102.859 32.3487 102.932 32.2272 102.957 32.1544C103.03 32.0569 103.079 31.7407 103.03 31.6676C102.932 31.5214 102.179 31.9113 101.693 32.3734C101.523 32.5683 101.304 32.7627 101.231 32.8114C101.085 32.9089 100.915 33.0789 100.915 33.1276C100.915 33.152 100.891 33.2007 100.867 33.2251C100.769 33.2738 100.137 34.0283 99.9428 34.3204C99.8211 34.491 99.6513 34.7341 99.554 34.8559C99.2869 35.1721 99.0679 35.5376 99.0192 35.6835C98.9949 35.7566 98.9462 35.8054 98.8975 35.8297C98.8489 35.8297 98.7515 35.9516 98.6788 36.0734C98.6058 36.2196 98.4841 36.4383 98.3874 36.5602C98.3144 36.7064 98.144 36.9495 98.0473 37.1201C97.8286 37.5337 97.8042 37.5581 97.6828 37.753C97.4882 38.0448 97.4398 38.1179 97.4157 38.1423C97.3914 38.1423 97.3671 38.1667 97.3671 38.191C97.3671 38.2398 97.2941 38.3616 97.1967 38.4828C97.0994 38.6047 97.0264 38.7503 97.002 38.799C96.9777 38.8478 96.929 38.9696 96.856 39.0665C96.783 39.1639 96.7343 39.2614 96.7343 39.2855C96.7343 39.3095 96.6857 39.3586 96.6613 39.4317C96.6127 39.4804 96.5153 39.6266 96.4666 39.7235C96.418 39.821 96.345 39.9185 96.345 39.9185C96.3206 39.9428 96.2719 40.0403 96.1989 40.1859C96.1259 40.3077 96.0773 40.4296 96.0529 40.4296C96.0042 40.4539 95.8095 40.892 95.7858 41.0138C95.7615 41.1113 95.5187 41.4518 95.4457 41.4518C95.4457 41.4518 95.3727 41.4275 95.2997 41.3787C94.5946 40.9894 94.0357 39.845 94.4732 39.6751C94.4975 39.6751 94.5949 39.5289 94.6679 39.3589C94.7409 39.2127 94.8382 39.0183 94.8866 38.9209C94.9353 38.8478 95.0326 38.7016 95.0813 38.6047C95.13 38.5078 95.2273 38.3372 95.3003 38.2398C95.3733 38.1423 95.422 38.0205 95.422 37.9961C95.422 37.9717 95.422 37.9474 95.4463 37.9474C95.4707 37.9474 95.7134 37.5824 95.7134 37.5337C95.7134 37.5337 95.7621 37.4362 95.8351 37.3144C95.9081 37.1925 96.0055 37.0469 96.0298 36.9982C96.0541 36.9251 96.1028 36.8276 96.1515 36.7789C96.2001 36.7058 96.2732 36.5839 96.2975 36.4871C96.3462 36.414 96.4192 36.3165 96.4435 36.2681C96.4922 36.195 96.5409 36.1219 96.6625 35.9275C96.6869 35.8544 96.7356 35.8057 96.7356 35.8057C96.7599 35.8057 96.8086 35.7082 96.8572 35.6107C96.9059 35.4889 96.9789 35.3674 97.0033 35.3433C97.0763 35.2702 97.4894 34.6129 97.4894 34.5644C97.4894 34.5644 97.5137 34.5157 97.538 34.4913C97.611 34.4182 97.7571 34.1995 97.7814 34.1264C97.8057 34.102 97.8544 34.0046 97.9031 33.9314C97.9518 33.8583 98.0248 33.7365 98.0248 33.6878C98.0491 33.639 98.0978 33.5659 98.1221 33.5416C98.1951 33.4685 98.2438 33.3466 98.4379 32.9817C98.5109 32.8111 98.5839 32.6655 98.6082 32.6411C98.6569 32.5193 98.7542 32.3493 98.8029 32.2031C98.8273 32.1544 98.8516 32.1056 98.8516 32.0569C99.1917 31.2537 99.1674 30.6694 98.9733 30.4745C98.7545 30.3283 99.0949 30.0121 99.4837 30.1583C99.5324 30.1583 99.5567 30.1827 99.5811 30.1827C99.6297 30.2071 99.6541 30.2314 99.6784 30.2558C99.7271 30.2802 99.8244 30.3776 99.8971 30.402C99.9702 30.4507 100.067 30.5482 100.116 30.621C100.141 30.6697 100.189 30.7428 100.214 30.7428C100.36 30.8647 100.505 31.9113 100.408 32.3253C100.376 32.4715 100.57 32.293 100.992 31.7898C101.283 31.4492 101.624 31.1081 101.818 30.9622C101.916 30.8891 102.061 30.7916 102.158 30.7185C102.839 30.183 103.252 30.0368 103.933 30.183C103.981 30.2074 104.054 30.2317 104.079 30.2561C104.103 30.2805 104.176 30.3292 104.249 30.3536C104.371 30.4023 104.662 30.6697 104.833 30.8891C105.003 31.1327 105.1 31.8869 104.979 32.1791C104.906 32.3253 104.881 32.4709 104.906 32.4709C104.954 32.4709 105.173 32.2759 105.367 32.0816C105.562 31.8869 105.659 31.7898 105.878 31.6436C105.951 31.5948 106.072 31.4974 106.145 31.4242C106.242 31.3511 106.34 31.2537 106.412 31.2293C106.461 31.2049 106.558 31.1562 106.582 31.1075C106.68 31.0344 107.141 30.7913 107.19 30.7913C107.214 30.7913 107.263 30.7669 107.287 30.7425C107.287 30.7182 107.409 30.6451 107.555 30.5963C107.676 30.5476 107.774 30.4989 107.774 30.4745C107.774 30.4745 107.822 30.4501 107.871 30.4501C107.92 30.4501 107.968 30.4501 107.993 30.4258C108.09 30.3039 109.062 30.4501 109.062 30.572C109.062 30.5963 109.087 30.5963 109.135 30.5963C109.16 30.5963 109.16 30.6207 109.16 30.6451C109.135 30.6694 109.16 30.6938 109.208 30.6938C109.257 30.7182 109.281 30.7425 109.281 30.7425C109.281 30.7669 109.306 30.7669 109.33 30.7669C109.379 30.7425 109.403 30.7669 109.403 30.7913C109.403 30.84 109.427 30.8644 109.476 30.8888C109.84 31.1324 109.573 32.3006 108.965 33.1766C108.941 33.2254 108.819 33.42 108.722 33.5903C108.649 33.7609 108.527 33.9552 108.503 34.0039C108.43 34.1014 108.357 34.2233 108.066 34.8072C107.993 34.9047 107.92 35.0265 107.895 35.0746C107.822 35.1477 107.531 35.7076 107.385 36.0238C107.36 36.1213 107.263 36.2912 107.19 36.4131C107.117 36.5349 107.02 36.7292 106.971 36.8267C106.922 36.9486 106.801 37.1673 106.704 37.3378C106.364 37.9708 106.072 38.6278 105.877 39.1633C106.048 39.1146 106.291 38.9684 106.412 38.8472C106.485 38.7984 106.631 38.7009 106.728 38.6035C107.312 38.1654 108.697 36.7292 108.868 36.4131C108.868 36.3643 108.965 36.2668 109.038 36.1937C109.111 36.0963 109.208 35.9504 109.257 35.8776C109.305 35.8045 109.33 35.7557 109.354 35.7557C109.378 35.7557 109.427 35.707 109.451 35.6583C109.767 35.1715 110.302 35.3177 110.108 35.8532L110.104 35.8523L110.102 35.8526Z" fill="white"/>
<path d="M116.18 31.7638C116.132 31.7881 116.083 31.8125 116.058 31.8369H115.718C115.086 31.8369 114.576 32.3724 114.162 33.4193C114.089 33.6386 113.822 34.8555 113.822 35.0017C113.822 35.0748 113.798 35.1479 113.774 35.1723C113.749 35.221 113.652 35.7565 113.603 36.073C113.579 36.2679 113.482 36.6816 113.409 37.0221C113.36 37.1684 113.311 37.4114 113.311 37.5333C113.287 37.6307 113.214 37.8494 113.141 37.9713C113.092 38.1175 113.019 38.2387 113.019 38.2631C113.019 38.2631 112.995 38.3362 112.946 38.4093C112.8 38.653 112.751 38.7011 112.751 38.7255C112.751 38.7499 112.46 39.1391 112.436 39.1391C112.436 39.1391 112.411 39.1635 112.411 39.1879C112.411 39.3828 111.779 39.9667 111.269 40.2589C111.147 40.332 111.05 40.3807 111.05 40.4051C111.05 40.4294 111.026 40.4538 110.977 40.4538C110.928 40.4782 110.88 40.5025 110.855 40.5269C110.685 40.6975 110.102 40.7944 109.591 40.7462C109.251 40.7219 108.692 40.5757 108.522 40.4544C108.449 40.4057 108.351 40.3326 108.255 40.3082C108.06 40.2107 107.428 39.4562 107.428 39.286C107.428 39.2616 107.355 39.091 107.234 38.7992C107.136 38.5799 107.063 38.2393 107.039 37.8985C106.941 36.7788 107.647 36.7788 107.865 37.363C107.865 37.4117 107.89 37.4605 107.914 37.4848V37.5336C107.963 37.631 107.987 37.7285 108.036 37.801C108.23 38.2147 108.522 38.4583 108.838 38.4583C108.862 38.4583 108.911 38.4827 108.911 38.4827C108.935 38.5315 109.202 38.6046 109.251 38.6046C109.275 38.6046 109.3 38.6046 109.324 38.6289C109.543 38.7995 110.345 38.6533 110.71 38.3615C110.758 38.3127 110.807 38.2884 110.831 38.2884C110.904 38.2884 111.196 37.9478 111.342 37.6798C111.488 37.4361 111.706 36.974 111.706 36.9496C111.706 36.9253 111.731 36.8522 111.779 36.7547C111.901 36.4873 112.095 35.8783 112.144 35.635C112.168 35.5131 112.192 35.3432 112.217 35.2701C112.217 35.1969 112.265 34.9539 112.314 34.7346C112.363 34.5152 112.411 34.2234 112.436 34.0772C112.46 33.9554 112.509 33.7367 112.533 33.6148C112.598 33.3553 112.557 33.3145 112.411 33.493C112.29 33.6148 112.168 33.7604 112.12 33.7848C112.096 33.8335 112.023 33.9066 111.998 33.9554C111.974 34.0041 111.877 34.126 111.804 34.2472C111.001 35.1963 110.199 36.0727 109.373 37.0949C109.251 37.2411 109.081 37.4111 108.935 37.5573C108.862 37.6061 108.668 37.8248 108.546 37.7763C108.255 37.7276 108.206 37.2896 108.449 36.9975C108.741 36.6082 109.008 36.2186 109.3 35.829C109.591 35.4641 109.932 35.0989 110.224 34.7336C110.443 34.49 110.661 34.2469 110.856 34.0032C110.953 33.9057 111.099 33.7598 111.147 33.6383C111.172 33.5895 111.196 33.5408 111.22 33.5652C111.237 33.5652 111.245 33.557 111.245 33.5408C111.245 33.4921 111.464 33.2246 111.731 32.9322C111.95 32.6885 112.047 32.5673 112.047 32.5429C112.047 32.5186 112.071 32.4698 112.12 32.4455C112.168 32.4211 112.241 32.348 112.29 32.2992C112.46 32.1043 112.898 31.6175 113.481 31.0092C113.724 30.7418 113.87 30.62 113.894 30.62C113.919 30.6443 113.992 30.62 114.016 30.5712C114.065 30.5469 114.186 30.4737 114.307 30.425C114.429 30.4006 114.551 30.3519 114.575 30.3275C115.352 29.8408 115.912 30.0839 116.131 31.0577C116.277 31.6175 116.278 31.7153 116.18 31.7638Z" fill="white"/>
</g>
<defs>
<clipPath id="clip0_14738_28540">
<rect width="120" height="42" fill="white" transform="translate(0 1)"/>
</clipPath>
</defs>
</svg>
