<svg width="120" height="44" viewBox="0 0 120 44" fill="none" xmlns="http://www.w3.org/2000/svg">
<path d="M37.4266 28.9289C37.7203 29.0284 38.0583 29.0857 38.4404 29.0998V29.3139H36.281C35.4881 29.3139 34.768 29.25 34.1224 29.1214C33.476 28.9787 32.9032 28.7439 32.4041 28.4161C31.9049 28.0884 31.4712 27.6462 31.1047 27.0911C30.9868 26.9202 30.8551 26.7061 30.7078 26.4498C30.5761 26.1793 30.4361 25.8939 30.2888 25.5944C30.1416 25.2949 29.9951 25.0103 29.8486 24.739C29.7161 24.4536 29.5991 24.1972 29.496 23.969C29.3928 23.7409 29.32 23.5625 29.2758 23.4347C29.0852 22.9784 28.8569 22.6365 28.5926 22.4084C28.343 22.1802 28.0714 22.045 27.7776 22.0018V21.7878H28.4608C28.8577 21.7878 29.239 21.7098 29.6064 21.553C29.9885 21.3962 30.3257 21.1398 30.6194 20.783C30.9132 20.4271 31.1186 19.9351 31.2364 19.3078C31.2659 19.1792 31.2879 19.0299 31.3027 18.859C31.3321 18.6881 31.3395 18.4956 31.3248 18.2815C31.2806 17.2552 31.0163 16.5077 30.5319 16.0372C30.0475 15.5527 29.4452 15.303 28.7251 15.2889C28.5198 15.2747 28.2923 15.2747 28.0419 15.2889H27.0502V27.7516C27.0502 28.1224 27.1893 28.4427 27.4691 28.7132C27.7481 28.9695 28.0787 29.0981 28.4608 29.0981H28.7251V29.3122H22.0498V29.0981H22.3361C22.7183 29.0981 23.0415 28.9695 23.3058 28.7132C23.5848 28.4427 23.7321 28.1216 23.746 27.7516V15.9086C23.7313 15.5378 23.5848 15.225 23.3058 14.9678C23.0415 14.6973 22.7183 14.5612 22.3361 14.5612H22.0498V14.3472H29.6064C30.2676 14.3472 30.9132 14.4185 31.5449 14.5612C32.1766 14.7039 32.7346 14.9321 33.2191 15.2449C33.7182 15.5585 34.1151 15.9717 34.4088 16.4844C34.7026 16.9972 34.849 17.6319 34.849 18.3869C34.849 18.9851 34.7165 19.5841 34.4522 20.1823C34.2026 20.7664 33.8131 21.2725 33.2845 21.6998C32.7559 22.113 32.0727 22.3627 31.2356 22.4482C31.7053 22.5909 32.1316 22.8473 32.5137 23.2182C32.9106 23.589 33.233 23.9591 33.4833 24.3299C33.4981 24.3581 33.5791 24.4867 33.7256 24.7149C33.8868 24.9431 34.0782 25.2277 34.2983 25.5703C34.5332 25.898 34.7754 26.2332 35.025 26.5751C35.2745 26.9169 35.502 27.2164 35.7082 27.4728C36.0314 27.8578 36.3252 28.1714 36.5895 28.4136C36.8538 28.6418 37.1328 28.8127 37.4266 28.9264V28.9289ZM52.7093 20.1218C53.0914 20.9481 53.2821 21.8815 53.2821 22.922C53.2821 23.9624 53.0914 24.8742 52.7093 25.7006C52.3419 26.5128 51.8133 27.2114 51.1235 27.7955C50.4329 28.3796 49.6105 28.8285 48.6564 29.1421C47.7015 29.4416 46.6369 29.591 45.4619 29.591C44.2869 29.591 43.2444 29.4416 42.2895 29.1421C41.3346 28.8285 40.5122 28.3796 39.8224 27.7955C39.1318 27.2114 38.6032 26.5128 38.2366 25.7006C37.8692 24.8742 37.686 23.9474 37.686 22.922C37.686 21.8965 37.8692 20.9481 38.2366 20.1218C38.604 19.2954 39.1326 18.5902 39.8224 18.0052C40.5131 17.4211 41.3354 16.9789 42.2895 16.6802C43.2444 16.3666 44.3016 16.2098 45.4619 16.2098C46.6222 16.2098 47.7015 16.3666 48.6564 16.6802C49.6113 16.9798 50.4337 17.4211 51.1235 18.0052C51.8141 18.5893 52.3427 19.2954 52.7093 20.1218ZM49.8895 22.9228C49.8895 21.7114 49.7062 20.671 49.3388 19.8015C48.9862 18.9179 48.4723 18.2409 47.7964 17.7704C47.1353 17.2859 46.3571 17.0436 45.4611 17.0436C44.5651 17.0436 43.809 17.2859 43.1479 17.7704C42.4867 18.2409 41.9728 18.9179 41.6054 19.8015C41.238 20.671 41.0547 21.7114 41.0547 22.9228C41.0547 24.1341 41.238 25.153 41.6054 26.0225C41.9728 26.892 42.4867 27.569 43.1479 28.0536C43.809 28.524 44.5798 28.7588 45.4611 28.7588C46.3424 28.7588 47.1353 28.524 47.7964 28.0536C48.4723 27.569 48.9862 26.892 49.3388 26.0225C49.7062 25.153 49.8895 24.12 49.8895 22.9228ZM120 22.9228C120 23.9491 119.809 24.875 119.427 25.7014C119.06 26.5137 118.531 27.2123 117.841 27.7964C117.151 28.3805 116.328 28.8293 115.374 29.1429C114.419 29.4425 113.355 29.5918 112.18 29.5918C111.005 29.5918 109.962 29.4425 109.007 29.1429C108.053 28.8293 107.23 28.3805 106.54 27.7964C105.85 27.2123 105.321 26.5137 104.955 25.7014C104.587 24.875 104.404 23.9483 104.404 22.9228C104.404 21.8973 104.587 20.949 104.955 20.1226C105.322 19.2962 105.851 18.591 106.54 18.0061C107.231 17.422 108.053 16.9797 109.007 16.6811C109.962 16.3674 111.02 16.2106 112.18 16.2106C113.34 16.2106 114.419 16.3674 115.374 16.6811C116.329 16.9806 117.152 17.422 117.841 18.0061C118.532 18.5902 119.061 19.2962 119.427 20.1226C119.809 20.949 120 21.8824 120 22.9228ZM116.607 22.9228C116.607 21.7114 116.424 20.671 116.057 19.8015C115.704 18.9179 115.19 18.2409 114.514 17.7704C113.853 17.2859 113.075 17.0436 112.179 17.0436C111.283 17.0436 110.527 17.2859 109.866 17.7704C109.205 18.2409 108.691 18.9179 108.323 19.8015C107.956 20.671 107.773 21.7114 107.773 22.9228C107.773 24.1341 107.956 25.153 108.323 26.0225C108.691 26.892 109.205 27.569 109.866 28.0536C110.527 28.524 111.298 28.7588 112.179 28.7588C113.06 28.7588 113.853 28.524 114.514 28.0536C115.19 27.569 115.704 26.892 116.057 26.0225C116.424 25.153 116.607 24.12 116.607 22.9228ZM64.7296 27.0264C64.3769 27.4827 63.9514 27.8387 63.4514 28.095C62.967 28.3373 62.409 28.4584 61.7773 28.4584H59.1776V17.8343C59.1924 17.5066 59.3176 17.2361 59.5524 17.0221C59.7873 16.808 60.0663 16.7018 60.3895 16.7018H60.6538V16.4877H54.5291V16.7018H54.7934C55.1166 16.7018 55.3956 16.8088 55.6305 17.0221C55.8653 17.2361 55.9905 17.5066 56.0052 17.8343V27.9673C55.9905 28.2809 55.8653 28.5514 55.6305 28.7795C55.4104 28.9936 55.1387 29.1006 54.8155 29.1006H54.5291V29.3147H64.9055L65.7647 25.3811H65.5446C65.3539 26.0084 65.0822 26.5568 64.7296 27.0272V27.0264ZM76.605 27.0264C76.2524 27.4827 75.8269 27.8387 75.3269 28.095C74.8425 28.3373 74.2844 28.4584 73.6527 28.4584H71.0531V17.8343C71.0678 17.5066 71.193 17.2361 71.4279 17.0221C71.6627 16.808 71.9417 16.7018 72.265 16.7018H72.5293V16.4877H66.4046V16.7018H66.6689C66.9921 16.7018 67.2711 16.8088 67.5059 17.0221C67.7408 17.2361 67.866 17.5066 67.8807 17.8343V27.9673C67.866 28.2809 67.7416 28.5514 67.5059 28.7795C67.2858 28.9936 67.0142 29.1006 66.6909 29.1006H66.4046V29.3147H76.781L77.6401 25.3811H77.42C77.2294 26.0084 76.9577 26.5568 76.605 27.0272V27.0264ZM88.4805 27.0264C88.1278 27.4827 87.7015 27.8387 87.2032 28.095C86.7179 28.3373 86.1599 28.4584 85.5282 28.4584H82.9286V23.3924H85.4398C85.9537 23.4065 86.3571 23.5708 86.6517 23.8844C86.9602 24.198 87.114 24.5896 87.114 25.0601V25.231H87.3341V20.6992H87.114V20.8486C87.114 21.319 86.9602 21.7181 86.6517 22.0458C86.3571 22.3594 85.9537 22.5229 85.4398 22.5378H82.9286V17.3432H86.101C86.7466 17.3573 87.2392 17.5423 87.5763 17.899C87.929 18.255 88.1049 18.747 88.1049 19.3742V19.5667H88.3258V16.1675C88.1491 16.2247 87.8259 16.2961 87.3562 16.3815C86.8857 16.4529 86.4381 16.4886 86.0118 16.4886H78.2792V16.7026H78.5656C78.8888 16.7026 79.1605 16.8097 79.3806 17.0229C79.6154 17.237 79.7406 17.5074 79.7553 17.8352V27.9681C79.7406 28.2817 79.6154 28.5522 79.3806 28.7804C79.1605 28.9944 78.8888 29.1015 78.5656 29.1015H78.2792V29.3155H88.6556L89.4927 25.382H89.2947C89.1032 26.0092 88.8315 26.5576 88.4797 27.0281L88.4805 27.0264ZM103.803 28.5447C103.582 28.3307 103.325 28.032 103.032 27.647C102.782 27.3052 102.539 26.9775 102.305 26.6638C102.085 26.3361 101.901 26.0507 101.754 25.8084C101.608 25.5521 101.505 25.3662 101.446 25.2525C101.225 24.9248 100.917 24.5755 100.52 24.2055C100.138 23.8346 99.7349 23.5857 99.3086 23.4571C100.028 23.3434 100.609 23.1078 101.049 22.7519C101.504 22.3959 101.835 21.9753 102.04 21.4907C102.26 20.9921 102.37 20.4935 102.37 19.994C102.37 19.3244 102.231 18.7686 101.951 18.3263C101.686 17.87 101.327 17.5141 100.871 17.2577C100.416 16.9872 99.9018 16.7947 99.3298 16.6802C98.7571 16.5516 98.1695 16.4877 97.5681 16.4877H90.7823V16.7018H91.0695C91.378 16.7018 91.6423 16.8088 91.8624 17.0221C92.0571 17.1872 92.1717 17.3987 92.215 17.651V28.1241C92.1717 28.3713 92.0563 28.5904 91.8624 28.7787C91.6423 28.9928 91.3706 29.0998 91.0474 29.0998H90.7831V29.3139H96.8415V29.0998H96.6214C96.3276 29.0998 96.0486 29.0002 95.7843 28.8003C95.5347 28.6003 95.4095 28.3232 95.4095 27.9664V17.3656C95.5257 17.378 95.6861 17.3846 95.894 17.3846C96.1288 17.3705 96.3866 17.3705 96.6656 17.3846C96.8562 17.3846 97.0772 17.4203 97.3267 17.4917C97.591 17.5489 97.848 17.6626 98.0975 17.8335C98.3471 17.9903 98.5533 18.2326 98.7145 18.5603C98.8904 18.8739 98.9935 19.2946 99.023 19.8214C99.0377 20.0214 99.0304 20.1989 99.0009 20.3557C98.9862 20.5126 98.9641 20.6337 98.9346 20.7191C98.8176 21.3182 98.6335 21.7737 98.3839 22.0873C98.1352 22.3868 97.8553 22.5934 97.5468 22.7071C97.2531 22.8066 96.952 22.8564 96.6443 22.8564H96.0936V23.0489C96.299 23.0489 96.5191 23.1559 96.7548 23.3692C97.0035 23.5683 97.2244 23.8968 97.4151 24.3523C97.4593 24.5232 97.5329 24.7373 97.636 24.9937C97.7539 25.2501 97.8856 25.5139 98.0329 25.7844C98.1794 26.0548 98.3267 26.3262 98.4731 26.5966C98.6196 26.853 98.7595 27.0737 98.8921 27.2596C99.23 27.7872 99.5966 28.2071 99.9935 28.5207C100.405 28.8202 100.882 29.0268 101.425 29.1404C101.983 29.2541 102.659 29.3114 103.452 29.3114H105.302V29.0973C104.994 29.0973 104.722 29.0542 104.488 28.9687C104.253 28.8832 104.025 28.7405 103.805 28.5414L103.803 28.5447ZM10.3797 14.1588V14.9014C10.3797 14.9122 10.3797 14.9238 10.3805 14.9346C10.6317 14.8665 10.896 14.8209 11.1718 14.801V14.4301C11.1718 14.1049 11.4311 13.8419 11.7519 13.8419H12.337C12.2265 13.6369 12.0113 13.4976 11.7642 13.4976H11.2569L11.1407 11.9203C11.6234 11.7494 12.134 11.7527 12.5963 11.9071L12.7559 11.4847C11.8787 10.8384 10.6898 10.8384 9.81262 11.4847M10.7135 32.889L5.57156 27.9648V25.0684L6.90451 25.4542L8.52304 28.061L8.2841 27.2902L7.47566 24.6817L5.57156 23.3302V20.627C6.61894 20.1442 8.14254 19.7584 8.71369 20.1442C8.36429 19.8546 7.88888 19.7152 7.40938 19.658C6.45037 19.5435 5.47664 19.7575 5.47664 19.7575C5.49219 19.624 5.5151 19.4904 5.54374 19.3576C6.02078 17.188 8.29146 15.1968 11.3477 15.0814C12.6037 15.0341 14.5405 15.5286 15.6632 16.774C15.8457 16.9764 16.0077 17.198 16.1403 17.4402C14.1404 16.1849 12.1185 15.907 11.4745 16.9573C11.3984 17.0818 11.3575 17.2552 11.3428 17.4593C11.2601 18.6275 12.0457 20.8195 12.0457 20.8195L14.9399 21.4061L15.8547 21.592L14.0455 21.9886L12.1414 23.3293V25.4533L11.3796 26.7086L10.7127 25.4533V23.3293L9.37976 21.9778L7.34964 21.7903L7.285 21.7845L7.47566 22.9427L9.85599 24.198L10.671 32.4608L10.7127 32.8873L10.7135 32.889ZM12.1659 32.85L12.9531 24.0827L16.047 22.9435L14.1429 25.0675L12.1553 32.9421L12.1668 32.8491L12.1659 32.85ZM0 31.184C0.402586 30.0075 1.42051 30.3194 4.11996 30.6555C3.52835 30.0556 2.22568 30.0315 2.22568 30.0315L3.2436 29.4557C4.30898 27.4388 6.96097 32.889 6.96097 32.889C2.55707 30.1037 0 31.208 0 31.1848V31.184ZM14.8654 32.889C14.8654 32.889 17.5174 27.4388 18.5828 29.4557L19.6007 30.0315C19.6007 30.0315 18.2988 30.0556 17.7064 30.6555C20.4059 30.3194 21.4238 30.0075 21.8264 31.184C21.8264 31.208 19.2693 30.1037 14.8654 32.8881V32.889Z" fill="url(#paint0_linear_81669_330524)"/>
<defs>
<linearGradient id="paint0_linear_81669_330524" x1="60" y1="32.9429" x2="60" y2="10.9994" gradientUnits="userSpaceOnUse">
<stop stop-color="#B47F12"/>
<stop offset="0.34" stop-color="#D1A73F"/>
<stop offset="0.65" stop-color="#F8DE7B"/>
<stop offset="1" stop-color="#BE8A21"/>
</linearGradient>
</defs>
</svg>
