<svg width="121" height="44" viewBox="0 0 121 44" fill="none" xmlns="http://www.w3.org/2000/svg">
  <mask id="mask0_14738_28540" style="mask-type:luminance" maskUnits="userSpaceOnUse" x="1" y="7" width="29" height="29">
    <path d="M29.9352 7.34796H1.27269V35.0009H29.9352V7.34796Z" fill="white"/>
  </mask>
  <g mask="url(#mask0_14738_28540)">
    <path d="M9.75967 15.5959C9.75967 15.5959 10.4279 16.1004 10.2162 16.6967C10.0039 17.2929 8.86758 17.2712 8.51668 17.5666C8.16578 17.8621 7.61689 18.3602 7.63394 19.3337C7.63394 19.3337 7.01244 18.6271 6.80124 17.7725C6.80124 17.7725 6.49985 19.1321 8.67398 21.0885C10.8476 23.0449 12.8644 23.7112 15.093 23.9154C15.093 23.9154 12.5548 24.0979 9.32297 22.4534C9.32297 22.4534 6.66814 20.5188 6.111 18.9066C5.55385 17.2945 5.54285 16.4235 7.15874 15.8001C8.77408 15.1768 9.76077 15.5954 9.76077 15.5954L9.75967 15.5959Z" fill="#E82790"/>
    <path d="M23.1097 9.20572C22.816 9.41897 22.4591 9.5187 22.1324 9.67732C21.7991 9.82002 21.4647 9.959 21.1226 10.0847C20.4412 10.3542 19.7097 10.473 18.976 10.4799C19.3357 10.4211 19.697 10.3728 20.0479 10.2911C20.7519 10.125 21.4158 9.83222 22.09 9.57865L22.3441 9.4821C22.596 9.38131 22.8683 9.33303 23.1103 9.20572H23.1097Z" fill="#E82790"/>
    <path d="M18.7961 7.57873C18.3561 7.59199 17.9172 7.57767 17.4833 7.58563C16.1858 7.62011 14.8779 7.76758 13.5865 7.86996C12.2963 7.99993 11.0043 8.13468 9.77727 8.54421C9.36918 8.67895 8.97593 8.85613 8.58708 9.05453C8.91928 8.77603 9.26853 8.50177 9.66562 8.30708C11.6462 7.39518 14.015 7.34585 16.1721 7.30553C17.0532 7.27901 17.9365 7.40102 18.7961 7.57873Z" fill="#E82790"/>
    <path d="M16.1055 7.34637C15.1766 7.34637 14.2861 7.75007 13.4754 7.81373C13.4892 7.81267 15.7717 7.7331 15.7717 7.7331C15.7717 7.7331 15.6331 7.75962 15.3586 7.79251C14.0045 7.95378 13.6091 8.07579 13.6091 8.07579C13.6091 8.07579 18.2175 7.99515 18.217 9.3638C18.217 10.1478 16.4872 10.3054 16.0379 10.307C19.8785 10.307 23.1867 9.59774 23.1867 8.85294C23.1867 8.10815 19.9462 7.34637 16.1055 7.34637Z" fill="#E82790"/>
    <path d="M9.74814 8.17978C9.74814 8.17978 9.68379 8.39993 9.67554 8.39993C9.66729 8.39993 8.93964 8.83652 8.93964 8.83652L8.62614 9.01953L8.82909 8.6848L9.74814 8.17978Z" fill="#E82790"/>
    <path d="M21.4938 15.467C21.4938 15.467 21.0258 16.5258 21.4213 17.0362C21.5274 17.1863 23.8478 17.2542 23.6977 19.3501C23.9903 18.9475 24.6503 18.0929 24.6585 16.8027C24.7586 17.4399 24.8004 18.496 24.3159 19.2456C23.8313 19.9952 22.5185 21.4609 22.5185 21.4609C22.5185 21.4609 23.4634 20.8662 23.9897 20.4228C24.5161 19.9793 25.4945 18.5449 25.544 18.0849C25.5935 17.625 26.1793 16.102 23.6718 15.5864C21.4158 15.2877 21.4933 15.4675 21.4933 15.4675L21.4938 15.467Z" fill="#E82790"/>
    <path d="M20.2376 10.3075C20.2376 10.3075 19.1927 12.3605 19.1927 14.2145C19.1927 16.0686 19.2433 17.6971 19.719 17.7131C19.9726 17.7221 20.2795 17.321 20.5121 16.9428C20.7299 16.5884 20.8839 16.2012 20.9757 15.7996C21.2232 14.7158 21.8156 12.2003 22.051 11.8602C22.1846 11.9568 22.4541 11.9775 22.5355 11.8926C22.9282 11.4815 23.3963 8.61157 23.3963 8.61157C23.3963 8.61157 22.5366 9.72718 20.2376 10.3075Z" fill="#E82790"/>
    <path d="M8.87143 8.92616C8.87143 8.92616 10.4505 12.5303 10.6089 13.6665C10.4582 12.1674 9.75637 9.93407 9.75637 9.93407C9.75637 9.93407 11.3189 10.4417 12.4728 10.4905C13.6261 10.5394 15.214 11.3828 15.5984 14.6071C15.6265 12.9626 15.5148 12.4252 15.5148 12.4252C15.5148 12.4252 16.1253 12.9117 16.2502 15.9237C16.3591 18.5353 15.8327 18.6488 15.8327 18.6488C15.8327 18.6488 11.0637 18.9878 10.4307 15.6097C9.89442 12.7462 8.52218 9.98394 8.42978 9.01846C8.41383 8.84552 8.68993 8.76065 8.87198 8.92669L8.87143 8.92616Z" fill="#E82790"/>
    <path d="M14.796 23.4534C14.796 23.4534 19.5936 23.4927 22.5685 20.5469C22.2517 21.0514 20.2459 24.0985 14.796 23.4534Z" fill="#E82790"/>
    <path d="M10.7392 23.3044C10.7392 23.3044 13.2841 24.6916 16.1424 24.3589C16.2342 24.8401 16.2227 25.3075 16.3844 25.4692C16.5461 25.6305 16.6352 26.3939 15.7321 26.388C15.3751 26.388 14.6623 25.5875 14.6623 25.5875C14.5733 25.4958 14.2334 25.6146 14.5452 25.9584C14.857 26.3021 15.225 26.3185 15.236 26.3886C15.247 26.4586 14.411 26.9854 13.5585 27.2808C12.706 27.5763 12.4272 27.7694 12.249 27.501C12.0708 27.2326 10.8982 25.2947 10.7387 23.3049L10.7392 23.3044Z" fill="#E82790"/>
    <path d="M17.5795 25.5265C17.5795 25.5265 18.602 26.0925 18.7246 27.5593C18.6691 27.6081 16.8717 26.8527 16.6099 26.5408C17.0719 26.1164 17.4206 25.7376 17.4206 25.7376C17.4206 25.7376 17.2275 25.466 17.2479 25.4316C17.2721 25.3907 17.5801 25.527 17.5801 25.527L17.5795 25.5265Z" fill="#E82790"/>
    <path d="M20.5638 24.4422C20.5638 24.4422 22.3579 28.2691 22.6032 30.1391C22.6252 29.3327 22.1461 27.0326 22.1461 27.0326L24.3527 30.5369C24.3527 30.5369 25.3334 30.3974 25.9796 30.6011C25.1211 30.8266 23.3495 31.3645 22.7033 32.3209L22.7698 32.4069C22.7698 32.4069 24.5414 31.5899 24.9649 31.4822C25.3884 31.3751 26.2915 31.009 27.238 31.1486C28.1845 31.2881 30.258 31.6966 30.258 31.6966C30.258 31.6966 30.0243 31.2663 29.6673 31.0303C29.3104 30.7942 26.4136 29.9232 26.4136 29.9232L24.8087 29.6977L22.8248 26.6342C22.1137 25.7912 21.4009 25.0581 20.6853 24.4778L20.5627 24.4417L20.5638 24.4422Z" fill="#E82790"/>
    <path d="M10.3751 24.6709C10.3751 24.6709 8.83844 28.2633 8.59369 30.1338C8.57169 29.3274 9.05073 27.0273 9.05073 27.0273L6.84415 30.5316C6.84415 30.5316 5.86351 30.3921 5.21726 30.5958C6.07581 30.8213 7.84734 31.3592 8.49359 32.3156L8.42704 32.4016C8.42704 32.4016 6.6555 31.5846 6.232 31.4769C5.80851 31.3698 4.90541 31.0038 3.95887 31.1433C3.01233 31.2828 0.938843 31.6913 0.938843 31.6913C0.938843 31.6913 1.17259 31.261 1.52954 31.025C1.88649 30.7889 4.78332 29.9179 4.78332 29.9179L6.3882 29.6924L8.37204 26.6289C9.08428 25.7859 9.74538 25.0788 10.2948 24.6698H10.3762L10.3751 24.6709Z" fill="#E82790"/>
    <path d="M11.7166 28.9672C11.7166 28.9672 12.1846 31.5146 15.1436 32.2727C14.8092 32.3533 13.806 32.74 13.5723 34.9166C13.2384 34.6588 10.8976 32.0467 11.7166 28.9672Z" fill="#E82790"/>
    <path d="M23.2665 21.4164C23.2665 21.4164 24.4363 21.7071 25.0331 21.0721C25.6293 20.4382 25.8245 19.3528 26.5373 19.3576C27.2501 19.3634 27.9359 19.4541 29.1619 20.3623C28.2758 20.1692 26.9889 19.7331 26.5373 20.9379C26.7881 20.7448 28.0866 20.1856 29.0673 20.653C27.8023 20.8731 26.9438 21.2498 26.5489 21.7442C26.1534 22.2386 24.8268 22.889 23.267 21.4164H23.2665Z" fill="#E82790"/>
    <path d="M22.7368 21.8678C22.7368 21.8678 23.6955 22.4158 24.3082 22.6529C24.9209 22.8895 25.4951 22.7664 25.9521 22.5675C26.4092 22.3686 27.3392 22.4704 27.8914 24.1038C27.585 23.8025 27.2281 23.2922 26.671 23.2439C27.0109 23.4428 27.579 24.0396 27.6125 24.3834C27.3249 24.2237 27.1412 24.0412 26.9718 23.8921C26.7298 23.6789 26.3943 23.5945 26.0748 23.6667C25.6353 23.7659 24.7212 23.8449 24.1415 23.0073C24.4759 23.7818 24.6261 24.4046 25.819 24.2168C25.6683 24.3351 25.2619 24.926 24.1921 24.2332C23.1224 23.5404 22.6752 21.8148 22.6752 21.8148L22.7374 21.8683L22.7368 21.8678Z" fill="#E82790"/>
    <path d="M9.64858 22.5346C9.64858 22.5346 9.92468 23.1112 9.95383 23.377C9.98243 23.6428 10.1546 23.777 10.2068 23.8645C10.2585 23.952 10.3878 24.3547 10.1414 24.3197C9.85373 24.2793 9.83943 24.2183 9.86253 24.1791C9.86253 24.1791 9.37744 23.1664 9.49678 22.5468C9.52153 22.4624 9.64913 22.5346 9.64913 22.5346H9.64858Z" fill="#E82790"/>
    <path d="M21.7353 22.654C21.6863 22.6481 21.6363 22.6837 21.6022 22.7399C21.5103 22.8932 21.2947 23.2672 21.2452 23.4704C21.1825 23.7303 21.0038 23.8428 20.9433 23.9239C20.8833 24.0046 20.709 24.3881 20.9427 24.3828C21.2166 24.377 21.2381 24.3186 21.2221 24.2762C21.2221 24.2762 21.8123 23.3298 21.7848 22.7012C21.7804 22.6688 21.7595 22.6561 21.7353 22.654Z" fill="#E82790"/>
    <path d="M21.2463 18.3539L21.0203 16.0362C21.0203 16.0362 21.1204 18.4653 16.265 18.8419C11.1853 19.2042 10.4582 16.4033 10.4582 16.4033C10.4582 16.4033 10.2657 17.7889 10.3553 18.6578C10.4444 19.5273 12.0933 20.8943 15.9944 20.8943C19.5606 20.8943 20.8927 19.278 21.1804 18.7066C21.2353 18.5974 21.2579 18.4754 21.2458 18.3539H21.2463ZM16.1589 20.5352L15.4906 19.1326C16.4465 19.1804 18.1207 19.0302 19.3731 18.3804L19.9616 19.5353C19.9616 19.5353 18.2654 20.6721 16.1589 20.5347V20.5352Z" fill="#E82790"/>
    <path d="M15.599 32.6541C15.599 32.6541 14.4066 32.1703 14.4511 33.2668C14.4957 34.3633 15.599 34.6964 15.599 34.6964C15.599 34.6964 16.7023 34.3633 16.7468 33.2668C16.7914 32.1708 15.599 32.6541 15.599 32.6541ZM15.6116 33.7559C15.4197 33.7559 15.2646 33.6063 15.2646 33.4211C15.2646 33.236 15.4197 33.0864 15.6116 33.0864C15.8036 33.0864 15.9587 33.236 15.9587 33.4211C15.9587 33.6063 15.8036 33.7559 15.6116 33.7559Z" fill="#E82790"/>
    <path d="M17.0323 27.4819C16.4581 27.2294 16.3244 27.31 16.1688 27.3901C16.0131 27.4707 15.6171 27.4893 15.4499 27.3928C15.2827 27.2962 14.9654 27.2235 14.8647 27.3121C14.7646 27.4007 14.2212 27.5217 13.8868 27.6257C13.5525 27.7291 12.6329 27.9333 12.6329 27.9333C12.6329 27.9333 13.4188 29.6022 14.5177 29.6059C15.4774 29.6091 15.4186 29.0431 15.3372 28.8893C15.1408 28.8659 14.2641 28.4585 14.2641 28.4585C14.4181 28.5222 14.6519 28.5938 14.8471 28.641C14.9632 28.6696 15.0803 28.6871 15.1958 28.6569C15.3608 28.607 15.7293 28.6139 15.7293 28.6139C15.7293 28.6139 16.221 28.6129 16.4476 28.6633C16.5549 28.6824 16.6671 28.6564 16.7721 28.6304C16.9674 28.5832 17.172 28.5222 17.326 28.4585C17.326 28.4585 16.4795 28.8596 16.2815 28.8829C15.9042 29.1259 16.2469 29.6059 17.0207 29.6059C17.8694 29.6059 18.7873 27.9333 18.7873 27.9333C18.7873 27.9333 17.6054 27.7349 17.0323 27.4824V27.4819ZM17.046 27.8309C16.9118 27.9137 16.2551 27.9609 15.9455 27.9795C15.8393 27.9858 15.7337 27.9864 15.6281 27.9805C15.2778 27.962 14.4968 27.9153 14.3169 27.8235C14.1827 27.7763 13.971 27.6782 13.971 27.6782C14.0397 27.7063 14.1404 27.7312 14.2267 27.7508C14.2619 27.7588 14.2988 27.7599 14.3345 27.7546C14.521 27.6829 15.1227 27.5286 15.407 27.5928C15.7409 27.6681 16.2722 27.5795 16.2722 27.5795C16.2722 27.5795 16.7815 27.6188 17.0075 27.7445C17.0565 27.7599 17.1098 27.7615 17.1599 27.7503C17.2462 27.7312 17.3469 27.7052 17.4156 27.6776C17.4151 27.6776 17.1764 27.788 17.0455 27.8309H17.046Z" fill="#E82790"/>
    <path d="M18.9639 31.2992C19.4204 30.5741 19.7878 29.3826 19.7905 29.372C19.7663 29.2383 19.7366 29.103 19.7003 28.9672C19.7003 28.9672 19.2323 31.5146 16.2733 32.2727C16.6077 32.3533 17.6109 32.74 17.8446 34.9166C18.1361 34.6917 19.9489 32.6811 19.8703 30.1306L18.9633 31.2998L18.9639 31.2992Z" fill="#E82790"/>
    <path d="M16.1842 10.5028C14.895 10.5553 13.6179 10.325 12.3474 10.1388C11.0769 9.94841 9.76132 9.65399 8.73613 8.86198L8.74988 8.84076C9.90377 9.38079 11.1396 9.66884 12.3865 9.94151C13.6404 10.1749 14.9005 10.4534 16.1831 10.4778C16.1836 10.4778 16.1842 10.5033 16.1842 10.5033V10.5028Z" fill="#E82790"/>
  </g>
  <path d="M36.2546 19.191C34.2131 18.2961 33.5531 17.9778 33.5531 16.625C33.5531 15.6108 34.1922 15.0336 35.3471 15.0336C36.8525 15.0336 38.09 16.3465 38.5437 18.4154H39.6987C39.6162 17.7194 39.575 17.0033 39.575 16.3067C39.575 15.6102 39.6371 14.9938 39.6987 14.5562C38.9975 14.2978 37.4712 13.9795 35.5534 13.9795C31.7997 13.9795 29.6756 15.3519 29.6756 17.799C29.6756 20.2461 31.6759 20.9819 33.5531 21.7575C35.1821 22.4338 36.2546 23.1102 36.2546 24.5425C36.2546 25.8353 35.4296 26.5716 34.0481 26.5716C32.2127 26.5716 30.934 24.8411 30.7068 22.7723H29.5727C29.614 23.3096 29.6349 23.8661 29.6349 24.4035C29.6349 25.0799 29.5727 26.1737 29.449 26.7907C29.9643 27.049 31.4493 27.6458 33.904 27.6458C37.7193 27.6458 40.1321 26.0745 40.1321 23.2895C40.1321 20.8625 38.3171 20.087 36.2546 19.1915V19.191Z" fill="white"/>
  <path d="M49.68 17.6993C48.734 17.6993 47.2265 17.7019 45.906 18.9756V17.7788L41.3481 17.9576V18.3953C42.3381 18.634 42.7094 19.5687 42.7094 21.6975V28.1423C42.7094 30.3104 42.2969 31.2653 41.3069 31.4244V31.8817C42.0494 31.8021 42.936 31.7623 44.2769 31.7623C45.741 31.7623 46.7722 31.8021 47.5972 31.8817V31.4244C46.071 31.2451 45.906 30.0319 45.906 28.1423V27.3466C46.2976 27.5058 46.7722 27.6447 47.8447 27.6447C51.2272 27.6447 53.145 25.7154 53.145 22.2938C53.145 19.3697 51.8663 17.6987 49.68 17.6987V17.6993ZM51.9829 22.2911C51.99 22.3341 51.9928 22.385 51.9961 22.4391C51.9977 22.4651 51.9994 22.4911 52.001 22.5171L52.0071 22.6343C52.0071 22.6556 52.0065 22.6768 52.006 22.6975L52.0049 22.7335C52.0027 22.8089 51.9994 22.8826 51.995 22.9547C51.9939 22.9654 51.9922 22.9754 51.9911 22.986C51.8278 23.899 51.2684 24.7403 50.3785 25.2523C48.761 26.1833 46.6677 25.6729 45.7025 24.1128C45.4605 23.7213 45.3125 23.3006 45.252 22.8757C45.2636 22.9314 45.2779 22.9892 45.2971 23.0481C45.3637 23.3006 45.4742 23.5531 45.6436 23.8412L45.6469 23.8465L45.6502 23.8518C45.9709 24.3611 46.4103 24.7648 46.9224 25.0199C47.0263 25.0772 47.1292 25.117 47.2205 25.1525C47.2491 25.1637 47.2777 25.1748 47.3057 25.1865L47.3552 25.2035C47.3844 25.2119 47.413 25.2204 47.4421 25.2289C47.5389 25.2581 47.6484 25.291 47.7661 25.3096C47.7815 25.3122 47.7969 25.3154 47.8117 25.3186C47.8585 25.3281 47.9168 25.3403 47.985 25.3456L48.1698 25.3637C48.2297 25.3684 48.2831 25.3684 48.3303 25.3684C48.3479 25.3684 48.365 25.3684 48.382 25.3684H48.481L48.6053 25.3605C48.8622 25.3462 49.13 25.2894 49.4254 25.1875L49.6074 25.1159L49.6228 25.1096C49.6718 25.0883 49.7152 25.0655 49.7532 25.0459C49.7686 25.0379 49.784 25.03 49.8054 25.0194L49.8929 24.9743L49.9033 24.9685C49.9259 24.9552 49.9484 24.9409 49.9704 24.9265L50.1382 24.8178L50.3285 24.6682C50.3488 24.6523 50.3686 24.6358 50.3879 24.6189L50.4698 24.5393C50.4814 24.5276 50.4935 24.516 50.505 24.5043C50.5342 24.4756 50.5677 24.4433 50.6018 24.4056L50.7179 24.2661L50.73 24.2507C50.9032 24.0205 51.0253 23.8051 51.1034 23.5924L51.1298 23.5266L51.1678 23.4051C51.1716 23.3913 51.176 23.3775 51.1804 23.3637C51.1914 23.3271 51.2057 23.2815 51.2173 23.2242L51.2442 23.081C51.2574 23.0211 51.2613 22.968 51.264 22.9282C51.2646 22.9171 51.2651 22.9065 51.2657 22.9022C51.28 22.8009 51.2778 22.7097 51.2761 22.6296C51.2761 22.6036 51.275 22.5776 51.275 22.5516V22.5203L51.2712 22.4895C51.2673 22.463 51.2646 22.4365 51.2618 22.4105C51.2541 22.3367 51.2453 22.2534 51.2222 22.1622C51.1348 21.7336 50.9175 21.3278 50.5947 20.9888L50.5815 20.9755C50.4489 20.8482 50.2867 20.7029 50.0832 20.5904C50.0122 20.5448 49.9435 20.514 49.8874 20.4885C49.867 20.4795 49.8467 20.4705 49.8274 20.4604L49.7845 20.4413C49.757 20.4307 49.7284 20.4206 49.7004 20.4111C49.6861 20.4063 49.6718 20.4015 49.6553 20.3952L49.5964 20.374L49.3715 20.3151L49.1905 20.2854C49.1685 20.2816 49.1465 20.2785 49.124 20.2758L49.036 20.271C49.0217 20.2705 49.0079 20.2694 48.9936 20.2684C48.9656 20.2668 48.9375 20.2647 48.9095 20.2641L48.7494 20.2694C48.7313 20.2694 48.701 20.27 48.6647 20.2748L48.596 20.2843C48.5822 20.2864 48.5685 20.288 48.5547 20.2896C48.5289 20.2928 48.5036 20.296 48.4777 20.3002L48.2847 20.3437L48.0862 20.4079L47.9305 20.4753C47.8981 20.4896 47.8502 20.5103 47.798 20.5437C47.7881 20.5495 47.7782 20.5554 47.7683 20.5607C47.7166 20.5904 47.6522 20.627 47.5868 20.679C47.5802 20.6838 47.573 20.6885 47.5664 20.6933C47.5455 20.7076 47.5252 20.7225 47.5054 20.7373L47.4157 20.8164C47.3569 20.8641 47.3134 20.9135 47.281 20.9495C47.2727 20.9585 47.265 20.9676 47.2568 20.976C47.2133 21.0185 47.1842 21.0599 47.1666 21.0848L47.1039 21.1686L47.0236 21.3007C47.0076 21.3256 46.9823 21.3665 46.9609 21.4222C46.9565 21.4323 46.9515 21.4423 46.9471 21.4519C46.9284 21.4911 46.9037 21.5437 46.885 21.6089C46.7981 21.8641 46.7684 22.1346 46.7992 22.394C46.8536 22.8423 47.0918 23.2502 47.4542 23.5144C47.6033 23.6221 47.7485 23.6969 47.897 23.7441C47.9393 23.7595 47.9762 23.7674 48.0031 23.7733L48.0697 23.7908C48.0911 23.7956 48.1137 23.7987 48.1379 23.8014H48.1439C48.1599 23.804 48.1747 23.8072 48.189 23.8099L48.2302 23.8178H48.2721C48.2858 23.8178 48.2985 23.8184 48.3111 23.8194H48.3221C48.5168 23.829 48.7016 23.8009 48.8715 23.7367C48.9293 23.7192 48.9727 23.6969 49.0008 23.6815L49.0217 23.6725C49.2466 23.5759 49.3473 23.3218 49.2472 23.1049C49.1471 22.8879 48.8836 22.7908 48.6587 22.8874L48.6356 22.8975C48.6163 22.9054 48.5998 22.9134 48.5855 22.9208L48.5536 22.933C48.5008 22.9542 48.4381 22.9638 48.3689 22.9611C48.3529 22.9601 48.3369 22.9595 48.3199 22.959C48.3023 22.9558 48.2847 22.9532 48.2666 22.951C48.2638 22.951 48.2611 22.9505 48.2583 22.95C48.2363 22.9431 48.216 22.9388 48.1984 22.9351L48.1813 22.9298C48.1252 22.9128 48.0603 22.8784 47.9905 22.828C47.9113 22.7701 47.7226 22.602 47.6852 22.2954C47.6687 22.1574 47.6858 22.0105 47.7353 21.8704L47.7446 21.8407C47.7485 21.8307 47.754 21.8211 47.7584 21.811C47.7688 21.7887 47.7793 21.7665 47.7892 21.7431C47.7974 21.7304 47.8051 21.7171 47.8106 21.7071L47.842 21.6524L47.8783 21.6041C47.8876 21.5919 47.8964 21.5797 47.9052 21.567L47.9063 21.5654C47.9239 21.5468 47.9415 21.5277 47.9586 21.5081C47.9696 21.4954 47.985 21.4784 47.9877 21.4758L48.073 21.4004C48.0785 21.3962 48.0845 21.3925 48.0906 21.3882C48.106 21.3771 48.1219 21.366 48.1373 21.3548L48.1538 21.3421C48.1654 21.3325 48.1961 21.315 48.2231 21.2996C48.2396 21.2901 48.2567 21.2805 48.2732 21.2705L48.2842 21.2641C48.2886 21.262 48.293 21.2604 48.2974 21.2583L48.3991 21.2121L48.4788 21.1856L48.6372 21.1447C48.6477 21.1431 48.6581 21.1421 48.6686 21.141C48.6889 21.1384 48.7093 21.1357 48.728 21.1331L48.7676 21.1272C48.7797 21.1272 48.7912 21.1272 48.7978 21.1262L48.8979 21.1219C48.91 21.1225 48.9216 21.1235 48.9337 21.1241C48.9546 21.1256 48.9749 21.1267 48.9936 21.1278L49.0338 21.1299H49.0376C49.0486 21.1325 49.0596 21.1341 49.069 21.1357L49.168 21.1506L49.306 21.1851L49.3396 21.1973C49.3594 21.2047 49.3797 21.2116 49.3995 21.2185C49.4116 21.2227 49.4232 21.2264 49.4353 21.2312C49.4589 21.2429 49.4837 21.254 49.5079 21.2652C49.5403 21.28 49.5766 21.2965 49.5926 21.3071L49.6305 21.3299C49.7444 21.3914 49.8527 21.488 49.9446 21.576C50.0931 21.7336 50.2812 21.9914 50.3494 22.3362L50.3565 22.3654C50.3653 22.3967 50.3703 22.4444 50.3752 22.4953C50.378 22.5208 50.3807 22.5468 50.3835 22.5723C50.3835 22.5967 50.384 22.6211 50.3846 22.6455C50.3857 22.6996 50.3868 22.751 50.3807 22.7935C50.3774 22.8184 50.3758 22.8439 50.3741 22.8699C50.3736 22.8815 50.373 22.8932 50.3725 22.8985L50.3411 23.0624C50.3384 23.0746 50.3318 23.0969 50.3252 23.1181C50.3186 23.1388 50.3125 23.1595 50.3065 23.1802L50.2911 23.2322L50.2641 23.3001C50.2157 23.4332 50.1338 23.5765 50.0133 23.7377L49.9209 23.8497C49.905 23.8666 49.8885 23.8826 49.8714 23.899C49.8555 23.9149 49.839 23.9303 49.8274 23.9425L49.7779 23.9908C49.7719 23.9956 49.7658 24.0003 49.7598 24.0051L49.6201 24.117L49.4688 24.2152C49.4617 24.2199 49.4545 24.2247 49.4474 24.229L49.3896 24.2587C49.3693 24.2687 49.3484 24.2794 49.328 24.2905C49.3055 24.3022 49.2829 24.3144 49.2593 24.325L49.1135 24.3823C48.9018 24.4549 48.717 24.4947 48.5481 24.5032L48.4629 24.5101H48.3947C48.3721 24.5096 48.3496 24.5096 48.327 24.5096C48.2968 24.5096 48.2676 24.5096 48.2467 24.508L48.0675 24.4905L48.0532 24.4894C48.0438 24.4889 48.0163 24.4831 47.996 24.4788C47.969 24.4735 47.9426 24.4677 47.9102 24.4624C47.8508 24.4534 47.7831 24.4327 47.7056 24.4093C47.6803 24.4019 47.6544 24.3939 47.6286 24.3865C47.6027 24.3764 47.5769 24.3658 47.551 24.3557C47.4784 24.3276 47.4102 24.3011 47.3585 24.2719L47.3365 24.2603C46.9741 24.082 46.6468 23.7807 46.4136 23.412C46.2844 23.1913 46.2024 23.0057 46.1568 22.8285L46.1485 22.8009C46.1282 22.7394 46.115 22.6635 46.1007 22.5829C46.0957 22.5537 46.0902 22.524 46.0847 22.4948C46.0809 22.4587 46.0781 22.4221 46.0748 22.3855L46.0649 22.2572L46.0693 22.0391L46.0935 21.8116C46.0952 21.7988 46.0963 21.7861 46.0985 21.7734L46.1271 21.6429C46.1353 21.6052 46.1436 21.5681 46.1529 21.5304L46.2079 21.3622C46.2118 21.3511 46.2156 21.34 46.2195 21.3288C46.2228 21.3193 46.2255 21.3092 46.2294 21.2996L46.2838 21.175C46.2998 21.1384 46.3157 21.1023 46.3333 21.0662L46.4598 20.844L46.6083 20.6355C46.6369 20.6015 46.6661 20.5681 46.6952 20.5342L46.7321 20.4917C46.7623 20.4572 46.7915 20.4243 46.8146 20.4037L46.8415 20.3782C46.9224 20.3018 46.9988 20.2297 47.0736 20.1761L47.1237 20.1384C47.1545 20.1145 47.1858 20.0912 47.2172 20.0684L47.3822 19.966C47.4438 19.9257 47.5219 19.8886 47.6044 19.8493C47.6297 19.8371 47.655 19.8249 47.6803 19.8127L47.6885 19.8085C47.7089 19.7978 47.7419 19.7856 47.7771 19.7729L47.9833 19.6981L48.1962 19.6419C48.2319 19.6323 48.266 19.6239 48.288 19.6207L48.2968 19.6196C48.3249 19.6154 48.3529 19.6106 48.3809 19.6058C48.4706 19.591 48.5547 19.5766 48.6273 19.574L48.6455 19.5729C49.0822 19.539 49.5315 19.5994 49.9451 19.748C50.3296 19.8843 50.6959 20.1061 51.0039 20.3904C51.2811 20.6456 51.5093 20.9516 51.682 21.2996C51.8371 21.6163 51.9394 21.9537 51.9785 22.2752L51.9807 22.2916L51.9829 22.2911Z" fill="white"/>
  <path d="M59.0223 23.7664V21.5782C59.0223 20.1262 59.0432 19.0318 59.1664 17.7788L54.4436 17.938V18.3157C55.6601 18.6536 55.7839 20.1061 55.7839 21.976V23.7664C55.7839 25.8947 55.4127 26.8299 54.4436 27.0686V27.5063C55.3302 27.4267 56.4851 27.3869 57.496 27.3869C58.5069 27.3869 59.5376 27.4267 60.3835 27.5063V27.0686C59.4144 26.8501 59.0223 25.9148 59.0223 23.7664Z" fill="white"/>
  <path d="M57.3723 16.625C58.4651 16.625 59.3523 15.7699 59.3523 14.7153C59.3523 13.6607 58.4657 12.7859 57.3723 12.7859C56.2789 12.7859 55.3923 13.6411 55.3923 14.7153C55.3923 15.7895 56.2789 16.625 57.3723 16.625Z" fill="white"/>
  <path d="M72.3861 23.7664V20.6832C72.3861 18.853 71.8295 17.6992 69.7048 17.6992C68.117 17.6992 67.0236 18.4154 65.8895 20.1856V17.7788L61.3317 17.938V18.3157C62.5896 18.6536 62.693 20.1655 62.693 21.9956V23.7658C62.693 25.8941 62.3014 26.8294 61.3317 27.0681V27.5057C62.2392 27.4262 63.332 27.3864 64.322 27.3864C65.312 27.3864 66.4461 27.4262 67.2508 27.5057V27.0681C66.2817 26.8495 65.8895 25.9143 65.8895 23.7658V21.1999C66.3433 20.4243 66.962 20.0063 67.6633 20.0063C69.1483 20.0063 69.1895 21.2991 69.1895 22.3537V23.7658C69.1895 25.9339 68.777 26.8888 67.787 27.0681V27.5057C68.6945 27.4262 69.8286 27.3864 70.8186 27.3864C71.8086 27.3864 72.9636 27.4262 73.8089 27.5057V27.0681C72.7986 26.8888 72.3861 25.9345 72.3861 23.7658V23.7664Z" fill="white"/>
  <path d="M79.9133 21.1203C78.4283 20.5039 78.078 20.2052 78.078 19.549C78.078 18.9724 78.4696 18.6143 79.1505 18.6143C80.4292 18.6143 81.5017 19.6286 81.9758 21.2598H82.4708C82.4087 20.7225 82.3883 20.1856 82.3883 19.6885C82.3883 19.1915 82.4087 18.7337 82.4708 18.2366C81.8933 17.9979 80.8005 17.6998 79.3358 17.6998C76.6959 17.6998 75.1905 18.774 75.1905 20.7034C75.1905 21.9961 75.7471 22.5929 77.5005 23.3489C79.1917 24.0846 79.8105 24.4231 79.8105 25.2984C79.8105 26.1137 79.2533 26.6113 78.3464 26.6113C76.9439 26.6113 75.8302 25.378 75.4386 23.4088H74.9023C74.9232 23.6672 74.9436 24.2841 74.9436 24.7218C74.9436 25.4973 74.8814 26.293 74.7582 27.0294C75.2945 27.2681 76.5936 27.6458 78.2023 27.6458C81.1101 27.6458 82.7805 26.3928 82.7805 24.1844C82.7805 22.5134 81.8317 21.9166 79.9139 21.1208L79.9133 21.1203Z" fill="white"/>
  <path d="M91.6898 14.1185V14.6554C93.0098 14.8941 93.4427 15.8288 93.4427 18.5146V23.1097C92.4323 24.3828 91.4627 24.9 90.2665 24.9C88.3899 24.9 88.1836 23.5871 88.1836 21.7967V18.5146C88.1836 15.8293 88.617 14.8941 89.9365 14.6554V14.1185C88.9674 14.1981 87.9152 14.2379 86.389 14.2379C84.9452 14.2379 83.749 14.1981 82.7799 14.1185V14.6554C84.1202 14.8941 84.5327 15.8288 84.5327 18.5146V22.7914C84.5327 25.5562 85.0277 27.6447 88.6165 27.6447C90.7818 27.6447 92.1018 26.71 93.4421 24.2231V27.5052C94.3287 27.4257 95.0921 27.3859 96.1437 27.3859C97.0925 27.3859 98.0203 27.4257 98.8453 27.5052V26.9684C97.505 26.7498 97.0925 25.8146 97.0925 23.1293V18.5141C97.0925 15.8288 97.505 14.8935 98.8453 14.6548V14.118C97.7112 14.1976 96.6387 14.2373 95.3803 14.2373C94.1219 14.2373 92.9053 14.1976 91.6887 14.118L91.6898 14.1185Z" fill="#E82790"/>
  <path d="M106.641 21.6179C110.003 21.6179 112.21 19.8673 112.21 17.182C112.21 14.4967 110.147 14.1185 107.899 14.1185C105.981 14.1185 104.744 14.2379 103.713 14.2379C102.31 14.2379 100.949 14.1981 100 14.1185V14.6553C101.341 14.8941 101.753 15.8288 101.753 18.5146V23.1298C101.753 25.8151 101.341 26.7503 100 26.9689V27.5057C100.969 27.4262 102.434 27.3864 103.733 27.3864C105.197 27.3864 106.579 27.4262 107.651 27.5057V26.9689C105.651 26.8495 105.424 25.7355 105.424 23.1298V21.5585C105.568 21.5787 105.939 21.6185 106.64 21.6185L106.641 21.6179ZM105.425 15.372C105.611 15.233 105.899 15.0935 106.415 15.0935C107.611 15.0935 108.312 16.0282 108.312 17.6197C108.312 19.3703 107.405 20.4641 105.941 20.4641C105.776 20.4641 105.673 20.4641 105.425 20.4243V15.372H105.425Z" fill="#E82790"/>
  <path d="M114.56 23.8465C113.414 23.8216 112.453 24.7075 112.427 25.813C112.401 26.9185 113.32 27.8453 114.466 27.8702C115.634 27.8957 116.596 27.0098 116.622 25.9042C116.648 24.7987 115.729 23.872 114.56 23.8465Z" fill="#E82790"/>
  <path d="M115.794 22.0598C116 19.1225 116.604 15.8839 117.466 13.2931L116.815 12.7037C115.658 13.1429 114.185 13.3986 112.943 13.5488C113.268 16.2988 113.293 19.1968 113.216 22.4906L114.03 22.9728C114.611 22.6534 115.192 22.3346 115.795 22.0598H115.794Z" fill="#E82790"/>
</svg>
