<svg width="120" height="44" viewBox="0 0 120 44" fill="none" xmlns="http://www.w3.org/2000/svg">
<path d="M44.2956 23.2486C43.4478 23.2486 42.6758 23.0448 41.9808 22.6358C41.2858 22.2268 40.7312 21.6814 40.3184 20.9998C39.9055 20.3181 39.6977 19.5649 39.6977 18.7402C39.6977 17.9155 39.9041 17.1515 40.3184 16.4698C40.7312 15.7882 41.2858 15.2429 41.9808 14.8339C42.6758 14.4249 43.4464 14.2211 44.2956 14.2211H53.8752L52.3463 17.2311H44.2956C43.8758 17.2311 43.5153 17.3783 43.2152 17.6725C42.9152 17.9668 42.7666 18.3231 42.7666 18.7416C42.7666 19.16 42.9152 19.5069 43.2152 19.8012C43.5153 20.0954 43.8744 20.2426 44.2956 20.2426H49.6627C50.5036 20.2426 51.2742 20.445 51.972 20.8513C52.6697 21.2563 53.2257 21.8002 53.6399 22.4819C54.0528 23.1635 54.2606 23.9208 54.2606 24.7523C54.2606 25.5837 54.0542 26.341 53.6399 27.0226C53.2271 27.7043 52.6711 28.2483 51.972 28.6532C51.2742 29.0581 50.5036 29.262 49.6627 29.262H40.0817L41.6106 26.2519H49.6613C50.0811 26.2519 50.4416 26.1048 50.7417 25.8105C51.0417 25.5163 51.1903 25.1639 51.1903 24.7509C51.1903 24.3379 51.0417 23.9856 50.7417 23.6913C50.4416 23.3971 50.0825 23.2499 49.6613 23.2499H44.2942L44.2956 23.2486ZM69.4194 19.1047C69.4194 18.2097 69.1964 17.3918 68.7505 16.6507C68.3046 15.9097 67.7046 15.3198 66.9491 14.8784C66.1936 14.4384 65.3596 14.2184 64.4472 14.2184H57.9309L56.3978 17.2284H64.4485C64.9756 17.2284 65.427 17.412 65.8013 17.7792C66.1757 18.1463 66.3628 18.589 66.3628 19.106C66.3628 19.623 66.1757 20.0671 65.8013 20.4383C65.427 20.8081 64.9756 20.993 64.4485 20.993H56.3978V29.2566H59.4667V23.9923H64.4485C65.361 23.9923 66.1949 23.7723 66.9505 23.3323C67.706 22.8922 68.3074 22.3037 68.7519 21.5654C69.1978 20.8284 69.4207 20.009 69.4207 19.1074L69.4194 19.1047ZM71.558 14.2211V29.2579H74.6269V14.2211H71.558ZM79.833 18.5404L91.7109 29.7924V14.2305H88.642V22.714L79.683 14.2305H76.7641V29.2579H79.833V18.5404ZM99.6007 17.2298V22.494C99.6007 23.1851 99.4286 23.8155 99.0818 24.3811C98.735 24.9466 98.2726 25.4002 97.6919 25.739C97.1111 26.0778 96.4671 26.2478 95.7625 26.2478H93.8482V29.2579H95.7625C97.0313 29.2579 98.1873 28.9542 99.2318 28.3454C100.276 27.7367 101.108 26.9214 101.728 25.8969C102.349 24.8724 102.659 23.7386 102.659 22.494V14.2211H97.3024V17.2311H99.6007V17.2298ZM112.398 14.2386C108.199 14.2386 104.796 17.5767 104.796 21.6949C104.796 25.8132 108.199 29.1513 112.398 29.1513C116.597 29.1513 120 25.8132 120 21.6949C120 17.5767 116.597 14.2386 112.398 14.2386ZM112.398 26.2276C109.846 26.2276 107.777 24.1988 107.777 21.6949C107.777 19.191 109.845 17.1623 112.398 17.1623C114.951 17.1623 117.019 19.191 117.019 21.6949C117.019 24.1988 114.951 26.2276 112.398 26.2276Z" fill="url(#paint0_linear_14738_28540)"/>
<path d="M17.1611 9C9.84116 9 3.90702 14.8204 3.90702 22C3.90702 29.1796 9.84116 35 17.1611 35C24.4811 35 30.4153 29.1796 30.4153 22C30.4153 14.8204 24.4811 9 17.1611 9ZM17.0566 34.1523C10.2926 34.101 4.74512 28.9961 4.62539 22.7113C4.61988 22.4562 4.62539 22.2038 4.63777 21.9528C4.6942 20.8432 5.5268 19.9051 6.68555 19.6284C9.99943 18.8387 13.4729 18.4176 17.0524 18.4176C20.6319 18.4176 24.2953 18.8603 27.6918 19.6932C28.8368 19.9739 29.6405 20.9256 29.6886 22.0243C29.6955 22.1836 29.6996 22.3429 29.6996 22.5035C29.6996 28.9691 24.0297 34.205 17.0579 34.1523H17.0566Z" fill="url(#paint1_linear_14738_28540)"/>
<path d="M27.6574 22.714C27.6175 21.7935 26.9431 20.9957 25.9839 20.7609C23.1379 20.063 20.1502 19.6918 17.0689 19.6918C13.9876 19.6918 11.1596 20.0441 8.3824 20.7069C7.41218 20.9377 6.71445 21.7246 6.66766 22.6547C6.65665 22.8652 6.6539 23.0771 6.65803 23.2904C6.68968 24.9534 7.17548 26.5178 8.00394 27.8811C9.24527 27.0496 10.7439 26.5637 12.3596 26.5637C16.0657 26.5637 19.1621 29.1202 19.9177 32.5339C24.3807 31.4082 27.6643 27.6193 27.6643 23.1163C27.6643 22.9813 27.6615 22.8477 27.656 22.7154L27.6574 22.714ZM24.0572 23.8047C23.3623 23.8047 22.7994 23.2526 22.7994 22.571C22.7994 21.8893 23.3623 21.3372 24.0572 21.3372C24.7522 21.3372 25.3151 21.8893 25.3151 22.571C25.3151 23.2526 24.7522 23.8047 24.0572 23.8047ZM26.2784 24.3338C26.1959 24.6713 25.8477 24.8791 25.5036 24.7982C25.1596 24.7172 24.9476 24.3757 25.0302 24.0382C25.1128 23.7008 25.461 23.4929 25.805 23.5739C26.1491 23.6549 26.361 23.9964 26.2784 24.3338Z" fill="url(#paint2_linear_14738_28540)"/>
<path d="M2.95607 22C2.95607 20.2061 3.30011 18.4649 3.95656 16.8478H3.48865C1.56198 16.8478 0 18.3798 0 20.2695V23.0852C0 24.975 1.56198 26.507 3.48865 26.507H3.71297C3.21617 25.0749 2.95607 23.5577 2.95607 22.0014V22Z" fill="url(#paint3_linear_14738_28540)"/>
<path d="M30.8364 16.8478H30.3685C31.0235 18.4662 31.369 20.2075 31.369 22C31.369 23.5563 31.1089 25.0735 30.6121 26.5057H30.8364C32.7631 26.5057 34.325 24.9736 34.325 23.0839V20.2682C34.325 18.3785 32.7631 16.8464 30.8364 16.8464V16.8478Z" fill="url(#paint4_linear_14738_28540)"/>
<defs>
<linearGradient id="paint0_linear_14738_28540" x1="1.57434e-06" y1="8.95063" x2="10.8006" y2="58.7049" gradientUnits="userSpaceOnUse">
<stop stop-color="#00F0F1"/>
<stop offset="1" stop-color="#8254FF"/>
</linearGradient>
<linearGradient id="paint1_linear_14738_28540" x1="1.57434e-06" y1="8.95063" x2="10.8006" y2="58.7049" gradientUnits="userSpaceOnUse">
<stop stop-color="#00F0F1"/>
<stop offset="1" stop-color="#8254FF"/>
</linearGradient>
<linearGradient id="paint2_linear_14738_28540" x1="1.57434e-06" y1="8.95063" x2="10.8006" y2="58.7049" gradientUnits="userSpaceOnUse">
<stop stop-color="#00F0F1"/>
<stop offset="1" stop-color="#8254FF"/>
</linearGradient>
<linearGradient id="paint3_linear_14738_28540" x1="1.57434e-06" y1="8.95063" x2="10.8006" y2="58.7049" gradientUnits="userSpaceOnUse">
<stop stop-color="#00F0F1"/>
<stop offset="1" stop-color="#8254FF"/>
</linearGradient>
<linearGradient id="paint4_linear_14738_28540" x1="1.57434e-06" y1="8.95063" x2="10.8006" y2="58.7049" gradientUnits="userSpaceOnUse">
<stop stop-color="#00F0F1"/>
<stop offset="1" stop-color="#8254FF"/>
</linearGradient>
</defs>
</svg>
