<svg width="120" height="44" viewBox="0 0 120 44" fill="none" xmlns="http://www.w3.org/2000/svg">
<path fill-rule="evenodd" clip-rule="evenodd" d="M10.9641 6.39995C8.73663 5.54021 6.45802 4.80372 4.14334 4.18747L2 3.61631L2.16233 5.7326C2.26453 7.09435 2.45392 8.48316 2.66434 9.83289C3.14231 12.9111 3.81267 15.9833 4.66639 18.9864C3.85776 20.3361 3.3858 21.8362 3.37378 23.3993C3.37077 24.0817 3.46396 24.9655 3.71347 25.6148L4.6694 28.1038L5.91091 25.732C5.98005 25.5998 6.14238 25.4164 6.34679 25.212C6.37084 26.8774 6.69249 28.5518 7.43499 30.0368L17.2048 41.1172C18.0134 41.8416 18.8611 42.524 19.7509 43.1553L20.9383 44L21.8852 42.9148C22.1979 42.5571 22.5075 42.1933 22.8141 41.8296C23.0245 41.8567 29.707 32.8685 29.707 32.8685C29.707 32.8685 32.0909 29.2582 32.9686 27.3794L38.6321 28.4045L36.7383 25.5126C35.9086 24.232 34.7993 22.9123 33.7472 21.749C33.8464 20.4864 33.6781 19.1968 33.0859 18.0515C32.9566 17.802 32.7853 17.5254 32.5899 17.2669C34.0869 13.864 33.0889 10.5423 30.5968 7.71661C29.3493 6.30075 27.4886 4.77967 25.7871 3.8538L22.0536 1.82469L23.25 3.86883C22.3812 3.55319 21.4794 3.31871 20.5565 3.16841C19.6818 3.02412 18.5304 2.91289 17.6376 3.00007C16.5164 3.10829 15.3891 2.75056 14.4181 2.23652C13.9492 1.98702 13.375 1.62629 12.9812 1.27157L11.5653 0L11.0122 1.7796C10.5583 3.24356 10.5944 4.70752 11.0814 6.09032L10.8289 5.97909L10.9641 6.39995Z" fill="#FC311D"/>
<path fill-rule="evenodd" clip-rule="evenodd" d="M35.4096 26.2972C35.4096 26.2972 25.9375 11.5433 3.72254 5.62434C3.72254 5.62434 5.5292 31.188 20.6859 41.9558C20.6859 41.9558 29.6831 31.681 32.0098 25.6809L35.4096 26.2972Z" fill="#F4F4F4"/>
<path fill-rule="evenodd" clip-rule="evenodd" d="M20.244 37.4377C21.9394 35.3785 23.5747 33.2322 25.0718 31.1009C26.4305 29.168 28.0448 26.7631 28.8925 24.5807L29.1841 23.8262C27.9907 22.5907 26.7371 21.4273 25.6429 20.4894C20.3823 15.9683 14.2469 12.5173 7.6425 10.1695C7.9371 11.865 8.30083 13.5544 8.68261 15.1236C10.1947 21.3702 12.6506 27.9235 16.5134 33.2081C17.6197 34.7262 18.8582 36.1541 20.244 37.4377Z" fill="#371B27"/>
<path fill-rule="evenodd" clip-rule="evenodd" d="M11.6195 24.3042L7.70555 23.3032C8.1264 24.4485 8.58934 25.6058 9.10037 26.7602L13.1736 27.7101C12.6145 26.5979 12.0974 25.4586 11.6195 24.3042Z" fill="white"/>
<path fill-rule="evenodd" clip-rule="evenodd" d="M27.0888 21.7821L32.9356 23.1499C32.0549 22.1459 30.9306 20.9584 29.5508 19.6688L22.228 17.7961C23.4004 18.6468 24.5397 19.5456 25.6399 20.4925C26.1028 20.8863 26.5898 21.3192 27.0888 21.7821Z" fill="white"/>
<path fill-rule="evenodd" clip-rule="evenodd" d="M34.6221 25.8012C32.4848 22.8762 23.0457 11.2998 4.12841 6.10231C4.4681 9.67353 7.07137 31.5758 20.6258 41.4779C22.0236 39.8546 29.5719 30.9596 31.6611 25.5637L31.7693 25.2871L34.6221 25.8012ZM3.81879 5.29067C26.172 11.2457 35.6923 26.0717 35.7193 26.1138L36.1612 26.7902L32.2383 26.0807C29.7342 32.168 20.9895 42.1512 20.9625 42.1813L20.74 42.4338L20.4635 42.2384C5.17152 31.3744 3.35886 5.72655 3.35285 5.6544L3.31377 5.16141L3.81879 5.29067Z" fill="#371B27"/>
<path fill-rule="evenodd" clip-rule="evenodd" d="M16.2278 11.9672C16.2278 11.9672 13.8379 11.4111 12.7618 8.08334C12.7618 8.08334 13.7177 8.49518 14.2347 8.66051C14.2347 8.66051 10.9461 6.00013 12.1605 2.10425C12.1605 2.10425 14.7428 4.42494 17.7579 4.13936C17.7579 4.13936 21.9333 3.76962 25.8953 6.52319C25.8953 6.52319 25.4534 5.29069 25.1949 4.8488C25.1949 4.8488 35.106 10.2267 31.168 17.4653C31.168 17.4653 33.4256 19.1638 32.2231 23.4444C32.2231 23.4444 31.147 22.0766 28.2822 21.4604C28.2822 21.4604 31.2522 26.3302 24.9244 31.14C24.9244 31.14 24.0857 32.9887 21.266 32.6821C21.266 32.6821 19.5224 31.3474 19.1557 30.4636C19.1557 30.4636 18.0134 31.6751 18.296 33.2803C18.296 33.2803 16.5524 32.15 16.4863 31.1009C16.4863 31.1009 15.6686 33.6891 15.9693 35.1681C15.9693 35.1681 12.2237 32.9707 11.1475 30.5237C11.1475 30.5237 10.8469 31.3053 10.9551 32.2703C10.9551 32.2703 6.52114 29.9887 7.76866 22.5095C7.76866 22.5095 5.3157 24.3192 4.84074 25.221C4.84074 25.221 2.51403 19.1788 11.6856 14.4532C11.6856 14.4532 10.0503 13.837 8.9741 14.0624C8.9741 14.0654 12.0523 11.4952 16.2278 11.9672Z" fill="#371B27"/>
<path fill-rule="evenodd" clip-rule="evenodd" d="M30.0407 17.2309C30.0407 17.2309 32.9416 13.5575 27.4885 7.64752C27.4885 7.64752 27.7591 9.45718 27.5276 10.3049C27.5276 10.3049 27.1008 5.39296 16.4262 5.32082C16.4262 5.32082 14.6466 5.20959 12.9451 3.95605C12.9451 3.95605 13.4471 8.86799 18.323 10.2688C18.323 10.2688 16.369 10.1576 15.0554 9.56841C15.0554 9.56841 15.5784 10.9722 20.1808 12.7068C20.1808 12.7068 22.27 12.2258 24.3592 14.9583C26.4424 17.6938 28.5316 17.7299 30.0407 17.2309Z" fill="#E8131F"/>
<path fill-rule="evenodd" clip-rule="evenodd" d="M26.6138 17.5586C26.6138 17.5586 24.5907 16.6748 23.9654 15.6257C23.3402 14.5765 22.2429 13.6537 20.1116 13.1998C20.1116 13.1998 22.0265 13.9813 22.5886 15.2739C22.5886 15.2739 21.792 14.6367 20.3702 14.7599C20.3702 14.7599 22.6518 15.6016 23.0396 16.6507C23.4273 17.6999 26.6138 17.5586 26.6138 17.5586Z" fill="#E8131F"/>
<path fill-rule="evenodd" clip-rule="evenodd" d="M27.2602 17.8651C27.2602 17.8651 24.6118 18.0304 23.6228 17.805C23.6228 17.805 22.9555 17.9703 21.729 18.1747C20.5025 18.3792 18.78 17.9884 19.1888 15.8931L18.9093 15.6617C18.9093 15.6617 16.9493 15.4001 15.4433 18.0725C15.4433 18.0725 16.8201 17.0865 18.1998 18.6467C18.1998 18.6467 18.296 20.0145 20.2891 19.7139C20.2891 19.7139 18.4704 20.9674 18.3411 23.1648C18.3411 23.1648 21.3773 19.3621 23.9174 18.8902C26.4515 18.4212 27.2602 17.8651 27.2602 17.8651Z" fill="#E8131F"/>
<path fill-rule="evenodd" clip-rule="evenodd" d="M30.0468 17.8861C30.0468 17.8861 31.7032 19.0675 31.598 21.4724C31.598 21.4724 30.4556 19.5004 29.2502 19.1697C28.0448 18.8421 25.8924 18.9443 24.5156 19.3741C24.5156 19.3741 27.1429 18.3461 28.0027 18.2649C28.8624 18.1837 29.5959 17.6306 30.0468 17.8861Z" fill="#FFAD00"/>
<path fill-rule="evenodd" clip-rule="evenodd" d="M31.2972 21.6979C31.2972 21.6979 29.9625 18.5114 24.9032 19.6237L26.3882 20.0746L24.8822 20.6097C24.8822 20.6097 27.8943 20.0535 31.2972 21.6979Z" fill="#FFAD00"/>
<path fill-rule="evenodd" clip-rule="evenodd" d="M27.0346 21.1839C27.0346 21.1839 28.8653 24.0006 27.4855 26.6279C26.1087 29.2582 24.7289 29.9977 24.7289 29.9977C24.7289 29.9977 24.3832 26.5257 24.9664 25.5186C25.5466 24.5116 25.1167 23.73 25.1167 23.73C25.1167 23.73 25.0085 24.8393 24.1908 26.0717C23.3732 27.3042 24.2329 30.1209 24.2329 30.1209C24.2329 30.1209 23.8662 31.4767 22.3812 31.5398C20.8961 31.6029 19.0444 29.0117 19.345 26.4655C19.6456 23.9164 19.7328 22.6839 21.1096 21.4935C21.1096 21.4935 20.6346 22.9514 20.6136 23.5677C20.6136 23.5677 21.5815 21.6769 23.4754 20.9374C23.4754 20.9374 22.8291 23.3633 23.8211 25.0467C23.8211 25.0467 23.8872 21.9023 24.4764 21.1418C24.4764 21.1418 24.9514 22.5997 25.3812 23.0927C25.3812 23.0927 25.1347 22.1729 25.748 21.3462C25.754 21.3492 26.1718 20.8231 27.0346 21.1839Z" fill="#E8131F"/>
<path fill-rule="evenodd" clip-rule="evenodd" d="M20.3821 14.363C20.3821 14.363 17.5835 11.8049 12.891 13.3259C12.891 13.3259 14.3129 13.4492 15.4732 14.1466C15.4732 14.1466 8.19849 15.0514 5.39983 22.9424C5.39983 22.9424 7.76863 20.4774 10.0051 20.1077C10.0051 20.1077 6.25957 23.3542 10.0472 30.2592C10.0472 30.2592 10.0051 27.6289 11.2527 26.685C11.2527 26.685 10.7777 29.5618 14.6976 33.0128C14.6976 33.0128 15.5153 28.699 16.9793 27.6289C16.9793 27.6289 16.5283 29.3754 17.4963 30.5267C17.4963 30.5267 17.818 28.0197 18.4853 27.1148C18.4853 27.1148 18.9813 24.2801 16.3119 22.3051C16.3119 22.3051 16.6576 23.0235 16.4833 24.4003C15.861 23.27 12.7617 20.8231 14.4632 18.0304C14.4632 18.0304 15.9361 14.6997 20.3821 14.363Z" fill="white"/>
<path fill-rule="evenodd" clip-rule="evenodd" d="M20.1777 12.7097C20.1777 12.7097 22.267 12.2288 24.3562 14.9613C26.4454 17.6938 28.5346 17.7299 30.0437 17.2309C30.0437 17.2309 27.2089 17.1647 26.5416 15.9112C25.8742 14.6577 24.0435 12.4783 21.0525 12.0484C21.0525 12.0484 18.9633 11.877 17.7157 10.6716C17.7157 10.6716 19.6517 10.855 21.0946 10.6085C21.0946 10.6085 17.34 9.71266 15.4792 8.73869C16.2037 9.37598 17.1326 9.92609 18.323 10.2688C18.323 10.2688 16.369 10.1576 15.0554 9.56837C15.0524 9.57138 15.5724 10.9722 20.1777 12.7097Z" fill="#940F18"/>
<path fill-rule="evenodd" clip-rule="evenodd" d="M23.0395 16.6536C23.4272 17.7028 26.6137 17.5585 26.6137 17.5585C26.6137 17.5585 24.5034 17.3721 24.0405 16.9001C23.6587 16.5124 22.5946 15.6165 21.5304 15.2979C22.1557 15.6406 22.8441 16.1216 23.0395 16.6536Z" fill="#940F18"/>
<path fill-rule="evenodd" clip-rule="evenodd" d="M23.6226 17.805C23.6226 17.805 22.9553 17.9703 21.7288 18.1747C20.5023 18.3791 18.7798 17.9883 19.1887 15.8931L19.0534 15.7789C18.8309 16.3951 18.5965 17.4623 19.2969 18.1507C20.331 19.1667 23.7098 18.2649 23.7098 18.2649C24.9002 18.4964 27.263 17.8651 27.263 17.8651C27.263 17.8651 24.6116 18.0304 23.6226 17.805Z" fill="#940F18"/>
<path fill-rule="evenodd" clip-rule="evenodd" d="M20.6708 25.1699C21.2961 23.6909 22.76 21.7881 22.76 21.7881C22.736 25.1218 24.0106 25.7351 24.0106 25.7351C23.8392 25.212 24.4495 22.0135 24.4495 22.0135C24.708 23.0807 25.7421 23.9344 25.7421 23.9344C25.3423 22.747 25.5527 21.8392 25.7511 21.3492C25.1409 22.1759 25.3904 23.0897 25.3904 23.0897C24.9605 22.5967 24.4855 21.1388 24.4855 21.1388C23.8933 21.8993 23.8302 25.0437 23.8302 25.0437C22.8352 23.3633 23.4815 20.9374 23.4815 20.9374C21.5877 21.6769 20.6197 23.5677 20.6197 23.5677C20.6408 22.9514 21.1157 21.4935 21.1157 21.4935C19.7389 22.6839 19.6518 23.9194 19.3511 26.4655C19.0505 29.0147 20.8993 31.6029 22.3873 31.5398C22.5947 31.5308 22.7811 31.4977 22.9464 31.4466C20.3822 30.5688 19.6878 27.8544 20.3431 24.3072C20.6919 24.4094 20.6708 25.1699 20.6708 25.1699Z" fill="#940F18"/>
<path fill-rule="evenodd" clip-rule="evenodd" d="M9.95398 27.2261C9.95398 27.2261 8.69744 25.5036 8.41486 23.5557C8.20744 25.188 8.49002 27.4095 10.0502 30.2562C10.0502 30.2562 10.0081 27.6259 11.2556 26.682C11.2556 26.682 10.7806 29.5588 14.7006 33.0098C14.7006 33.0098 15.5182 28.6961 16.9822 27.6259C16.9822 27.6259 16.5313 29.3724 17.4992 30.5238C17.4992 30.5238 17.8209 28.0167 18.4882 27.1119C18.4882 27.1119 18.9842 24.2771 16.3148 22.3021C16.3148 22.3021 16.6605 23.0206 16.4862 24.3974C15.8609 23.2701 12.7617 20.8232 14.4631 18.0305C14.4631 18.0305 15.9391 14.7028 20.3821 14.3631C20.3821 14.3631 16.4982 13.9933 13.5703 17.2609L14.3879 17.1587C14.3879 17.1587 12.4941 19.1939 13.7416 22.0917C13.7416 22.0917 14.0633 22.9034 14.0633 23.2942L14.3849 22.6689C14.3849 22.6689 16.5583 24.725 16.408 26.1409C16.408 26.1409 17.0964 25.9545 17.376 25.6269L16.901 26.676C16.901 26.676 14.5984 27.8694 14.3819 31.3625C14.3819 31.3625 10.6574 29.2041 11.6704 25.3413C11.6765 25.3353 10.45 25.9515 9.95398 27.2261Z" fill="#A599A3"/>
<path fill-rule="evenodd" clip-rule="evenodd" d="M17.6166 5.83486C20.3731 6.1024 24.6718 7.87298 26.0667 9.20467C27.4645 10.5394 27.6178 12.0604 27.6178 12.0604C27.9845 11.1165 28.4024 9.88104 28.4024 9.88104C30.8012 12.0725 30.0407 17.2309 30.0407 17.2309C30.0407 17.2309 32.9416 13.5575 27.4885 7.64752C27.4885 7.64752 27.7591 9.45718 27.5276 10.3049C27.5276 10.3049 27.1008 5.39296 16.4262 5.32082C16.4262 5.32082 14.6466 5.20959 12.9451 3.95605C12.9451 3.95605 12.9481 3.99513 12.9602 4.06728C13.9672 4.81579 15.3921 5.61842 17.6166 5.83486Z" fill="#FF4545"/>
<path fill-rule="evenodd" clip-rule="evenodd" d="M27.8132 23.0627C27.8132 23.0627 27.6268 26.6309 25.3662 28.6029C25.3662 28.6029 24.7981 27.683 24.75 26.189C24.4915 27.5748 24.732 29.9977 24.732 29.9977C24.732 29.9977 26.1088 29.2582 27.4885 26.6279C28.1439 25.3744 28.0687 24.0757 27.8132 23.0627Z" fill="#FF4545"/>
<path fill-rule="evenodd" clip-rule="evenodd" d="M29.9625 18.6468C31.4144 19.4494 31.5978 21.4725 31.5978 21.4725C31.706 19.0676 30.0467 17.8862 30.0467 17.8862C29.6949 17.6878 29.1779 17.9764 28.5586 18.1538C28.9284 18.2019 29.4033 18.3371 29.9625 18.6468Z" fill="#FFD400"/>
<path fill-rule="evenodd" clip-rule="evenodd" d="M22.6007 17.1376C22.6007 17.1376 22.0626 15.9652 21.0405 15.8029C20.0185 15.6376 19.8531 14.6967 19.0054 14.4171C18.1577 14.1375 17.9202 14.7027 17.3491 14.5494C16.7779 14.3961 16.315 13.7678 16.315 13.7678C16.315 13.7678 16.9372 14.6456 17.2348 14.8289C17.5324 15.0123 17.812 14.877 18.0795 14.7658C18.3501 14.6516 19.1978 14.7237 19.4473 15.3219C19.6938 15.9171 19.802 15.9592 19.9102 15.9803C19.9102 15.9803 20.1056 17.1106 20.9564 17.4292C21.8041 17.7418 22.6007 17.1376 22.6007 17.1376Z" fill="white"/>
<path d="M39.3745 25.5516V14.0263H44.575C45.7835 14.0263 47.046 14.1646 48.0982 15.2197C48.6843 15.8059 49.1864 16.6897 49.1864 18.0545C49.1864 19.0735 48.8767 19.7138 48.5461 20.1106C48.2004 20.5435 47.6292 20.8892 46.9559 21.0275V21.1297C47.1813 21.2499 47.4038 21.4243 47.5601 21.6648L50.1513 25.5516H45.3356L43.6762 22.1818C43.6251 22.0616 43.574 22.0105 43.5199 21.8181L43.4508 21.8511V25.5486H39.3745V25.5516ZM43.4538 19.1577H43.9377C44.1782 19.1577 44.56 19.1246 44.8185 18.8992C44.9568 18.7789 45.1131 18.5535 45.1131 18.1897C45.1131 17.9312 45.044 17.6727 44.8877 17.4983C44.7494 17.342 44.5239 17.1887 44.1782 17.1887H43.4538V19.1577Z" fill="#E52314"/>
<path d="M61.2677 23.9614C60.2817 24.9624 58.6764 25.8101 56.482 25.8101C54.2876 25.8101 52.6823 24.9624 51.6963 23.9614C50.7975 23.0445 50.0881 21.6287 50.0881 19.7799C50.0881 17.9312 50.7975 16.5303 51.6963 15.6165C52.6823 14.6155 54.2876 13.7678 56.482 13.7678C58.6764 13.7678 60.2817 14.6155 61.2677 15.6165C62.1665 16.5334 62.8759 17.9492 62.8759 19.7799C62.8729 21.6287 62.1665 23.0445 61.2677 23.9614ZM54.979 18.0695C54.5641 18.5023 54.3236 19.1757 54.3236 19.798C54.3236 20.4533 54.5641 21.0936 54.979 21.5084C55.3247 21.8541 55.8417 22.0946 56.482 22.0946C57.1223 22.0946 57.6394 21.8541 57.9851 21.5084C58.3638 21.1297 58.6404 20.5224 58.6404 19.798C58.6404 19.0735 58.3999 18.4663 57.9851 18.0695C57.6754 17.7598 57.1734 17.4833 56.482 17.4833C55.7395 17.4833 55.2555 17.7749 54.979 18.0695Z" fill="#E52314"/>
<path d="M74.9695 23.9614C73.9835 24.9624 72.3783 25.8101 70.1838 25.8101C67.9894 25.8101 66.3841 24.9624 65.3982 23.9614C64.4993 23.0445 63.7899 21.6287 63.7899 19.7799C63.7899 17.9312 64.4993 16.5303 65.3982 15.6165C66.3841 14.6155 67.9894 13.7678 70.1838 13.7678C72.3783 13.7678 73.9835 14.6155 74.9695 15.6165C75.8683 16.5334 76.5778 17.9492 76.5778 19.7799C76.5778 21.6106 75.8683 23.0445 74.9695 23.9614ZM68.6808 18.0695C68.266 18.5023 68.0255 19.1757 68.0255 19.798C68.0255 20.4533 68.266 21.0936 68.6808 21.5084C69.0265 21.8541 69.5435 22.0946 70.1838 22.0946C70.8241 22.0946 71.3412 21.8541 71.6869 21.5084C72.0656 21.1297 72.3422 20.5224 72.3422 19.798C72.3422 19.0735 72.1017 18.4663 71.6869 18.0695C71.3773 17.7598 70.8752 17.4833 70.1838 17.4833C69.4413 17.4833 68.9574 17.7749 68.6808 18.0695Z" fill="#E52314"/>
<path d="M84.9707 17.7058C84.4687 17.3601 83.5548 16.843 82.62 16.843C82.3945 16.843 82.0488 16.8761 81.8263 17.0504C81.67 17.1707 81.6189 17.2909 81.6189 17.4653C81.6189 17.7058 81.652 17.9312 82.2923 18.0695L83.624 18.3641C84.643 18.5896 85.2473 19.0044 85.593 19.3501C86.3174 20.0595 86.4738 20.9403 86.4738 21.6317C86.4738 22.6177 86.2152 23.5316 85.4367 24.3432C84.7813 25.0166 83.5368 25.8132 81.3754 25.8132C79.6139 25.8132 78.4385 25.3112 77.4525 24.9144L77.3443 24.758L78.3363 21.5085L78.7842 21.8542C79.2171 22.1818 80.0979 22.7019 81.1169 22.7019C81.6881 22.7019 81.9286 22.5636 82.0157 22.4945C82.2051 22.3381 82.2412 22.1488 82.2412 21.9774C82.2412 21.8752 82.2232 21.7009 82.1029 21.5806C81.9646 21.4423 81.7392 21.3912 81.3093 21.3041L80.2902 21.1147C79.6349 20.9944 78.9255 20.787 78.2852 20.1287C77.699 19.5245 77.4555 18.8331 77.4555 18.0034C77.4555 16.9332 77.8192 16.0164 78.5798 15.2558C79.4606 14.357 80.7562 13.7708 82.5869 13.7708C83.5037 13.7708 84.6941 13.9271 86.095 14.7718L84.9707 17.7058Z" fill="#E52314"/>
<path d="M89.4919 25.5516V17.6727L87.1411 17.7749V14.0263H95.952V17.7749L93.6012 17.6727V25.5516H89.4919Z" fill="#E52314"/>
<path d="M97.2326 25.5516V14.0263H105.006V17.1887H101.414V18.2589H104.679V21.283H101.414V22.3892H105.112V25.5516H97.2326Z" fill="#E52314"/>
<path d="M106.428 25.5516V14.0263H111.629C112.837 14.0263 114.1 14.1646 115.152 15.2197C115.738 15.8059 116.24 16.6897 116.24 18.0545C116.24 19.0735 115.93 19.7138 115.6 20.1106C115.254 20.5435 114.683 20.8892 114.009 21.0275V21.1297C114.235 21.2499 114.457 21.4243 114.614 21.6648L117.205 25.5516H112.383L110.724 22.1818C110.673 22.0616 110.622 22.0105 110.567 21.8181L110.498 21.8511V25.5486H106.428V25.5516ZM110.504 19.1577H110.988C111.229 19.1577 111.611 19.1246 111.869 18.8992C112.007 18.7789 112.164 18.5535 112.164 18.1897C112.164 17.9312 112.095 17.6727 111.938 17.4983C111.8 17.342 111.574 17.1887 111.229 17.1887H110.504V19.1577Z" fill="#E52314"/>
<path d="M95.7356 34.5638C95.432 34.8674 94.963 35.0087 94.5512 35.0087C94.1393 35.0087 93.6824 34.8674 93.3788 34.5638C93.1443 34.3293 93.0151 33.9897 93.0151 33.6951C93.0151 33.4005 93.1443 33.0728 93.3788 32.8383C93.6824 32.5347 94.1514 32.3934 94.5512 32.3934C94.951 32.3934 95.432 32.5347 95.7356 32.8383C95.9701 33.0728 96.0993 33.4125 96.0993 33.6951C96.0993 33.9776 95.9701 34.3293 95.7356 34.5638Z" fill="white"/>
<path d="M97.4251 27.0336H100.837C101.504 27.0336 102.55 27.1027 103.17 27.6889C103.356 27.8663 103.768 28.3352 103.768 29.213C103.768 29.5076 103.732 29.9285 103.44 30.2922C103.287 30.4786 103.04 30.668 102.761 30.7732L102.749 30.8423C103.065 30.9235 103.323 31.0768 103.57 31.3113C103.957 31.687 104.144 32.1079 104.144 32.673C104.144 33.2832 103.945 33.8213 103.404 34.2572C102.749 34.7863 101.949 34.8554 101.399 34.8554H97.4221L97.4251 27.0336ZM100.049 30.0367H100.494C100.66 30.0367 100.906 29.9886 101.032 29.8593C101.102 29.7902 101.186 29.6609 101.186 29.4475C101.186 29.2341 101.081 29.0958 101.008 29.0356C100.855 28.9184 100.597 28.9064 100.491 28.9064H100.046L100.049 30.0367ZM100.049 32.9676H100.624C100.789 32.9676 101.035 32.9556 101.222 32.8383C101.363 32.7452 101.492 32.5678 101.492 32.3093C101.492 32.1109 101.411 31.9455 101.282 31.8403C101.096 31.687 100.813 31.675 100.66 31.675H100.049V32.9676Z" fill="white"/>
<path d="M105.364 34.8554V27.0336H110.643V29.1799H108.205V29.9074H110.42V31.9606H108.205V32.7121H110.715V34.8584L105.364 34.8554Z" fill="white"/>
<path d="M112.822 34.8555V29.5077L111.226 29.5768V27.0307H117.208V29.5768L115.612 29.5077V34.8555H112.822Z" fill="white"/>
</svg>
