<svg width="120" height="44" viewBox="0 0 120 44" fill="none" xmlns="http://www.w3.org/2000/svg">
<path d="M2.04726 25.7614C1.93287 25.8544 1.84136 25.9009 1.36093 25.8311C0.994886 25.7846 0.788987 25.2962 0.674599 24.9473C0.194167 23.4355 -0.0574876 21.8771 0.0111455 20.2955C0.0340232 19.6675 0.651721 19.3419 1.20079 19.621C1.33805 19.6908 1.45244 19.8071 1.61258 19.9001C1.68122 19.4814 1.54395 19.086 1.47532 18.7139C1.15503 17.1555 1.22366 15.5972 1.56683 14.0621C2.13877 11.5269 3.71733 9.80569 6.02798 8.80555C8.88769 7.59609 11.7245 7.7589 14.447 9.22421C16.9635 10.5732 18.1532 12.8061 18.3133 15.6437C18.3819 16.8066 18.3591 17.9463 18.0616 19.086C17.993 19.2954 17.993 19.5279 17.9473 19.7373C18.0159 19.7373 18.0388 19.7838 18.0616 19.7605C19.2284 19.2488 19.6402 19.5279 19.6402 20.8072C19.6402 22.1097 19.4343 23.3657 19.0911 24.5984C18.931 25.1566 18.6793 25.6218 18.0845 25.7846C18.0845 25.7846 17.9473 25.8311 17.7414 25.8311C17.5355 25.8311 17.1465 25.5753 17.1237 25.552C16.9864 25.7846 17.0093 26.0637 17.0322 26.2963C17.2381 28.5292 16.4831 30.4364 15.0875 32.1343C14.3326 33.0647 13.6005 33.995 12.7998 34.9021C12.2736 35.5069 11.633 35.8325 10.8552 35.9255C9.98582 36.0418 9.13935 36.0186 8.26999 35.879C7.40064 35.7395 7.2405 35.5069 6.8287 35.065C5.57043 33.6694 4.42654 32.1808 3.41992 30.5992C2.8251 29.6689 2.55057 28.6687 2.55057 27.5523C2.55057 26.8313 2.64208 26.1102 2.39043 25.3892L1.97863 25.7148L2.04726 25.7614ZM1.56683 20.6211C1.47532 20.5281 1.40669 20.4118 1.31517 20.342C1.17791 20.2257 1.01776 20.0629 0.85762 20.1792C0.697477 20.2955 0.674599 20.5048 0.743232 20.7607C0.880498 20.5979 0.85762 20.3653 1.13215 20.435C1.36093 20.4816 1.2923 20.6211 1.2923 20.7607C1.2923 21.1096 1.47532 20.8072 1.56683 20.8305C1.56683 21.4584 1.52107 22.0632 1.4982 22.6679C1.4982 23.0866 1.56683 23.482 1.74985 23.8541C1.79561 23.9239 1.84136 24.0402 1.95575 23.9937C2.04726 23.9472 2.04726 23.8541 2.04726 23.7843C2.04726 23.4122 2.13877 23.0401 2.13877 22.6679C2.13877 21.9469 2.02438 21.2259 1.56683 20.6444V20.6211ZM5.11287 28.3198C4.8841 26.8545 4.56381 26.2731 3.51143 26.1568C3.16827 25.9939 3.32841 26.2963 3.32841 26.3894C3.39704 26.9011 3.41992 27.436 3.39704 27.9477C3.35129 28.9246 3.6487 29.7619 4.17489 30.5527C5.1815 32.0878 6.27963 33.5764 7.56079 34.9021C7.58366 34.9487 7.60654 34.9719 7.6523 34.9952C8.63604 35.6232 9.71129 35.5069 10.7637 35.4138C11.267 35.3673 11.7703 35.251 12.1592 34.8789C12.4109 34.5998 12.6396 34.2974 12.9142 34.0183C13.9894 32.9019 14.8816 31.6691 15.7052 30.3434C16.0942 29.7154 16.3916 29.0641 16.4145 28.2966C16.4145 27.5988 16.4145 26.9011 16.5288 26.2033C16.5288 26.1102 16.5975 25.9939 16.4831 25.9242C16.3687 25.8544 16.2772 25.9474 16.2086 26.0637C14.8588 26.4591 14.5842 27.4593 14.6986 28.599C14.5156 29.7619 14.2411 30.9016 14.1724 32.0878C13.9437 31.9017 13.9665 31.6924 13.9437 31.4831C13.875 31.1109 14.0123 30.7155 13.8522 30.3434C13.8522 30.2503 13.8522 30.1806 13.8522 30.0875C14.1496 29.5991 14.0123 28.1338 13.6463 27.7384C13.4861 27.5523 13.3488 27.529 13.3031 27.8314C13.1658 27.5988 13.0057 27.3662 12.8684 27.1336C12.7769 26.9708 12.6625 26.8778 12.5024 27.0406C12.3651 26.9941 12.2507 27.0406 12.1134 27.1104C11.9304 27.1802 11.8618 27.4127 11.6101 27.2965C11.2441 27.1569 10.9467 27.2965 10.6493 27.5523C10.2146 27.971 9.43676 27.9942 9.02496 27.5988C8.72755 27.3197 8.43014 27.2499 8.06409 27.3197C7.94971 27.3197 7.76669 27.436 7.74381 27.1802C7.74381 27.1336 7.78956 26.9941 7.67517 27.0173C7.62942 27.0173 7.60654 27.1569 7.56079 27.2267C7.4464 27.2499 7.33201 27.2965 7.21762 27.3197C7.17186 27.1802 7.28625 26.9011 6.94309 26.9941C6.76007 26.9708 6.57704 26.9243 6.46266 27.1104C6.05086 27.7384 5.5933 28.3198 5.66194 29.1572C5.73057 29.9945 5.73057 30.8318 5.75345 31.6924C5.75345 31.8552 5.84496 32.0645 5.54755 32.2041C5.3874 30.9481 5.25014 29.7386 5.08999 28.5292C5.08999 28.5059 5.11287 28.4594 5.13575 28.4361C5.13575 28.3896 5.13575 28.3431 5.13575 28.2966L5.11287 28.3198ZM17.8329 21.0165C17.7414 21.5282 17.5812 22.0399 17.6041 22.5516C17.6041 22.9935 17.4668 23.5052 17.81 23.9006C17.81 23.9239 17.81 23.9704 17.81 23.9937C17.81 24.0169 17.8786 24.0402 17.8786 24.0169C18.1074 23.7611 18.2218 23.4122 18.2675 23.0866C18.3819 22.319 18.4734 21.5282 18.5878 20.7607C18.5878 20.6444 18.4963 20.4118 18.748 20.435C18.931 20.435 18.8852 20.6676 18.8852 20.8072C18.8852 21.0398 18.8852 21.2956 18.9081 21.5282C18.8624 22.5051 18.6107 23.4355 18.2904 24.3658C18.2447 24.5054 18.2447 24.7612 18.0845 24.7612C17.9015 24.7612 17.8329 24.5519 17.7871 24.3891C17.7871 24.3658 17.7185 24.3426 17.6498 24.296C17.5126 24.6682 17.6499 24.9008 17.9473 25.0171C18.2675 25.1566 18.3819 24.8775 18.4506 24.6682C18.7937 23.6448 18.9996 22.5981 19.0454 21.5282C19.0454 21.2026 19.0454 20.877 19.0454 20.5746C19.0454 20.1559 18.8852 20.0396 18.4963 20.2257C18.1532 20.4118 18.0616 20.7839 17.8329 21.063V21.0165ZM11.8618 26.8545H11.8847H11.8389C11.633 26.4824 11.2441 26.6219 10.9467 26.5522C10.5578 26.4824 10.6264 26.1568 10.6264 25.9009C10.6264 25.5753 10.8094 25.7614 10.9467 25.7846C10.9467 26.1335 11.1297 26.18 11.4271 26.2498C12.388 26.4591 13.3031 26.18 14.2411 26.1568C14.8816 26.1568 15.4078 25.9707 15.7968 25.459C16.7347 25.1334 17.1465 24.3193 16.8034 23.3889C16.5288 22.6447 16.3916 21.9236 16.4602 21.1561C16.506 20.6211 16.3229 20.1559 15.9111 19.7605C15.0875 18.993 15.0647 18.7139 15.5222 17.6672C15.6366 17.4346 15.7281 17.1788 15.8196 16.9462C15.8654 16.8299 15.9111 16.7369 16.0484 16.8532C16.0942 17.1323 16.0027 17.4114 15.8883 17.6672C15.6137 18.3417 15.7052 18.9 16.1628 19.4582C16.5975 19.9699 16.872 20.5513 16.8491 21.2724C16.8491 21.4584 16.8491 21.691 17.1237 21.8771C17.1923 21.4119 17.2609 20.9933 17.3296 20.5746C17.6041 19.621 17.7185 18.6208 17.9015 17.644C17.9015 17.5975 17.9244 17.5277 17.9473 17.4579C17.993 17.4346 18.0159 17.3881 17.993 17.3416C18.3133 15.9461 18.1074 14.6203 17.5126 13.3411C17.627 13.2713 17.5583 13.1782 17.5126 13.0852C17.2609 12.527 16.9864 12.0153 16.5746 11.5501C12.9828 7.45653 6.76007 7.43327 3.19115 11.5501C2.52769 12.3177 1.97863 13.1782 1.86424 14.2482C1.86424 14.2714 1.86424 14.2947 1.84136 14.3179C1.74985 14.3645 1.74985 14.4342 1.77273 14.5273C1.4982 15.5041 1.4982 16.4578 1.77273 17.4346C1.77273 17.4346 1.77273 17.4579 1.77273 17.4812C1.77273 17.5044 1.79561 17.5277 1.81848 17.5509C1.81848 17.644 1.86424 17.737 1.88712 17.83C1.86424 18.4115 2.07014 18.9232 2.16165 19.4814C2.18453 19.6908 2.07014 19.9466 2.34467 20.0862C2.34467 20.6909 2.4133 21.2724 2.64208 21.9934C2.77935 21.5747 2.84798 21.3189 2.87086 21.0165C2.87086 20.5048 3.031 20.0164 3.37417 19.6442C3.94611 19.0163 4.0605 18.2952 3.78597 17.4812C3.69445 17.202 3.60294 16.8764 3.78597 16.5973C3.90035 16.9229 3.99186 17.2718 4.15201 17.5975C4.56381 18.4348 4.38079 19.1325 3.69445 19.714C3.35129 20.0164 3.19115 20.4118 3.21402 20.877C3.25978 21.8306 3.25978 22.7609 2.8251 23.6913C2.52769 24.3193 3.2369 25.3194 3.87748 25.3892C4.19776 25.9009 4.70107 26.0637 5.27302 26.1335C5.70769 26.18 6.14237 26.2033 6.55417 26.2963C7.12611 26.4126 7.69805 26.3661 8.26999 26.2963C8.61316 26.2498 8.72755 26.087 8.72755 25.7614C8.72755 25.3194 8.63604 24.8543 8.79618 24.4123C9.02496 24.9938 8.9792 25.5753 8.91057 26.18C8.88769 26.4591 8.81906 26.5987 8.52165 26.5987C8.33863 26.5987 8.13273 26.5987 7.94971 26.8313C8.20136 26.8313 8.38438 26.8545 8.5674 26.8778C8.84194 26.9011 9.09359 26.9708 9.27661 27.2034C9.64266 27.6919 10.1231 27.7151 10.4663 27.2034C10.6035 26.9941 10.7637 26.9243 10.9696 26.9011C11.267 26.8545 11.5644 26.808 11.8618 26.8545ZM0.85762 21.4817C0.697477 21.505 0.697477 21.598 0.720354 21.6678C0.811865 22.6912 0.972009 23.6913 1.2923 24.6682C1.36093 24.9008 1.47532 25.0868 1.77273 24.9473C2.07014 24.8077 2.13877 24.5984 1.97863 24.296C1.88712 24.4589 1.84136 24.738 1.63546 24.7147C1.40669 24.7147 1.45244 24.4123 1.40669 24.2495C1.10928 23.3657 0.926253 22.4353 0.834743 21.4817H0.85762ZM13.326 26.8545C13.3946 27.0871 13.5547 27.1569 13.6691 27.2499C13.7835 27.343 13.9208 27.5756 14.1038 27.3662C14.2411 27.2267 14.3555 27.0173 14.3097 26.8545C14.2411 26.6219 14.0123 26.7615 13.8522 26.7615C13.692 26.7615 13.509 26.808 13.3031 26.8545H13.326ZM6.34827 26.9708C6.16525 26.808 5.98222 26.7848 5.82208 26.7848C5.66194 26.7848 5.36453 26.6219 5.34165 26.8778C5.29589 27.1336 5.57043 27.3895 5.77632 27.436C6.0051 27.4825 6.09661 27.1336 6.34827 26.9941V26.9708Z" fill="white"/>
<path d="M7.53792 34.8789C6.25676 33.5531 5.15864 32.0878 4.15202 30.5295C3.62583 29.7387 3.32842 28.8781 3.37417 27.9245C3.39705 27.4128 3.37417 26.8778 3.30554 26.3661C3.30554 26.2731 3.1454 25.9707 3.48856 26.1335C3.85461 27.0173 4.4723 27.7616 5.04425 28.5292C5.20439 29.7387 5.34166 30.9481 5.5018 32.2041C5.79921 32.0413 5.7077 31.832 5.7077 31.6924C5.7077 30.8551 5.7077 29.9945 5.61619 29.1572C5.54756 28.3199 6.00511 27.7384 6.41691 27.1104C6.5313 26.9243 6.71432 26.9708 6.89734 26.9941C6.89734 27.1802 6.78295 27.343 6.66856 27.4825C5.9136 28.3664 5.75345 29.3898 5.89072 30.5062C5.89072 30.669 5.93648 30.8318 5.9136 30.9946C5.9136 31.4831 6.18813 31.8087 6.34828 32.2971C6.46266 32.0413 6.34828 31.925 6.3254 31.8087C6.02799 30.4364 5.98223 29.0874 6.96597 27.9477C7.12612 27.7616 7.12612 27.5756 7.14899 27.3662C7.26338 27.343 7.37777 27.2965 7.49216 27.2732C7.53792 27.5988 7.78957 27.6453 8.0641 27.6453C8.31576 27.6453 8.54453 27.6453 8.77331 27.8314C9.41389 28.3664 10.0316 28.3896 10.6722 27.8779C10.9238 27.6919 11.1755 27.5756 11.4729 27.6221C11.8847 27.6919 12.0677 27.5523 12.0677 27.1104C12.1821 27.0639 12.3194 26.9941 12.4566 27.0406C12.4566 27.5523 12.6396 27.971 12.9371 28.3664C13.3031 28.8548 13.4175 29.4595 13.4404 30.0643C13.4632 30.762 13.4404 31.4598 13.2573 32.1343C13.5548 31.7389 13.5776 31.2505 13.6463 30.7853C13.6463 30.6225 13.5776 30.4132 13.7835 30.3201C13.9437 30.6923 13.7835 31.0877 13.875 31.4598C13.9208 31.6459 13.875 31.8785 14.1038 32.0646C14.1724 30.8783 14.447 29.7387 14.63 28.5757C14.9274 28.3664 14.9274 27.9942 15.1791 27.7616C15.6595 27.2965 15.934 26.6917 16.1399 26.0637C16.2086 25.9707 16.3001 25.8777 16.4145 25.9242C16.506 25.9707 16.4602 26.1102 16.4602 26.2033C16.323 26.9011 16.3687 27.5988 16.3458 28.2966C16.3458 29.0641 16.0255 29.7154 15.6366 30.3434C14.8359 31.6691 13.9208 32.9019 12.8455 34.0183C12.571 34.2974 12.3422 34.5765 12.0906 34.8789C11.8847 34.6928 11.7017 34.8789 11.5415 34.9254C10.7179 35.0417 10.3519 34.7393 10.3519 33.9253C10.3519 33.7392 10.3519 33.5299 10.3519 33.3438C10.3519 33.0182 10.512 32.9019 10.8094 32.9949C11.1297 33.1112 11.45 33.2275 11.8389 33.3671C11.2212 32.3204 10.3061 32.1808 9.32238 32.2739C8.63604 32.3437 7.97259 32.8321 7.83533 33.3438C7.94971 33.2973 8.04123 33.2275 8.13274 33.181C8.91058 32.7856 9.0936 32.9019 9.0936 33.7857V34.0881C9.07072 34.7161 8.70468 35.0417 8.08698 34.9719C7.88108 34.9719 7.67518 34.8789 7.46928 34.9254L7.53792 34.8789ZM8.04122 31.8087C9.25374 31.9017 10.4663 31.7622 11.6788 31.8087C10.8094 31.0644 9.00209 31.0644 8.04122 31.8087Z" fill="#45B9EA"/>
<path d="M15.7968 25.5055V25.1334C15.5451 25.2497 15.2935 25.3427 15.0647 25.459C14.813 25.5753 14.6529 25.5288 14.6529 25.2264C14.6529 24.9473 14.5614 24.7612 14.264 24.7147C14.1496 24.7147 14.0123 24.6449 14.0123 24.4589C14.0123 24.3193 14.1267 24.2495 14.264 24.1798C14.5385 24.0635 14.7901 23.9704 15.0647 23.8541C15.2935 23.7611 15.4994 23.6215 15.6366 23.4355C16.0255 22.9238 15.9112 22.5516 15.3392 22.2958C14.8588 22.0864 14.3326 22.0864 13.8293 22.1097C14.1038 21.9004 14.4241 21.9004 14.7215 21.8306C14.8359 21.8073 14.9732 21.8073 14.996 21.6678C14.996 21.505 14.8359 21.4584 14.7215 21.4352C14.2868 21.3422 13.8522 21.3654 13.4404 21.4817C13.3489 21.505 13.2573 21.5282 13.1658 21.4584C13.7835 21.0398 14.3784 20.6211 15.1333 20.5281C15.4765 20.4816 15.4994 20.249 15.3163 20.0397C14.5843 19.2721 14.7673 18.4115 14.9732 17.5277C15.1562 16.8299 15.4536 16.1321 15.2248 15.3646C15.6366 15.8065 15.934 16.3182 16.0713 16.9229C15.934 16.8067 15.8883 16.8997 15.8425 17.016C15.751 17.2486 15.6366 17.5044 15.5451 17.737C15.0876 18.7837 15.1104 19.0395 15.934 19.8303C16.3458 20.2257 16.5289 20.6676 16.4831 21.2259C16.4145 21.9934 16.5517 22.7377 16.8263 23.4587C17.1694 24.3891 16.7348 25.2031 15.8196 25.5288L15.7968 25.5055Z" fill="#45B9EA"/>
<path d="M3.76308 16.6439C3.80884 16.1554 4.10625 15.8065 4.42653 15.4576C4.17488 16.295 4.60956 17.0393 4.7697 17.7835C4.95272 18.6209 4.92984 19.3652 4.26639 19.9699C4.01474 20.2025 4.10625 20.3885 4.42653 20.4816C5.13574 20.6444 5.75344 20.97 6.34826 21.4352C6.16524 21.5748 6.02797 21.4352 5.86783 21.4119C5.5933 21.3654 5.29589 21.2956 5.02135 21.3654C4.81545 21.4119 4.54092 21.4585 4.5638 21.6911C4.5638 21.8771 4.83833 21.7608 4.9756 21.8073C5.31876 21.9004 5.68481 21.9236 5.95934 22.2028C5.52466 22.1795 5.11287 22.1097 4.70107 22.2028C4.31215 22.2725 3.92322 22.3888 3.80884 22.8307C3.71733 23.2727 4.01474 23.575 4.33502 23.7844C4.63243 23.9704 4.95272 24.11 5.27301 24.2728C5.3874 24.3193 5.54754 24.3658 5.54754 24.5054C5.54754 24.6682 5.41027 24.6915 5.29589 24.7612C5.1815 24.831 4.99848 24.8775 4.9756 25.0403C4.92984 25.8777 4.49517 25.4357 4.17488 25.2962C3.96898 25.2032 3.83171 25.1101 3.83171 25.459C3.16826 25.4125 2.48193 24.3891 2.77934 23.7611C3.21402 22.854 3.21402 21.9236 3.16826 20.9468C3.16826 20.4816 3.30553 20.0862 3.64869 19.7838C4.33502 19.2023 4.51804 18.5046 4.10625 17.6672C3.9461 17.3649 3.85459 17.016 3.7402 16.6671L3.76308 16.6439Z" fill="#45B9EA"/>
<path d="M7.5379 34.8789C7.7438 34.8324 7.9497 34.9254 8.1556 34.9254C8.7733 34.9952 9.13934 34.6695 9.16222 34.0415C9.16222 33.9485 9.16222 33.8555 9.16222 33.7392C9.16222 32.8786 8.9792 32.7623 8.20136 33.1344C8.10985 33.181 7.99546 33.2275 7.90395 33.2973C8.04121 32.7856 8.70467 32.2971 9.391 32.2273C10.3747 32.1343 11.2898 32.2739 11.9075 33.3205C11.5186 33.181 11.1983 33.0647 10.878 32.9484C10.5806 32.8321 10.4205 32.9484 10.4205 33.2973C10.4205 33.4833 10.4205 33.6927 10.4205 33.8787C10.4205 34.6928 10.7865 35.0184 11.6101 34.8789C11.7932 34.8556 11.9762 34.6463 12.1592 34.8324C11.7703 35.2278 11.267 35.344 10.7637 35.3673C9.68841 35.4603 8.61315 35.5766 7.65229 34.9486C7.60654 34.9486 7.60654 34.8789 7.56078 34.8556L7.5379 34.8789Z" fill="#2D2D2D"/>
<path d="M17.5126 13.3876C16.9178 12.434 16.3458 11.4803 15.4307 10.8058C11.0611 7.45653 4.63244 8.68926 2.27604 13.4108C2.13877 13.6899 2.00151 13.9923 1.86424 14.2714C2.00151 13.2015 2.5277 12.3409 3.21403 11.5734C6.80583 7.47979 13.0286 7.50305 16.5975 11.5734C16.9864 12.0386 17.2838 12.5503 17.5355 13.1085C17.5812 13.2015 17.627 13.2945 17.5355 13.3643L17.5126 13.3876Z" fill="#45B9EA"/>
<path d="M8.75044 24.3891C8.75044 24.1565 8.75044 23.9471 8.84195 23.6448C9.18511 24.11 9.34526 24.5286 9.34526 25.0171C9.34526 25.5753 9.36813 26.1567 9.34526 26.715C9.34526 27.0173 9.41389 27.1569 9.73418 27.1569C10.0545 27.1569 10.1231 27.0406 10.146 26.7382C10.1917 25.8776 10.0773 25.0171 10.4663 24.203C10.5349 24.0402 10.5578 23.8541 10.7637 23.7146C10.9009 24.4123 10.9009 25.1101 10.9238 25.7846C10.7866 25.7846 10.5807 25.5753 10.6035 25.9009C10.6035 26.1567 10.5349 26.4824 10.9238 26.5521C11.2441 26.5987 11.6101 26.4824 11.816 26.8545C11.5186 26.808 11.2212 26.8545 10.9238 26.901C10.7179 26.9243 10.5578 26.9941 10.4205 27.2034C10.0773 27.7151 9.59691 27.6918 9.23087 27.2034C9.04785 26.9476 8.79619 26.901 8.52166 26.8778C8.33864 26.8778 8.15562 26.8545 7.90396 26.8313C8.08698 26.5987 8.29288 26.5987 8.4759 26.5987C8.77331 26.5987 8.84195 26.4359 8.86482 26.18C8.91058 25.5753 8.97921 24.9938 8.75044 24.4123V24.3891Z" fill="#45B9EA"/>
<path d="M18.9081 21.5282C18.9081 21.2956 18.9081 21.0398 18.8852 20.8072C18.8852 20.6676 18.931 20.4583 18.748 20.4351C18.5192 20.4351 18.6107 20.6444 18.5878 20.7607C18.4734 21.5282 18.3819 22.319 18.2675 23.0866C18.2218 23.4122 18.1074 23.7611 17.8786 24.0169C17.8786 24.0169 17.81 24.0169 17.81 23.9937C17.81 23.9937 17.81 23.9472 17.81 23.9006C17.8329 23.4587 17.9015 22.9935 17.9015 22.5516C17.9015 22.0399 18.0159 21.5282 17.8329 21.0165C18.0616 20.7607 18.1531 20.3653 18.4963 20.1792C18.8852 19.9931 19.0454 20.1094 19.0454 20.5281C19.0454 20.8537 19.0454 21.1793 19.0454 21.4817C18.9996 21.4817 18.9539 21.4817 18.9081 21.4817V21.5282ZM18.3362 20.6444C18.2904 20.7839 18.2447 20.877 18.3362 20.9467C18.359 20.8537 18.3819 20.7607 18.3362 20.6444Z" fill="#45B9EA"/>
<path d="M13.8293 30.3434C13.6005 30.4364 13.7149 30.6457 13.692 30.8085C13.6234 31.2737 13.6005 31.7389 13.3031 32.1576C13.4861 31.483 13.509 30.7853 13.4861 30.0875C13.4861 29.4828 13.3488 28.878 12.9828 28.3896C12.6854 27.9942 12.4795 27.5755 12.5024 27.0638C12.6625 26.901 12.7769 26.9941 12.8684 27.1569C13.0057 27.3895 13.1658 27.6221 13.3031 27.8546C13.5319 28.4361 13.8293 28.9943 13.7835 29.6456C13.7835 29.8084 13.7149 29.9712 13.8522 30.1108C13.8522 30.2038 13.8522 30.2736 13.8522 30.3666L13.8293 30.3434Z" fill="#2D2D2D"/>
<path d="M7.14898 27.343C7.14898 27.5523 7.14898 27.7384 6.96596 27.9244C5.95934 29.0641 6.02798 30.4131 6.32539 31.7854C6.34827 31.925 6.48553 32.0413 6.34827 32.2739C6.18812 31.7854 5.89071 31.4598 5.91359 30.9714C5.91359 30.8085 5.91359 30.6457 5.89071 30.4829C5.75345 29.3665 5.89071 28.3431 6.66855 27.4593C6.78294 27.3197 6.87445 27.1801 6.89733 26.9708C7.21762 26.901 7.10323 27.1569 7.17186 27.2964L7.14898 27.343Z" fill="#2D2D2D"/>
<path d="M12.0906 27.1336C12.0906 27.5523 11.8847 27.7151 11.4957 27.6453C11.1983 27.5988 10.9467 27.6919 10.695 27.9012C10.0545 28.4129 9.41388 28.3896 8.79618 27.8547C8.5674 27.6686 8.33863 27.6686 8.08697 27.6686C7.81244 27.6686 7.58366 27.6221 7.51503 27.2965C7.56079 27.2267 7.58366 27.1104 7.62942 27.0871C7.76668 27.0639 7.69805 27.1802 7.69805 27.2499C7.72093 27.5058 7.90395 27.4128 8.01834 27.3895C8.38438 27.343 8.68179 27.3895 8.9792 27.6686C9.41388 28.0873 10.1688 28.0407 10.6035 27.6221C10.9009 27.343 11.1983 27.2034 11.5644 27.3662C11.8389 27.4593 11.9075 27.2267 12.0677 27.1802L12.0906 27.1336Z" fill="#2D2D2D"/>
<path d="M16.1857 26.0637C15.9798 26.715 15.7053 27.2965 15.2248 27.7616C14.9732 27.9942 14.9732 28.3896 14.6758 28.5757C14.5842 27.436 14.8588 26.4359 16.1857 26.0405V26.0637Z" fill="#2D2D2D"/>
<path d="M5.04424 28.5292C4.4723 27.7616 3.8546 27.0406 3.48856 26.1335C4.56381 26.2498 4.86122 26.8313 5.08999 28.2966C5.08999 28.3431 5.08999 28.3896 5.08999 28.4361L5.04424 28.5292Z" fill="#2D2D2D"/>
<path d="M1.56683 20.6212C2.04726 21.2026 2.13878 21.9237 2.13878 22.6447C2.13878 23.0168 2.07014 23.389 2.04726 23.7611C2.04726 23.8309 2.04726 23.9239 1.95575 23.9705C1.84137 24.017 1.77273 23.9239 1.74985 23.8309C1.56683 23.4588 1.4982 23.0633 1.4982 22.6447C1.4982 22.0167 1.54396 21.412 1.56683 20.8072C1.52108 20.7607 1.52108 20.6909 1.56683 20.6212Z" fill="#45B9EA"/>
<path d="M17.3524 20.5979C17.2381 20.0862 17.1237 19.5977 16.9864 19.086C16.9864 19.0163 16.9406 18.9 17.0322 18.8534C17.6041 18.6674 17.627 18.0394 17.9244 17.644C17.7642 18.6209 17.6499 19.621 17.3524 20.5746V20.5979Z" fill="#45B9EA"/>
<path d="M18.9081 21.5282C18.9539 21.5282 18.9996 21.5282 19.0454 21.5282C18.9996 22.5981 18.7937 23.6448 18.4506 24.6682C18.3819 24.9008 18.2676 25.1799 17.9473 25.017C17.6727 24.9008 17.5126 24.6682 17.6499 24.296C17.7185 24.3425 17.7642 24.3658 17.7871 24.3891C17.8329 24.5519 17.8786 24.7845 18.0845 24.7612C18.2447 24.7612 18.2447 24.5053 18.2904 24.3658C18.6107 23.4587 18.8395 22.5051 18.9081 21.5282Z" fill="#2D2D2D"/>
<path d="M0.857614 21.4817C0.949124 22.4353 1.10927 23.3657 1.42956 24.2495C1.47531 24.4123 1.42956 24.7147 1.65833 24.7147C1.86423 24.7147 1.90999 24.4588 2.0015 24.296C2.16164 24.5984 2.09301 24.8077 1.7956 24.9473C1.49819 25.0868 1.3838 24.9008 1.31517 24.6682C0.99488 23.6913 0.834736 22.6912 0.743225 21.6678C0.743225 21.598 0.743225 21.5049 0.880491 21.4817H0.857614Z" fill="#2D2D2D"/>
<path d="M1.84136 17.8766C2.04726 18.179 2.2074 18.5278 2.48193 18.7604C2.59632 18.8767 2.59632 19.0163 2.55056 19.1558C2.45905 19.4815 2.48193 19.8303 2.29891 20.1327C2.02438 19.9932 2.13877 19.7373 2.11589 19.528C2.02438 18.9698 1.7956 18.4581 1.84136 17.8766Z" fill="#45B9EA"/>
<path d="M13.8064 30.0875C13.6691 29.948 13.7378 29.7851 13.7378 29.6223C13.7835 28.9711 13.509 28.4129 13.2573 27.8314C13.3031 27.529 13.4404 27.5755 13.6005 27.7383C13.9665 28.1338 14.1038 29.5758 13.8064 30.0875Z" fill="#45B9EA"/>
<path d="M17.8329 21.0165C18.0159 21.5282 17.9015 22.0399 17.9015 22.5516C17.9015 22.9936 17.8557 23.4587 17.81 23.9007C17.4668 23.5053 17.6041 22.9936 17.6041 22.5516C17.6041 22.0399 17.7414 21.5282 17.8329 21.0165Z" fill="#2D2D2D"/>
<path d="M13.326 26.8545C13.5319 26.808 13.692 26.7615 13.875 26.7615C14.0352 26.7615 14.264 26.6219 14.3326 26.8545C14.3783 27.0173 14.264 27.2267 14.1267 27.3662C13.9437 27.5523 13.8293 27.343 13.692 27.2499C13.5776 27.1569 13.4175 27.0871 13.3489 26.8545H13.326Z" fill="#45B9EA"/>
<path d="M6.34827 26.9708C6.09661 27.1337 6.02798 27.4825 5.77632 27.4128C5.54755 27.3662 5.29589 27.1104 5.34165 26.8545C5.3874 26.5987 5.66193 26.7615 5.82208 26.7615C5.98222 26.7615 6.18812 26.7615 6.34827 26.9476V26.9708Z" fill="#45B9EA"/>
<path d="M1.56683 20.6212C1.52108 20.6909 1.52108 20.7375 1.56683 20.8072C1.47532 20.784 1.2923 21.0631 1.2923 20.7375C1.2923 20.5979 1.33806 20.4583 1.13216 20.4118C0.857625 20.3653 0.880503 20.5979 0.743237 20.7375C0.674604 20.4816 0.697481 20.2723 0.857625 20.156C1.01777 20.0397 1.17791 20.2025 1.31518 20.3188C1.40669 20.4118 1.47532 20.5049 1.56683 20.5979V20.6212Z" fill="#2D2D2D"/>
<path d="M1.84136 14.3412C1.86423 14.4342 1.84136 14.504 1.77272 14.5505C1.74985 14.4575 1.77272 14.3877 1.84136 14.3412Z" fill="#45B9EA"/>
<path d="M17.9473 17.5044C17.9244 17.4579 17.9473 17.4114 17.993 17.3881C17.993 17.4346 17.993 17.4812 17.9473 17.5044Z" fill="#45B9EA"/>
<path d="M11.8389 26.8778H11.8847L11.8618 26.8546L11.8389 26.8778Z" fill="#45B9EA"/>
<path d="M1.74985 17.4811C1.74985 17.4811 1.77273 17.5277 1.7956 17.5509C1.7956 17.5509 1.7956 17.5742 1.7956 17.5974C1.7956 17.5974 1.77273 17.5509 1.74985 17.5277C1.74985 17.5277 1.74985 17.5044 1.74985 17.4811Z" fill="#45B9EA"/>
<path d="M5.66194 18.8069C5.41029 18.365 5.43317 17.9929 5.36453 17.644C5.54755 17.9463 5.63906 18.2952 5.66194 18.8069Z" fill="#45B9EA"/>
<path d="M15.1562 15.2018V15.1785H15.1791L15.1562 15.2018Z" fill="#45B9EA"/>
<path d="M12.8913 30.3201C12.3422 30.3899 11.7931 30.1806 11.2441 30.1806C10.9009 30.1806 10.5578 30.1806 10.2375 30.3434C10.0544 30.4364 9.84854 30.4829 9.6884 30.4132C8.75042 29.9712 7.81243 30.1573 6.82869 30.4597C7.30912 29.8317 8.38437 29.4828 9.13934 29.7154C9.59689 29.8549 10.0087 29.8782 10.4662 29.7154C11.0611 29.4828 11.6559 29.7386 12.2507 29.9247C12.4108 29.9712 12.8226 30.2271 12.8913 30.3434V30.3201Z" fill="#2D2D2D"/>
<path d="M8.04121 31.8087C9.00208 31.0411 10.8094 31.0411 11.6788 31.8087C10.4663 31.7854 9.25373 31.9017 8.04121 31.8087Z" fill="#2D2D2D"/>
<path d="M18.3362 20.6444C18.4048 20.7607 18.3819 20.8537 18.3362 20.9468C18.2447 20.877 18.2676 20.784 18.3362 20.6444Z" fill="white"/>
<path d="M1.74985 17.4812C1.4982 16.5043 1.4982 15.5274 1.74985 14.5738C1.81849 14.5273 1.84136 14.4342 1.81849 14.3645C1.81849 14.3412 1.81849 14.3179 1.81849 14.2947C1.95575 14.0156 2.09302 13.7132 2.23028 13.4341C4.58669 8.71252 11.0153 7.4798 15.385 10.8291C16.2772 11.5269 16.872 12.4805 17.4668 13.4108C18.0616 14.6901 18.2904 16.0158 17.9473 17.4114C17.9015 17.4346 17.8786 17.4812 17.9015 17.5277C17.9015 17.5742 17.8786 17.644 17.8558 17.7138C17.5583 18.1092 17.5583 18.7371 16.9635 18.9232C16.8949 18.9465 16.9178 19.0628 16.9178 19.1558C17.0322 19.6675 17.1465 20.1559 17.2838 20.6676C17.2152 21.0863 17.1465 21.5282 17.0779 21.9701C16.8034 21.8073 16.8034 21.5515 16.8034 21.3654C16.8034 20.6444 16.5517 20.0629 16.117 19.5512C15.6366 18.993 15.568 18.4115 15.8425 17.7603C15.934 17.5044 16.0255 17.2486 16.0027 16.9462C15.8654 16.3647 15.5909 15.853 15.1562 15.3879C15.385 16.1554 15.0875 16.8299 14.9045 17.5509C14.6986 18.4348 14.5156 19.2954 15.2477 20.0629C15.4307 20.249 15.4078 20.5048 15.0647 20.5513C14.3097 20.6444 13.7149 21.063 13.0972 21.4817C13.1887 21.5515 13.2802 21.5282 13.3717 21.505C13.7835 21.3887 14.2182 21.3654 14.6529 21.4584C14.7673 21.4584 14.9274 21.5282 14.9274 21.691C14.9274 21.8306 14.7673 21.8306 14.6529 21.8539C14.3555 21.9236 14.0352 21.9236 13.7606 22.133C14.2868 22.1097 15.2706 22.1097 15.751 22.319C16.3229 22.5749 16.4373 22.947 16.0484 23.4587C15.8883 23.6681 15.2248 23.7843 14.996 23.8774C14.7444 23.9937 14.4699 24.11 14.1953 24.203C14.0809 24.2495 13.9665 24.3193 13.9437 24.4821C13.9437 24.6449 14.0581 24.7147 14.1953 24.738C14.4927 24.7845 14.5842 24.9706 14.5842 25.2497C14.5842 25.552 14.7444 25.5985 14.996 25.4823C15.2477 25.366 15.4765 25.2729 15.7281 25.1566V25.5288C15.3163 26.0172 14.7901 26.2033 14.1724 26.2265C13.2345 26.2265 12.2965 26.5289 11.3585 26.3196C11.084 26.2498 10.8552 26.2033 10.8781 25.8544C10.8781 25.1799 10.8781 24.4821 10.7179 23.7843C10.512 23.9239 10.4891 24.11 10.4205 24.2728C10.0316 25.0869 10.146 25.9474 10.1002 26.808C10.1002 27.1104 10.0087 27.2267 9.68841 27.2267C9.36812 27.2267 9.29949 27.0639 9.29949 26.7848C9.29949 26.2265 9.29949 25.6451 9.29949 25.0869C9.29949 24.5984 9.11647 24.1798 8.79618 23.7146C8.70467 24.0169 8.70467 24.2495 8.70467 24.4589C8.56741 24.9008 8.63604 25.366 8.63604 25.8079C8.63604 26.1568 8.52165 26.3196 8.17848 26.3428C7.60654 26.4126 7.0346 26.4591 6.46266 26.3428C6.05086 26.2731 5.61618 26.2265 5.18151 26.18C4.60956 26.1335 4.12913 25.9474 3.78597 25.4357C3.78597 25.1101 3.92323 25.1799 4.12913 25.2729C4.42654 25.4125 4.8841 25.8544 4.92985 25.0171C4.92985 24.8543 5.11287 24.8077 5.25014 24.738C5.36453 24.6682 5.52467 24.6449 5.5018 24.4821C5.5018 24.3426 5.31877 24.296 5.22726 24.2495C4.90697 24.0867 4.17489 23.8309 3.87748 23.6448C3.53431 23.4355 3.2369 23.1331 3.35129 22.6912C3.4428 22.2493 3.8546 22.133 4.24352 22.0632C4.65532 21.9934 5.5018 22.1795 5.91359 22.2027C5.63906 21.9236 5.27302 21.9004 4.92985 21.8073C4.79259 21.7608 4.51805 21.8771 4.51805 21.691C4.51805 21.4352 4.76971 21.4119 4.97561 21.3654C5.27302 21.2956 5.54755 21.3654 5.82208 21.4119C5.95935 21.4119 6.09662 21.5747 6.30251 21.4352C5.70769 20.97 5.09 20.6444 4.38079 20.4816C4.0605 20.4118 3.96899 20.2257 4.22064 19.9699C4.8841 19.3419 4.90697 18.6209 4.72395 17.7835C4.56381 17.016 4.10626 16.295 4.38079 15.4576C4.0605 15.8065 3.76309 16.1554 3.71733 16.6438C3.51143 16.9229 3.60295 17.2486 3.71733 17.5277C3.99187 18.3417 3.87748 19.0395 3.30554 19.6908C2.96237 20.0862 2.8251 20.5513 2.80223 21.063C2.80223 21.3422 2.73359 21.6213 2.57345 22.0399C2.34467 21.3189 2.27604 20.7374 2.27604 20.1327C2.45906 19.8303 2.43618 19.4814 2.52769 19.1558C2.57345 18.993 2.57345 18.8767 2.45906 18.7604C2.18453 18.5278 2.02438 18.1789 1.81849 17.8766C1.81849 17.7835 1.77273 17.6905 1.74985 17.5975C1.74985 17.5975 1.74985 17.5742 1.74985 17.5509C1.74985 17.5277 1.72697 17.5044 1.7041 17.4812H1.74985Z" fill="#2D2D2D"/>
<path d="M4.31215 22.854C5.84495 23.7378 6.92021 24.203 8.43013 23.2261C6.96596 23.4587 5.98222 21.8073 4.31215 22.854Z" fill="white"/>
<path d="M11.3814 23.2029C12.8455 24.2728 14.1724 24.0867 15.4993 22.8308C14.0581 22.0632 12.9599 23.2727 11.3814 23.2029Z" fill="white"/>
<path d="M7.28626 13.1783C7.83533 13.155 8.36151 13.1085 8.91058 13.0852C8.97921 13.0852 9.02497 13.0387 9.04785 12.9689C9.25374 12.434 9.45964 11.8758 9.66554 11.3408C9.66554 11.3408 9.66554 11.3408 9.68842 11.2943C9.68842 11.2943 9.7113 11.3408 9.73418 11.3408C9.94008 11.8758 10.146 12.4107 10.3519 12.9457C10.3748 13.0154 10.4205 13.062 10.512 13.062C11.0611 13.0852 11.6101 13.1085 12.1592 13.155C12.1821 13.155 12.205 13.155 12.2507 13.155C12.205 13.2015 12.205 13.2015 12.1821 13.2248C11.7474 13.5737 11.3356 13.9225 10.9009 14.2947C10.8323 14.3412 10.8094 14.3877 10.8323 14.4808C10.9924 15.0157 11.1297 15.5739 11.267 16.1089C11.267 16.1322 11.267 16.1554 11.267 16.2252C11.0153 16.0624 10.7637 15.8996 10.5349 15.76C10.2832 15.5972 10.0316 15.4344 9.75705 15.2483C9.68842 15.2018 9.64266 15.2018 9.57403 15.2483C9.0936 15.5507 8.63605 15.8763 8.15561 16.1787C8.15561 16.1787 8.13274 16.1787 8.08698 16.2252C8.08698 16.1322 8.13274 16.0624 8.13274 15.9926C8.27 15.4809 8.40727 14.9925 8.54454 14.4808C8.54454 14.3877 8.54454 14.3412 8.4759 14.2947C8.04123 13.9458 7.58367 13.5737 7.149 13.2015C7.149 13.2015 7.149 13.2015 7.10324 13.155C7.17187 13.155 7.21763 13.155 7.24051 13.155L7.28626 13.1783Z" fill="white"/>
<path fill-rule="evenodd" clip-rule="evenodd" d="M49.588 16.9229C48.2213 16.9229 46.7608 17.2969 45.632 18.2207C44.4876 19.1573 43.7313 20.6217 43.7313 22.6911C43.7313 24.7485 44.4815 26.207 45.6202 27.141C46.7434 28.0621 48.1983 28.4361 49.5651 28.4361C51.2307 28.4361 52.6303 27.9453 53.6304 27.2086C53.7886 27.0932 53.9337 26.9096 53.943 26.6443C53.9505 26.4305 53.863 26.2377 53.7874 26.0968L53.1617 24.9425L53.154 24.9301C53.0386 24.7458 52.8562 24.5548 52.586 24.4998C52.3134 24.4444 52.0744 24.5518 51.8988 24.6911C51.7997 24.7628 51.7137 24.828 51.6371 24.8862L51.6364 24.8867C51.4144 25.0551 51.2751 25.1595 51.0731 25.2437C50.8064 25.3548 50.4023 25.4357 49.5651 25.4357C48.8023 25.4357 48.1713 25.1941 47.7327 24.7553C47.2964 24.3187 47.0028 23.6393 47.0028 22.6679C47.0028 21.6965 47.2964 21.017 47.7327 20.5805C48.1713 20.1416 48.8023 19.9001 49.5651 19.9001C50.4748 19.9001 51.2245 20.2255 51.8678 20.7312C52.04 20.8703 52.2763 20.9831 52.5449 20.9452C52.8274 20.9053 53.0264 20.7165 53.144 20.5001L53.7529 19.4224C53.8609 19.2522 53.9324 19.0383 53.8984 18.8032C53.863 18.5583 53.7242 18.3664 53.5522 18.2304C53.4464 18.1464 53.3479 18.063 53.2483 17.9786L53.2477 17.9781L53.2393 17.971C52.9448 17.7215 52.6462 17.4685 52.2276 17.2862C51.6589 17.0384 50.8956 16.9229 49.588 16.9229ZM33.6173 18.4233C34.6954 17.5282 36.0937 17.1323 37.3939 17.1323C38.694 17.1323 40.0924 17.5282 41.1704 18.4233C42.2554 19.3241 42.9989 20.7171 42.9989 22.6679C42.9989 24.6187 42.2554 26.0118 41.1704 26.9126C40.0924 27.8076 38.694 28.2036 37.3939 28.2036C36.0937 28.2036 34.6954 27.8076 33.6173 26.9126C32.5324 26.0118 31.7888 24.6187 31.7888 22.6679C31.7888 20.7171 32.5324 19.3241 33.6173 18.4233ZM22.6819 17.5493C22.8095 17.4195 22.9824 17.3649 23.1639 17.3649H26.3668C27.6253 17.3649 28.8326 17.5278 29.7325 18.0207C30.1862 18.2692 30.566 18.6038 30.8314 19.0464C31.0969 19.4893 31.2398 20.0268 31.2398 20.6676C31.2398 21.8957 31.0268 22.6066 30.5918 23.0625C30.3771 23.2875 30.1213 23.4361 29.8471 23.5566C29.6597 23.639 29.4526 23.7127 29.2395 23.7878L31.4279 27.071L31.4286 27.072C31.5562 27.26 31.6166 27.4922 31.4949 27.6942C31.3998 27.8519 31.2325 27.9227 31.0656 27.942L31.0371 27.971H29.2265C29.0809 27.971 28.9442 27.9411 28.8215 27.8723C28.6994 27.8038 28.6045 27.7043 28.5307 27.585L26.4036 24.296H25.2229V27.2965C25.2229 27.481 25.1692 27.6568 25.0415 27.7865C24.9139 27.9163 24.741 27.971 24.5595 27.971H23.1639C22.9824 27.971 22.8095 27.9163 22.6819 27.7865C22.5543 27.6568 22.5005 27.481 22.5005 27.2965V18.0394C22.5005 17.8549 22.5543 17.679 22.6819 17.5493ZM55.1911 17.5493C55.3187 17.4195 55.4917 17.3649 55.6732 17.3649H57.0687C57.2502 17.3649 57.4231 17.4195 57.5507 17.5493C57.6784 17.679 57.7321 17.8549 57.7321 18.0394V21.1921L61.1378 17.6671L61.1393 17.6656C61.3385 17.4631 61.5554 17.3649 61.8273 17.3649H63.7719C63.9947 17.3649 64.2475 17.4385 64.3373 17.6772C64.4246 17.9093 64.2954 18.1384 64.1395 18.2969L64.1378 18.2986L60.9094 21.5138L64.5139 27.0785L64.5158 27.0815C64.6234 27.2593 64.6895 27.4845 64.5816 27.6845C64.473 27.8859 64.25 27.9477 64.0464 27.9477H62.2619C62.1257 27.9477 61.9915 27.9271 61.8679 27.8664C61.742 27.8046 61.6427 27.7089 61.5657 27.5843L61.5646 27.5825L58.9484 23.472L57.7321 24.6515V27.2965C57.7321 27.481 57.6784 27.6568 57.5507 27.7865C57.4231 27.9163 57.2502 27.971 57.0687 27.971H55.6732C55.4917 27.971 55.3187 27.9163 55.1911 27.7865C55.0635 27.6568 55.0097 27.481 55.0097 27.2965V18.0394C55.0097 17.8549 55.0635 17.679 55.1911 17.5493ZM74.9803 17.5493C75.1079 17.4195 75.2809 17.3649 75.4624 17.3649H82.7832C82.9647 17.3649 83.1376 17.4195 83.2653 17.5493C83.3929 17.679 83.4467 17.8549 83.4467 18.0394V19.2488C83.4467 19.4334 83.3929 19.6092 83.2653 19.7389C83.1376 19.8687 82.9647 19.9234 82.7832 19.9234H80.4726V27.2965C80.4726 27.481 80.4188 27.6568 80.2912 27.7865C80.1635 27.9163 79.9906 27.971 79.8091 27.971H78.4136C78.2321 27.971 78.0592 27.9163 77.9315 27.7865C77.8039 27.6568 77.7501 27.481 77.7501 27.2965V19.9234H75.4624C75.2809 19.9234 75.1079 19.8687 74.9803 19.7389C74.8527 19.6092 74.7989 19.4334 74.7989 19.2488V18.0394C74.7989 17.8549 74.8527 17.679 74.9803 17.5493ZM72.9458 19.9234V19.9466H73.1746C73.3561 19.9466 73.529 19.892 73.6566 19.7622C73.7843 19.6324 73.838 19.4566 73.838 19.2721V18.0626C73.838 17.8781 73.7843 17.7023 73.6566 17.5725C73.529 17.4428 73.3561 17.3881 73.1746 17.3881H66.4257C66.2442 17.3881 66.0712 17.4428 65.9436 17.5725C65.816 17.7023 65.7622 17.8781 65.7622 18.0626V27.3197C65.7622 27.5042 65.816 27.6801 65.9436 27.8098C66.0712 27.9396 66.2442 27.9942 66.4257 27.9942H73.1517C73.3332 27.9942 73.5061 27.9396 73.6338 27.8098C73.7614 27.68 73.8152 27.5042 73.8152 27.3197V26.1102C73.8152 25.9257 73.7614 25.7499 73.6338 25.6202C73.5061 25.4904 73.3332 25.4357 73.1517 25.4357H68.4618V23.7843H72.4196C72.6011 23.7843 72.774 23.7297 72.9017 23.5999C73.0293 23.4702 73.0831 23.2944 73.0831 23.1098V22.0167C73.0831 21.8321 73.0293 21.6563 72.9017 21.5266C72.774 21.3968 72.6011 21.3422 72.4196 21.3422H68.4618V19.9234H72.9458ZM35.401 20.4148C34.9126 20.9034 34.6028 21.6472 34.6028 22.6679C34.6028 23.6886 34.9126 24.4324 35.401 24.9211C35.8905 25.4109 36.5835 25.6683 37.3939 25.6683C38.2042 25.6683 38.8972 25.4109 39.3868 24.9211C39.8751 24.4324 40.1849 23.6886 40.1849 22.6679C40.1849 21.6472 39.8751 20.9034 39.3868 20.4148C38.8972 19.925 38.2042 19.6675 37.3939 19.6675C36.5835 19.6675 35.8905 19.925 35.401 20.4148ZM25.2001 19.9234H26.2296C26.7174 19.9234 27.2953 19.9916 27.7426 20.154C28.21 20.3237 28.4258 20.5504 28.4258 20.8072C28.4258 21.1225 28.2717 21.3707 27.9209 21.5539C27.5562 21.7445 26.9924 21.8539 26.2296 21.8539H25.2001V19.9234Z" fill="#2D2D2D"/>
<path fill-rule="evenodd" clip-rule="evenodd" d="M88.5254 17.1324C87.5469 17.1324 86.5596 17.3534 85.8096 17.867C85.0491 18.3877 84.5447 19.2026 84.5447 20.3422C84.5447 21.0888 84.7142 21.8109 85.2338 22.4346C85.7496 23.0538 86.588 23.5488 87.8717 23.893C88.1457 23.9678 88.4011 24.0313 88.6317 24.0886C88.7256 24.1119 88.8155 24.1343 88.9007 24.1559C89.2002 24.2319 89.4423 24.2993 89.6342 24.376C89.827 24.4531 89.9473 24.5313 90.0199 24.6159C90.0862 24.6932 90.1269 24.7921 90.1269 24.9475C90.1269 25.1075 90.0862 25.2241 90.0218 25.3141C89.9558 25.4065 89.8538 25.4864 89.7084 25.5517C89.4108 25.6853 88.9761 25.7383 88.4568 25.7383C87.455 25.7383 86.472 25.3599 85.8681 24.9216C85.7267 24.8172 85.5524 24.7304 85.3646 24.7651C85.1666 24.8017 85.04 24.9553 84.9578 25.1226L84.4064 26.267L84.4051 26.27C84.3356 26.4254 84.3004 26.5912 84.3395 26.7554C84.3794 26.9228 84.4867 27.0479 84.6216 27.1399C85.0099 27.4149 85.4322 27.6729 86.0431 27.8595C86.6515 28.0454 87.4359 28.1572 88.5483 28.1572C89.6875 28.1572 90.7705 27.8259 91.5748 27.2449C92.3811 26.6625 92.9179 25.8188 92.9179 24.8079C92.9179 23.8335 92.6227 23.1187 92.0002 22.5759C91.3944 22.0475 90.4977 21.6999 89.3374 21.3962L89.3366 21.396C88.4823 21.1759 87.9717 20.9742 87.6775 20.774C87.5337 20.6761 87.4511 20.5847 87.4033 20.5008C87.3567 20.4189 87.3358 20.331 87.3358 20.2259C87.3358 20.0487 87.423 19.8918 87.6464 19.7667C87.8794 19.6362 88.2477 19.5514 88.7542 19.5514C89.755 19.5514 90.6206 19.9058 91.1531 20.3164C91.2855 20.4236 91.4545 20.514 91.6406 20.4918C91.8412 20.4678 91.9798 20.3251 92.0678 20.1487L92.6357 19.1093C92.7182 18.9684 92.7717 18.8094 92.7466 18.6414C92.7208 18.4683 92.619 18.3329 92.4865 18.2281L92.4805 18.2234L92.4742 18.219C91.6591 17.6584 90.4706 17.1324 88.5254 17.1324ZM95.1142 17.365C94.9327 17.365 94.7598 17.4197 94.6321 17.5495C94.5045 17.6792 94.4507 17.855 94.4507 18.0395V27.2966C94.4507 27.4811 94.5045 27.657 94.6321 27.7867C94.7598 27.9165 94.9327 27.9711 95.1142 27.9711H96.5097C96.6912 27.9711 96.8642 27.9165 96.9918 27.7867C97.1194 27.657 97.1732 27.4811 97.1732 27.2966V24.6451H98.2027C99.5691 24.6451 100.821 24.4286 101.738 23.8482C102.673 23.2565 103.236 22.3014 103.236 20.9004C103.236 19.5195 102.67 18.6148 101.746 18.0709C100.844 17.5395 99.6216 17.365 98.3171 17.365H95.1142ZM105.203 17.365C105.022 17.365 104.849 17.4197 104.721 17.5495C104.594 17.6792 104.54 17.855 104.54 18.0395V27.2966C104.54 27.4811 104.594 27.657 104.721 27.7867C104.849 27.9165 105.022 27.9711 105.203 27.9711H106.599C106.78 27.9711 106.953 27.9165 107.081 27.7867C107.208 27.657 107.262 27.4811 107.262 27.2966V18.0395C107.262 17.855 107.208 17.6792 107.081 17.5495C106.953 17.4197 106.78 17.365 106.599 17.365H105.203ZM97.1732 22.1331V19.9468H98.2027C98.8492 19.9468 99.418 20.0056 99.8181 20.171C100.015 20.2524 100.158 20.3546 100.252 20.476C100.343 20.5941 100.399 20.7445 100.399 20.9469V20.9702C100.399 21.3436 100.233 21.6183 99.8875 21.8135C99.5254 22.018 98.9648 22.1331 98.2027 22.1331H97.1732ZM117.012 17.3884C116.84 17.3884 116.667 17.4322 116.536 17.5538C116.401 17.6787 116.345 17.8531 116.345 18.0397V23.1111L113.016 17.7768L113.016 17.7761C112.942 17.6561 112.846 17.5559 112.724 17.4871C112.601 17.4183 112.464 17.3884 112.319 17.3884H110.351C110.17 17.3884 109.997 17.4431 109.869 17.5728C109.742 17.7026 109.688 17.8784 109.688 18.0629V27.32C109.688 27.5045 109.742 27.6803 109.869 27.8101C109.997 27.9398 110.17 27.9945 110.351 27.9945H111.678C111.86 27.9945 112.033 27.9398 112.16 27.8101C112.288 27.6803 112.342 27.5045 112.342 27.32V21.8021C112.342 21.8021 115.816 27.5191 115.901 27.6372C115.986 27.7553 116.215 27.8958 116.215 27.8958C116.337 27.9646 116.474 27.9945 116.62 27.9945H118.336C118.517 27.9945 118.69 27.9398 118.818 27.8101C118.945 27.6803 118.999 27.5045 118.999 27.32V18.0629C118.999 17.8784 118.945 17.7026 118.818 17.5728C118.69 17.4431 118.517 17.3884 118.336 17.3884L117.012 17.3884Z" fill="#45B9EA"/>
</svg>
