<svg width="120" height="44" viewBox="0 0 120 44" fill="none" xmlns="http://www.w3.org/2000/svg">
<g clip-path="url(#clip0_81669_330524)">
<path d="M19.6154 42C30.4487 42 39.2308 33.0457 39.2308 22C39.2308 10.9543 30.4487 2 19.6154 2C8.78211 2 0 10.9543 0 22C0 33.0457 8.78211 42 19.6154 42Z" fill="black"/>
<mask id="mask0_81669_330524" style="mask-type:luminance" maskUnits="userSpaceOnUse" x="0" y="2" width="39" height="40">
<path d="M19.4476 41.2356C30.0522 41.2356 38.6489 32.4703 38.6489 21.6578C38.6489 10.8452 30.0522 2.0799 19.4476 2.0799C8.84292 2.0799 0.24617 10.8452 0.24617 21.6578C0.24617 32.4703 8.84292 41.2356 19.4476 41.2356Z" fill="white"/>
</mask>
<g mask="url(#mask0_81669_330524)">
<path d="M9.17549 16.8546C8.45936 22.2511 8.25794 27.214 16.4152 31.6521C16.4264 31.6521 16.4264 31.6407 16.4264 31.6407C12.2974 27.9441 8.07891 24.8409 10.798 14.048C9.62308 22.3766 10.619 26.8489 16.9747 30.5682C21.3386 32.85 21.3386 33.3406 22.4016 34.5956C22.4128 34.607 22.424 34.5956 22.4128 34.5842C21.0924 32.542 21.3722 32.5876 17.6796 29.9521C12.3422 26.7234 11.4917 22.7987 12.51 18.0183C11.9841 23.4034 12.8345 26.4496 20.3204 30.6709C20.3315 30.6709 20.3315 30.6595 20.3315 30.6595C18.8657 29.0394 18.0041 28.6287 17.9482 25.6738C17.9482 25.6623 17.9593 25.6623 17.9593 25.6738C19.2238 28.6173 19.2126 28.9025 20.8351 30.3058C21.4169 30.842 21.8309 31.4581 22.603 33.1467C22.603 33.1581 22.6142 33.1467 22.6142 33.1467C22.1331 31.7319 21.6855 30.7964 22.189 28.0925C22.189 28.0811 22.2002 28.0811 22.2002 28.0925C22.1331 29.473 21.9876 30.7165 22.6366 32.3138C22.6366 32.3252 22.6478 32.3138 22.6478 32.3138C22.4576 30.8192 22.6254 29.0851 22.6478 28.8797C22.6478 28.8683 22.659 28.8797 22.659 28.8797C23.0954 30.0662 23.2968 30.5568 23.3527 30.6823C23.3527 30.6937 23.3639 30.6823 23.3639 30.6823C23.2968 29.028 23.252 28.2864 23.4758 27.6703C23.4758 27.6589 23.487 27.6703 23.487 27.6703C23.5318 28.4005 23.543 31.0132 24.3486 32.5078C24.3486 32.5192 24.3598 32.5078 24.3598 32.4963C24.0465 30.3286 23.9346 29.9635 25.1319 27.2368C26.0047 27.9556 27.2803 29.6327 27.0677 31.2414C26.8551 32.85 26.3068 35.2117 25.8816 37.9841C25.8816 37.9955 25.8704 37.9955 25.8592 37.9841C25.255 36.9801 24.5948 36.7063 24.5276 36.6378C24.5276 36.6378 24.5165 36.6378 24.5165 36.6492C25.2774 37.6418 25.5123 37.9042 26.139 39.7639C23.9794 37.1854 22.4464 37.425 18.7762 35.6681C13.4835 33.1238 4.61013 28.6059 9.13073 16.8774C9.1643 16.8432 9.17549 16.8432 9.17549 16.8546Z" fill="url(#paint0_linear_81669_330524)"/>
</g>
<mask id="mask1_81669_330524" style="mask-type:luminance" maskUnits="userSpaceOnUse" x="0" y="2" width="39" height="40">
<path d="M19.4476 41.2356C30.0522 41.2356 38.6489 32.4703 38.6489 21.6578C38.6489 10.8452 30.0522 2.0799 19.4476 2.0799C8.84292 2.0799 0.24617 10.8452 0.24617 21.6578C0.24617 32.4703 8.84292 41.2356 19.4476 41.2356Z" fill="white"/>
</mask>
<g mask="url(#mask1_81669_330524)">
<path d="M9.95877 8.59442C7.26207 14.7097 3.39046 23.4375 10.5182 31.4124C11.4694 32.4735 12.4652 33.5459 13.6178 34.3788C19.8056 38.429 20.3763 37.3451 22.9387 40.5625C21.2491 39.1135 19.9063 38.6343 17.2544 37.482C14.8039 36.421 12.5659 34.915 10.6413 33.0325C10.6301 33.0211 10.619 33.0097 10.6078 32.9983C7.84393 30.2944 6.38928 27.6931 5.81861 24.4986C5.03533 20.0491 6.50117 13.5688 9.95877 8.59442Z" fill="white"/>
</g>
<mask id="mask2_81669_330524" style="mask-type:luminance" maskUnits="userSpaceOnUse" x="0" y="2" width="39" height="40">
<path d="M19.4476 41.2356C30.0522 41.2356 38.6489 32.4703 38.6489 21.6578C38.6489 10.8452 30.0522 2.0799 19.4476 2.0799C8.84292 2.0799 0.24617 10.8452 0.24617 21.6578C0.24617 32.4703 8.84292 41.2356 19.4476 41.2356Z" fill="white"/>
</mask>
<g mask="url(#mask2_81669_330524)">
<path d="M24.785 40.2431C21.5288 37.4022 20.3987 36.9459 14.3003 34.0708C18.7874 36.8888 21.9317 38.0183 24.785 40.2431Z" fill="url(#paint1_linear_81669_330524)"/>
</g>
<path d="M4.76677 15.2573C4.76677 15.2573 -2.13722 27.4763 10.0259 35.3599C0.335681 29.8608 1.46583 20.7222 4.76677 15.2573Z" fill="url(#paint2_linear_81669_330524)"/>
<path d="M23.7108 3.63151C20.8574 3.1181 12.1295 2.65033 8.68314 13.7399C8.68314 13.7513 8.69433 13.7513 8.69433 13.7399C12.8904 4.07646 19.3468 3.55164 23.7108 3.64292C23.722 3.65433 23.722 3.64292 23.7108 3.63151Z" fill="white"/>
<path d="M6.44522 14.0593C8.23556 7.4535 12.5436 5.75356 14.8934 4.12207C13.7185 4.82943 7.78798 6.41528 6.44522 14.0593Z" fill="white"/>
<path d="M14.3451 7.22535C13.808 8.02398 11.212 10.6024 12.5995 15.0177H12.6107C11.7379 10.9675 13.5282 8.78838 14.3451 7.22535C14.3563 7.22535 14.3563 7.21394 14.3451 7.22535Z" fill="white"/>
<path d="M8.44816 15.1546C8.14604 16.0787 6.75853 19.4216 7.28444 22.6161C7.0047 19.5128 7.9782 16.866 8.44816 15.1546Z" fill="white"/>
<path d="M4.05064 19.4558C3.40165 21.5665 2.89811 25.8449 5.69552 29.8608C5.69552 29.8722 5.70671 29.8608 5.70671 29.8494C4.03945 26.5979 3.60306 24.0194 4.06183 19.4558C4.06183 19.4558 4.05064 19.4444 4.05064 19.4558Z" fill="white"/>
<path d="M15.3633 38.7256C16.4711 39.1021 17.9929 40.0491 18.7426 40.6766C18.1384 39.7296 16.639 38.8055 15.5536 38.3491C13.103 37.2995 12.1743 35.9418 9.07478 33.5916C10.6525 35.2915 11.7715 37.5048 15.3633 38.7256Z" fill="white"/>
<path d="M4.96819 18.6001C5.52767 14.0365 6.57949 11.5607 9.11953 8.06958C7.62013 9.43866 5.0577 12.907 4.96819 18.6001Z" fill="white"/>
<path d="M9.265 16.5579C9.99232 11.789 11.2232 9.35883 14.1549 6.16431C12.4317 7.30521 9.4776 10.4655 9.265 16.5579Z" fill="white"/>
<path d="M11.2344 5.17169C9.38809 6.86022 5.71789 8.45748 3.43521 14.9492C3.43521 14.9606 3.4464 14.9492 3.4464 14.9492C6.91518 8.06958 7.56418 8.65144 11.0889 5.34282C11.1001 5.33141 11.2456 5.16028 11.2344 5.17169Z" fill="white"/>
<path d="M29.8875 7.21393C28.3545 6.11866 25.0759 4.69253 20.9805 7.39647C24.315 5.79921 26.4299 5.76498 29.8875 7.21393Z" fill="url(#paint3_linear_81669_330524)"/>
<path d="M16.0683 37.7102C6.85923 31.9373 5.58361 28.1381 4.99056 20.939C4.99056 20.9276 4.97937 20.9276 4.97937 20.939C5.34863 27.8186 4.2968 33.0325 16.0683 37.7102Z" fill="url(#paint4_linear_81669_330524)"/>
<path d="M16.2249 20.551C16.2249 20.551 9.08597 10.4427 19.0335 5.1717C26.6537 1.86309 33.9045 6.84882 35.2473 12.2339C35.0235 10.9903 29.5965 1.28123 19.9399 6.8146C15.4641 9.38163 15.1619 15.0975 17.646 17.6303" fill="url(#paint5_radial_81669_330524)"/>
<path d="M20.3763 24.6355C22.564 24.6355 24.3374 22.8273 24.3374 20.5967C24.3374 18.3661 22.564 16.5579 20.3763 16.5579C18.1886 16.5579 16.4152 18.3661 16.4152 20.5967C16.4152 22.8273 18.1886 24.6355 20.3763 24.6355Z" fill="url(#paint6_linear_81669_330524)"/>
<path opacity="0.2" d="M20.3763 24.6355C22.564 24.6355 24.3374 22.8273 24.3374 20.5967C24.3374 18.3661 22.564 16.5579 20.3763 16.5579C18.1886 16.5579 16.4152 18.3661 16.4152 20.5967C16.4152 22.8273 18.1886 24.6355 20.3763 24.6355Z" fill="url(#paint7_radial_81669_330524)"/>
<path d="M25.1654 21.1101C25.2214 21.4067 25.255 20.5054 25.255 20.186C25.255 17.5847 23.1849 15.4741 20.6336 15.4741C19.3692 15.4741 18.2167 15.9875 17.3887 16.8317L17.8586 17.4706C18.4852 16.8089 23.8003 14.2419 25.1654 21.1101Z" fill="url(#paint8_linear_81669_330524)"/>
<path d="M20.712 25.8334C17.646 25.8334 15.1507 23.2892 15.1507 20.1631C15.1507 20.0833 15.2179 20.0262 15.285 20.0262C15.3522 20.0262 15.4193 20.0947 15.4193 20.1631C15.4193 23.1295 17.7915 25.5482 20.7008 25.5482C23.6101 25.5482 25.9823 23.1295 25.9823 20.1631C25.9823 17.1968 23.6101 14.7781 20.7008 14.7781C19.5483 14.7781 18.4517 15.1546 17.5341 15.8619C17.4446 15.9304 17.3551 16.0103 17.2656 16.0901C17.2096 16.1358 17.1201 16.1358 17.0642 16.0787C17.0194 16.0217 17.0194 15.9304 17.0754 15.8733C17.1649 15.7935 17.2656 15.7136 17.3551 15.6338C18.3286 14.8922 19.4811 14.4929 20.6896 14.4929C23.7556 14.4929 26.2508 17.0371 26.2508 20.1631C26.2732 23.3006 23.7779 25.8334 20.712 25.8334Z" fill="url(#paint9_linear_81669_330524)"/>
<path d="M3.30093 15.4741C3.30093 15.4741 -1.61131 28.9823 6.83685 34.2647C11.1784 37.3908 11.5589 37.8814 11.7603 39.9578C11.6372 39.3075 11.0665 37.482 8.14604 35.7136C5.1696 33.911 3.39045 32.4963 2.12602 29.4729C0.861596 26.4495 1.60011 19.4558 3.30093 15.4741Z" fill="white"/>
<path d="M4.78916 10.3514C2.6967 13.6372 1.06302 17.3907 0.973502 21.3611C0.973502 21.6919 0.995881 22.2053 1.00707 22.5476C1.00707 24.7153 1.43228 26.8602 2.19317 28.8796C4.43109 34.8351 9.3881 38.6343 15.1284 40.745C12.9016 40.0262 10.7532 39.0336 8.80624 37.6988C5.67314 35.5539 3.24499 32.6104 1.87986 29.0051C1.10778 26.9515 0.682571 24.761 0.704951 22.559C0.704951 22.2168 0.682571 21.7033 0.682571 21.3611C0.816847 17.3565 2.54005 13.5687 4.78916 10.3514Z" fill="white"/>
<path d="M30.3351 7.8186C31.7002 9.24473 32.6513 11.7205 32.8975 13.0896L33.1772 13.0211C33.2332 15.2116 33.7255 15.8391 36.5453 17.2082C36.6908 17.2767 36.7691 17.425 36.7579 17.5847C36.7355 17.9042 36.6236 18.486 36.1089 19.2504C36.0865 19.2847 36.0865 19.3417 36.1089 19.3759C36.176 19.49 36.4446 19.8665 37.0041 19.9692C36.8138 20.1175 35.818 20.3343 35.6054 21.0531C35.9299 20.6652 36.4446 20.3001 37.0488 20.1289C37.1607 20.3571 37.2614 20.7907 36.7579 21.1443C36.59 21.2698 36.4446 21.3611 36.2208 21.4752C35.9634 21.6121 35.9299 21.6235 35.4711 21.7148C35.3368 21.7376 35.2025 21.749 35.0683 21.7376C34.9676 21.7262 34.8557 21.7262 34.6654 21.7034C35.1802 21.8973 35.9075 21.8175 36.1984 21.7034C36.7355 21.4866 36.9817 21.4181 37.2838 21.7034C37.3845 21.8061 37.4405 21.9544 37.4628 22.1027C37.4964 22.4107 37.3398 22.8671 35.6837 22.4336C36.3215 22.753 36.9929 22.8215 36.9593 22.9584C36.9593 22.9584 36.4446 23.2664 36.9929 23.8711C37.5412 24.4758 37.8545 25.5596 36.5453 26.2099C35.2137 26.4609 29.8763 27.3737 28.1978 27.1455C26.911 26.9857 25.5571 26.4381 25.5571 26.4381C26.7432 23.0953 29.4623 21.0645 27.616 17.4592C28.9475 15.5653 29.1042 14.8694 29.1378 12.6446C29.1378 12.6446 29.4734 14.4244 29.2161 15.3257C29.8427 14.6868 30.4246 14.0593 32.7632 14.7895C32.808 14.5157 32.8863 14.0822 32.7856 13.9452C32.4835 13.8654 31.3645 13.6714 31.3645 13.6714C31.3085 12.7701 31.3085 12.3138 30.9169 11.1386C31.3645 11.8916 31.7897 13.1466 31.8233 13.5459C32.2261 13.4204 32.7408 13.2379 32.6737 13.1922C32.1366 11.0816 31.8792 9.80377 30.3351 7.8186Z" fill="white"/>
<path d="M32.3156 15.5768C32.3156 15.5768 32.3604 15.862 32.3827 16.3412C32.3939 16.5465 32.2149 16.6949 32.0359 16.7747C31.2302 17.117 29.977 17.0143 28.8356 16.809C30.1896 18.1096 32.3716 18.623 33.6248 16.9573C32.5953 17.2539 32.5953 16.6264 32.3156 15.5768Z" fill="black"/>
<path d="M28.8692 16.5351L30.0889 15.1888C30.0889 15.1888 29.1601 15.8049 28.8692 16.5351Z" fill="black"/>
<path d="M34.6319 22.0114C34.643 21.9316 34.7437 21.6692 34.8109 21.4752C34.6095 21.6692 34.643 21.9202 34.6319 22.0114Z" fill="black"/>
<path d="M119.662 26.1415C119.583 26.016 119.472 25.9133 119.348 25.8334C119.27 25.7079 119.158 25.6052 119.035 25.5254C118.957 25.3999 118.845 25.2972 118.722 25.2173C118.644 25.0918 118.532 24.9891 118.409 24.9093C118.196 24.5898 117.838 24.3959 117.435 24.3959C117.368 24.3959 117.312 24.3959 117.245 24.4073C117.088 23.9281 116.842 23.5288 116.484 23.1979C116.462 23.1751 116.439 23.1523 116.406 23.1295C116.327 23.0382 116.249 22.9583 116.171 22.8785C116.148 22.8557 116.126 22.8328 116.092 22.81C116.014 22.7188 115.936 22.6389 115.857 22.559C115.835 22.5362 115.813 22.5134 115.779 22.4906C115.701 22.3993 115.622 22.3194 115.544 22.2396C115.522 22.2168 115.499 22.1939 115.466 22.1711C115.387 22.0799 115.309 22 115.231 21.9201C114.582 21.3269 113.854 21.0188 113.082 21.0188C111.661 21.0188 110.486 21.5893 109.569 22.6959C109.323 22.3423 109.155 21.498 109.11 20.9618L109.132 20.745C109.144 20.6537 109.144 20.551 109.144 20.4598C109.144 19.798 108.897 19.1934 108.427 18.7142C108.371 18.6571 108.327 18.6115 108.271 18.5659C108.226 18.5088 108.17 18.4518 108.125 18.3947C108.069 18.3377 108.025 18.2921 107.969 18.2464C107.924 18.1894 107.868 18.1323 107.823 18.0753C107.767 18.0182 107.722 17.9726 107.666 17.927C107.622 17.8699 107.566 17.8129 107.521 17.7558C107.465 17.6988 107.42 17.6532 107.364 17.6075C107.32 17.5505 107.264 17.4934 107.219 17.4364C106.693 16.9002 106.033 16.6378 105.25 16.6378C105.048 16.6378 104.847 16.6606 104.668 16.7062H104.623L104.522 16.7176C104.052 16.8431 103.605 17.0713 103.191 17.3793C103.09 17.2538 102.978 17.1397 102.866 17.0371C102.765 16.923 102.665 16.8203 102.553 16.7176C102.452 16.6035 102.351 16.5008 102.24 16.3982C102.139 16.2841 102.038 16.1814 101.926 16.0787C101.613 15.7136 101.232 15.4284 100.807 15.2459C100.281 15.0177 99.845 14.9036 99.4757 14.9036C97.2602 14.9036 95.3467 16.1358 93.7802 18.5773C92.3479 20.8134 91.0723 23.1865 89.9869 25.6395C89.7072 26.2555 89.4274 26.8374 89.1589 27.385C89.5281 25.8791 89.9086 24.3959 90.3002 22.9583C90.5576 22.0114 90.7814 21.1557 90.9716 20.4141L90.9828 20.3799C91.0611 20.0262 91.0947 19.684 91.0947 19.3759C91.0947 18.4746 90.7702 17.7216 90.1547 17.1854C90.0652 17.0713 89.9533 16.9686 89.8414 16.8659C89.7519 16.7518 89.64 16.6492 89.5281 16.5465C89.4386 16.4324 89.3267 16.3297 89.2148 16.227C89.1029 16.1015 88.991 15.976 88.8568 15.8619C88.0735 15.223 87.0776 14.8922 85.9027 14.8922H85.8691L85.0299 14.972C84.4369 15.0405 83.7431 15.2116 82.971 15.4969C82.1542 15.7935 81.3933 16.2727 80.6995 16.9344C79.961 17.6303 79.4575 18.5887 79.1889 19.7752L79.1777 19.8095C79.133 20.0947 79.0994 20.3571 79.0882 20.6081C79.0435 20.5739 78.9987 20.551 78.9539 20.5168C78.428 20.2088 77.8797 20.049 77.3314 20.049H76.6601L76.537 20.688C76.4587 21.1101 76.3579 21.5208 76.246 21.9201C76.1789 21.8403 76.0894 21.7604 76.0111 21.6919C75.9216 21.5779 75.8097 21.4752 75.6978 21.3725C75.6082 21.2584 75.4963 21.1557 75.3844 21.053C75.2166 20.8363 75.004 20.6537 74.7578 20.5054C74.2431 20.186 73.6948 20.0376 73.1577 20.0376H72.7101L72.0499 19.5927C72.0499 19.5242 72.0611 19.4558 72.0611 19.3987C72.0611 18.7598 71.815 18.1666 71.3674 17.7102C71.3114 17.6532 71.2443 17.5847 71.1772 17.5391C71.1324 17.4934 71.0988 17.4478 71.0541 17.4022C70.9981 17.3451 70.931 17.2767 70.8638 17.231C70.8191 17.1854 70.7855 17.1397 70.7408 17.0941C70.6848 17.0371 70.6177 16.9686 70.5505 16.923C70.5058 16.8773 70.4722 16.8317 70.4274 16.7861C70.3715 16.729 70.3044 16.6606 70.2372 16.6149C70.1925 16.5693 70.1589 16.5237 70.1141 16.478C69.5882 15.9304 68.928 15.6566 68.1448 15.6566C67.921 15.6566 67.686 15.6908 67.4174 15.7593C66.153 16.1129 65.0564 17.1512 64.1501 18.8397C63.557 19.935 63.0871 21.0987 62.7178 22.2966C62.7066 22.2852 62.7066 22.2852 62.6954 22.2738C62.6507 22.2282 62.5947 22.1825 62.55 22.1369C62.494 22.0684 62.4381 22.0114 62.3821 21.9544C62.3374 21.9087 62.2814 21.8631 62.2366 21.8174C62.1807 21.749 62.1248 21.6919 62.0688 21.6349C62.024 21.5893 61.9681 21.5436 61.9233 21.498C61.8674 21.4295 61.8114 21.3725 61.7555 21.3154C61.7107 21.2698 61.6548 21.2242 61.61 21.1785C61.5541 21.1101 61.4981 21.053 61.4422 20.996C60.8156 20.3685 60.0994 20.0605 59.3273 20.0605C57.6489 20.0605 56.3062 20.8591 55.3438 22.4335C55.2431 22.2966 55.1201 22.1597 54.9746 22.0456C54.8851 21.9315 54.7732 21.8289 54.6613 21.7262C54.5718 21.6121 54.4599 21.5094 54.348 21.4067C54.2585 21.2926 54.1466 21.1899 54.0347 21.0873C53.8668 20.8705 53.6542 20.688 53.408 20.5396C52.8933 20.2316 52.345 20.0719 51.8079 20.0719H51.3827L51.1477 20.437C51.0247 20.6309 50.8904 20.8705 50.7337 21.1671L50.7225 21.1899C50.6666 21.2926 50.6218 21.4067 50.5547 21.5094L50.5435 21.5322L50.5323 21.555C50.4987 21.6349 50.454 21.7262 50.4092 21.8174C50.3421 21.9429 50.2861 22.0684 50.219 22.1939C50.1631 22.1369 50.1071 22.0913 50.0512 22.0342C49.9616 21.9201 49.8497 21.8174 49.7378 21.7148C49.6483 21.6007 49.5364 21.498 49.4245 21.3953C49.335 21.2812 49.2231 21.1785 49.1112 21.0759C48.9881 20.9275 48.8539 20.7906 48.6972 20.6651C48.9098 20.5054 49.1224 20.3343 49.3126 20.1631C50.2526 19.3075 50.7225 18.429 50.7225 17.5505C50.7225 16.6149 50.3421 16.0787 49.9728 15.7935C49.8721 15.668 49.7714 15.5653 49.6595 15.474C49.5588 15.3485 49.4581 15.2459 49.3462 15.1546C49.2455 15.0291 49.1448 14.9264 49.0329 14.8351C48.8091 14.5499 48.5517 14.3902 48.3615 14.2875C47.802 14.0137 47.3097 13.8882 46.8509 13.8882C46.3922 13.8882 45.911 13.9909 45.3963 14.1848C45.0046 14.3331 44.6354 14.5613 44.2885 14.8579L44.2997 14.8465C44.4675 14.5271 43.2702 13.8768 43.2702 13.8768H41.9611C40.7302 13.8768 39.6896 14.2304 38.8727 14.9378C38.0223 15.668 37.5635 16.6035 37.5188 17.733V17.7444V17.7558C37.5188 19.0108 37.9552 19.7638 38.4923 20.2088C38.5706 20.3115 38.6601 20.4027 38.7496 20.4826L37.7761 27.0656C37.5188 26.9743 37.2838 26.9287 37.0824 26.9173C36.5341 26.8945 36.3998 26.8945 36.3439 26.8945C35.5494 26.8945 34.8892 27.077 34.3745 27.4421L34.3633 27.4535L34.3521 27.4649C33.4793 28.1494 33.0094 28.8454 32.931 29.587C32.8527 30.2943 32.8415 30.5225 32.8415 30.6366C32.8415 31.5037 33.1101 32.3251 33.6248 33.0553C33.7703 33.2721 33.9493 33.466 34.1395 33.6258C34.2402 33.7399 34.3409 33.8425 34.4528 33.9452C34.5535 34.0593 34.6542 34.162 34.7661 34.2647C34.8668 34.3788 34.9675 34.4814 35.0794 34.5841C35.7396 35.3599 36.6908 35.7478 37.9104 35.7478C39.0965 35.7478 40.2155 35.2573 41.2337 34.2875C41.424 34.4929 41.6254 34.6868 41.8156 34.8808C41.9163 34.9834 42.0282 35.0975 42.1289 35.2002C42.2296 35.3029 42.3303 35.417 42.4422 35.5197C42.5429 35.6223 42.6548 35.7364 42.7555 35.8391C43.0465 36.1358 43.3374 36.4324 43.6283 36.7062C44.6689 37.7102 45.911 38.3035 47.3209 38.4632C47.5223 38.486 47.7125 38.4974 47.9027 38.4974C49.1112 38.4974 50.0847 38.0753 50.7897 37.2424C51.4722 36.4438 51.8191 35.6109 51.8191 34.7781C51.8191 34.6526 51.8079 34.5157 51.7967 34.3788C51.7408 33.968 51.6177 33.6258 51.4387 33.3405C51.5618 33.352 51.6848 33.3634 51.8191 33.3634H51.8303H51.8415C52.7031 33.3291 53.5423 32.9184 54.3368 32.1312C54.583 31.8802 54.8291 31.6178 55.0641 31.3326C55.1312 31.401 55.1984 31.4695 55.2767 31.5379C55.3774 31.652 55.4781 31.7547 55.59 31.8574C55.6907 31.9715 55.7914 32.0741 55.9033 32.1768C56.5635 32.9526 57.5594 33.352 58.8574 33.352C60.0211 33.352 61.2296 32.7473 62.55 31.5151C62.6171 31.5836 62.6842 31.652 62.7514 31.7091C62.8521 31.8346 62.9528 31.9372 63.0647 32.0285C63.1654 32.154 63.2661 32.2567 63.378 32.348C63.4787 32.4735 63.5794 32.5761 63.6913 32.6674C64.1501 33.2493 64.7207 33.3748 65.1348 33.3748C65.504 33.3748 65.8397 33.3063 66.1306 33.1808C66.3544 33.0781 66.5335 32.9869 66.6901 32.8842L66.7125 32.8728L67.1265 32.656C67.1601 32.6788 67.1825 32.713 67.216 32.7359C67.7867 33.3976 68.5252 33.7627 69.3532 33.7855C69.2637 34.0365 69.219 34.2989 69.219 34.5841C69.219 34.8922 69.2749 35.2002 69.3868 35.5197C69.4875 35.8163 69.7001 36.227 70.0918 36.5579C70.1813 36.672 70.282 36.7747 70.4051 36.8773C70.4946 36.9914 70.5953 37.0941 70.7184 37.1968C70.8079 37.3109 70.9086 37.4136 71.0317 37.5162C71.3898 37.9726 72.0164 38.3833 73.0794 38.3833C75.5747 38.3833 77.4545 36.7062 78.6742 33.409C79.7708 30.4198 80.61 27.4535 81.1807 24.6126C81.2142 24.4986 81.2366 24.3731 81.2702 24.259C81.7178 24.6583 82.143 24.8522 82.5794 24.8522C82.8927 24.8522 83.0605 24.8522 83.0717 24.8522C83.2619 24.8522 83.4522 24.8408 83.6424 24.8066C83.2396 26.9401 83.027 28.8568 83.027 30.4769C83.027 30.8876 83.0381 31.2983 83.0717 31.6862C83.1612 33.2379 83.6424 34.1278 84.2354 34.6412C84.3361 34.7553 84.4369 34.8694 84.5487 34.9606C84.6495 35.0747 84.7502 35.1888 84.8621 35.2801C84.9628 35.3942 85.0635 35.5083 85.1754 35.5995C85.8356 36.3982 86.7307 36.5579 87.3573 36.5579C88.7225 36.5579 90.0205 35.725 91.2178 34.0821C91.822 33.2493 92.4374 32.3251 93.0529 31.3211C93.1759 31.7775 93.4109 32.154 93.7466 32.4278C93.8361 32.5419 93.9368 32.656 94.0599 32.7473C94.1494 32.8614 94.2501 32.9755 94.3732 33.0667C94.4627 33.1808 94.5634 33.2949 94.6865 33.3862C95.1006 33.9224 95.7719 34.219 96.6447 34.219H96.6559H96.6671C97.5399 34.1848 98.3791 33.7741 99.1736 32.9983C99.3526 32.8271 99.5205 32.6446 99.6995 32.462C99.7331 32.4963 99.7778 32.5305 99.8226 32.5647C99.9233 32.6902 100.024 32.7929 100.136 32.8842C100.237 33.0097 100.337 33.1124 100.449 33.2036C100.55 33.3291 100.651 33.4318 100.763 33.5231C101.221 34.1049 101.803 34.2304 102.217 34.2304C102.586 34.2304 102.944 34.162 103.28 34.0137C103.649 34.162 104.052 34.2304 104.477 34.2304C106.055 34.2304 107.387 33.409 108.439 31.8117C108.528 31.9144 108.618 32.0057 108.718 32.097C108.819 32.2111 108.92 32.3137 109.032 32.4164C109.132 32.5305 109.233 32.6332 109.345 32.7359C109.446 32.85 109.546 32.9526 109.658 33.0553C110.318 33.8311 111.326 34.2419 112.646 34.2419C113.866 34.2419 115.13 33.603 116.517 32.2909C117.815 31.0587 118.912 29.3702 119.785 27.2481C119.897 26.8488 119.863 26.4609 119.662 26.1415Z" fill="#070707"/>
<path d="M42.0058 14.6982C41.603 15.4512 41.4016 16.0787 41.4016 16.5693C41.4016 16.7975 41.4911 17.0827 41.6701 17.4364C41.8492 17.7901 42.3079 17.9954 43.0353 18.0525L43.2031 17.7216C43.3038 17.4935 43.4269 17.2881 43.5388 17.1055C44.199 15.9761 44.9263 15.2573 45.732 14.9492C46.146 14.7895 46.5376 14.7097 46.9069 14.7097C47.2425 14.7097 47.6342 14.8123 48.0818 15.0291C48.5294 15.2459 48.742 15.668 48.742 16.2955C48.742 16.9458 48.3615 17.6189 47.5894 18.3149C46.8285 19.0108 45.8327 19.5699 44.6018 20.0034C44.4228 20.6423 44.2325 21.3155 44.0535 22.0228C43.3709 24.9778 42.431 27.6931 41.2337 30.146H41.2673C41.838 30.6024 42.6212 31.1843 43.6395 31.903C44.6466 32.6218 45.6201 33.0097 46.5376 33.0782C46.6159 33.0896 46.6831 33.0896 46.7614 33.0896C47.567 33.0896 48.216 32.7587 48.7196 32.1084C49.335 32.1312 49.6931 32.5077 49.7938 33.2379C49.805 33.3406 49.8162 33.4318 49.8162 33.5345C49.8162 34.1734 49.5364 34.8237 48.9769 35.4741C48.4175 36.1244 47.6566 36.4552 46.6831 36.4552C46.5152 36.4552 46.3586 36.4438 46.1907 36.421C44.9487 36.2727 43.8633 35.7593 42.9457 34.8694C42.017 33.9795 41.1218 33.0211 40.2378 31.9943C40.1819 31.9373 40.126 31.8802 40.07 31.8232C39.0294 33.0668 37.9104 33.6942 36.7019 33.6942C35.6053 33.6942 34.8109 33.3292 34.3074 32.6104C33.8821 32.0171 33.6695 31.3668 33.6695 30.6595C33.6695 30.5225 33.7031 30.2031 33.7591 29.7011C33.815 29.1991 34.1955 28.6743 34.878 28.1267C35.2473 27.8642 35.762 27.7273 36.3998 27.7273C36.4669 27.7273 36.7019 27.7387 37.1048 27.7502C37.5076 27.7616 38.1454 28.0468 39.0182 28.583C40.0252 26.7005 40.8757 24.5556 41.5806 22.1597C41.7708 21.5665 41.9722 20.9846 42.1625 20.4256C42.0506 20.437 41.9387 20.437 41.8268 20.437C41.1218 20.437 40.3721 20.2772 39.5665 19.9464C38.7608 19.6155 38.358 18.8968 38.358 17.7901C38.3916 16.8888 38.7496 16.1472 39.4322 15.5653C40.1036 14.9949 40.9652 14.6982 42.0058 14.6982ZM36.2879 29.1877C35.8627 29.1991 35.583 29.3132 35.4487 29.5528C35.3816 29.6555 35.3592 29.7695 35.3592 29.8722C35.3592 30.0091 35.4263 30.1803 35.5606 30.3742C35.6949 30.5682 36.0194 30.6709 36.5117 30.6709C36.9481 30.6709 37.4181 30.4427 37.9328 29.9749C37.3509 29.4615 36.8026 29.1877 36.2879 29.1877ZM47.0523 15.8506C46.6719 15.8506 46.3474 16.0559 46.0676 16.4552C45.7879 16.8545 45.5641 17.2881 45.3739 17.7559C45.8103 17.6075 46.2131 17.4136 46.5824 17.1854C46.8173 17.0371 46.9852 16.866 47.0859 16.672C47.1866 16.478 47.2425 16.3069 47.2425 16.1586C47.2425 16.1472 47.2425 16.1016 47.2425 16.0217C47.2425 15.919 47.1754 15.8734 47.0523 15.8506Z" fill="white"/>
<path d="M46.9292 20.8705C47.3321 20.8705 47.7237 20.996 48.1265 21.2356C48.5293 21.4752 48.7755 21.8289 48.865 22.2853C48.8203 22.4108 48.7643 22.5363 48.7196 22.6618C48.3839 23.4718 48.0482 24.3503 47.7013 25.2972C47.3544 26.2442 47.1083 27.0656 46.9628 27.7616C46.918 27.9784 46.8845 28.1723 46.8845 28.3206C46.8845 28.6515 46.9964 28.8226 47.2202 28.8226C47.4216 28.8226 47.7461 28.4461 48.216 27.6931C48.6748 26.9401 49.1783 26.0502 49.7043 25.0348C50.2302 24.0194 50.7113 23.0725 51.1477 22.2054C51.1925 22.1027 51.2484 22.0114 51.2932 21.9088C51.3603 21.7947 51.4163 21.6692 51.4722 21.5551C51.6177 21.2699 51.7408 21.0531 51.8415 20.882C52.2443 20.882 52.6359 21.0075 53.0388 21.247C53.4416 21.4866 53.6878 21.8403 53.7773 22.2967C53.4416 23.0953 53.0835 23.9966 52.7031 25.0006C52.3226 26.0046 52.0429 26.8945 51.875 27.6589C51.8191 27.9213 51.7855 28.1381 51.7855 28.3092C51.7855 28.6515 51.8974 28.8112 52.1212 28.8112C52.4681 28.8112 52.9381 28.4005 53.5199 27.5676C54.1018 26.7348 54.6501 25.7992 55.1536 24.761H56.1047L55.6124 25.765C55.2879 26.4381 54.8627 27.2025 54.3256 28.0582C53.7885 28.9139 53.1954 29.6669 52.5464 30.3172C51.8974 30.9675 51.2372 31.2984 50.5659 31.3326C49.4581 31.3326 48.9098 30.7736 48.9098 29.6441C48.9098 29.5756 48.9098 29.4958 48.921 29.4159C48.921 29.0736 48.9546 28.7085 49.0329 28.3092C48.4734 29.1649 47.9139 29.8837 47.3321 30.4655C46.7502 31.036 46.1907 31.3326 45.6648 31.3326C44.557 31.3326 44.0087 30.7736 44.0087 29.6441C44.0087 29.5756 44.0087 29.4958 44.0199 29.4159C44.0199 28.0468 44.3892 26.4724 45.1277 24.7154C45.8774 22.947 46.4816 21.6692 46.9292 20.8705Z" fill="white"/>
<path d="M59.3497 20.8591C59.9204 20.8591 60.4463 21.0987 60.9275 21.5665C61.3974 22.0228 61.6324 22.7416 61.6324 23.7114V23.7456C61.5988 24.2248 61.4646 24.5671 61.2296 24.7724C60.9946 24.9778 60.7596 25.0805 60.5246 25.0805C60.2001 25.0805 59.9875 24.9664 59.8868 24.7268C59.8421 24.6127 59.8085 24.4872 59.8085 24.3617C59.8085 24.2362 59.8421 24.0765 59.9204 23.8939C59.9987 23.7 60.1889 23.5631 60.4799 23.4718C60.3456 23.2436 60.1666 23.1295 59.9428 23.1295C59.7973 23.1295 59.5511 23.2208 59.2266 23.3919C58.891 23.5631 58.5329 24.0537 58.1412 24.8409C57.7832 25.6509 57.593 26.3925 57.593 27.0542C57.593 27.271 57.6377 27.6475 57.7384 28.1609C57.8279 28.6743 58.186 28.9709 58.8014 29.0394C58.8686 29.0508 58.9245 29.0508 58.9917 29.0508C60.1442 29.0508 61.4869 27.6133 63.0087 24.7268H63.9598C63.143 26.769 62.1359 28.3777 60.9275 29.5414C59.719 30.7051 58.6224 31.287 57.6265 31.287C55.8138 31.287 54.7955 30.4199 54.6053 28.6743C54.5718 28.3663 54.5494 28.0582 54.5494 27.7502C54.5494 26.324 54.9634 24.8066 55.8026 23.2208C56.653 21.6464 57.8279 20.8591 59.3497 20.8591Z" fill="white"/>
<path d="M68.156 16.4324C68.7266 16.4324 69.1966 16.6264 69.5658 17.0143C69.8792 17.3337 70.0358 17.7102 70.0358 18.1438C70.0358 18.2351 70.0246 18.3263 70.0134 18.4176C68.9504 18.7256 68.0553 19.2961 67.3615 20.1518C66.6566 20.996 66.1306 21.8745 65.7726 22.7758C65.4145 23.6772 65.2243 24.3617 65.1795 24.8181C66.0635 23.0383 67.0818 21.8745 68.2231 21.3155C68.8273 21.0303 69.3309 20.8819 69.7449 20.8819C70.0358 20.8819 70.282 20.9504 70.4834 21.0873C70.931 21.3954 71.1436 21.7947 71.1436 22.2853C71.1436 22.3423 71.1212 22.5363 71.0876 22.8557C71.0541 23.1866 70.7072 23.4604 70.0358 23.7C69.9463 23.449 69.7337 23.2893 69.4092 23.2208C69.3421 23.2094 69.2637 23.198 69.1966 23.198C68.928 23.198 68.6371 23.2893 68.3126 23.4604C67.4622 24.0308 66.7237 24.9093 66.1194 26.0959C66.3768 27.0428 66.7796 27.773 67.3279 28.2978C67.7084 28.6743 68.1895 28.8683 68.7714 28.8683C69.0064 28.8683 69.2525 28.834 69.5211 28.7656C69.8232 29.1307 69.9687 29.53 69.9687 29.9521C69.9687 30.1689 69.8903 30.5226 69.7225 30.9903C69.5547 31.4581 69.0399 31.6977 68.1671 31.6977C67.4174 31.6977 66.802 31.344 66.3209 30.6367C65.8397 29.9293 65.4928 29.1307 65.269 28.2408C65.1012 28.8683 65.0117 29.4958 65.0117 30.1461C65.0117 30.3971 65.0229 30.6481 65.0452 30.9105C65.0341 30.9219 65.0229 30.9219 65.0117 30.9333C64.8886 31.0132 64.7319 31.093 64.5417 31.1729C64.3515 31.2527 64.1277 31.2984 63.8703 31.2984C63.0871 31.2984 62.6395 30.591 62.5164 29.1649C62.494 28.8797 62.4828 28.583 62.4828 28.275C62.4828 27.077 62.673 25.6281 63.0423 23.9624C63.4116 22.2853 64.0046 20.6994 64.7991 19.2048C65.6047 17.7102 66.5335 16.8089 67.5853 16.5123C67.8315 16.4667 68.0105 16.4324 68.156 16.4324Z" fill="white"/>
<path d="M73.1689 20.8705C73.5717 20.8705 73.9745 20.996 74.3774 21.2356C74.769 21.4752 75.0152 21.8289 75.1159 22.2853C75.0711 22.4108 75.0152 22.5363 74.9704 22.6732C74.6347 23.4832 74.2879 24.3617 73.941 25.3087C73.5941 26.2556 73.3479 27.077 73.2025 27.773C73.1577 27.9898 73.1353 28.1723 73.1353 28.3206C73.1353 28.6515 73.2472 28.8226 73.4598 28.8226C73.6948 28.8226 74.0752 28.4347 74.6012 27.6475C75.1271 26.8603 75.653 25.8677 76.1565 24.6697C76.6712 23.4718 77.0517 22.2054 77.309 20.8934C77.7231 20.8934 78.1371 21.0189 78.5399 21.2585C78.9427 21.498 79.2225 21.8517 79.3903 22.3081C79.3232 22.5933 79.256 22.8899 79.1889 23.198C78.6294 26.0274 77.8014 28.9253 76.716 31.8917C75.6306 34.858 74.0081 36.3412 71.8597 36.3412C70.9645 36.3412 70.3939 35.9875 70.1589 35.2915C70.0806 35.0519 70.0358 34.8352 70.0358 34.6184C70.0358 34.1849 70.1925 33.7741 70.5169 33.409C70.7967 33.4661 71.0541 33.5003 71.3002 33.5003C72.2961 33.5003 73.1689 32.9983 73.941 31.9829C74.7131 30.9675 75.3285 29.6098 75.8096 27.9213C75.3173 28.8797 74.7466 29.7011 74.0864 30.3628C73.4374 31.0246 72.7101 31.3554 71.9268 31.3554C70.8191 31.3554 70.2708 30.785 70.2708 29.6441C70.2708 29.5756 70.2708 29.5072 70.282 29.4387C70.282 28.0696 70.6512 26.4952 71.3897 24.7382C72.1171 22.947 72.7101 21.6692 73.1689 20.8705Z" fill="white"/>
<path d="M42.0058 14.6982C41.603 15.4512 41.4016 16.0787 41.4016 16.5693C41.4016 16.7975 41.4911 17.0827 41.6701 17.4364C41.8492 17.7901 42.3079 17.9954 43.0353 18.0525L43.2031 17.7216C43.3038 17.4935 43.4269 17.2881 43.5388 17.1055C44.199 15.9761 44.9263 15.2573 45.732 14.9492C46.146 14.7895 46.5376 14.7097 46.9069 14.7097C47.2425 14.7097 47.6342 14.8123 48.0818 15.0291C48.5294 15.2459 48.742 15.668 48.742 16.2955C48.742 16.9458 48.3615 17.6189 47.5894 18.3149C46.8285 19.0108 45.8327 19.5699 44.6018 20.0034C44.4228 20.6423 44.2325 21.3155 44.0535 22.0228C43.3709 24.9778 42.431 27.6931 41.2337 30.146H41.2673C41.838 30.6024 42.6212 31.1843 43.6395 31.903C44.6466 32.6218 45.6201 33.0097 46.5376 33.0782C46.6159 33.0896 46.6831 33.0896 46.7614 33.0896C47.567 33.0896 48.216 32.7587 48.7196 32.1084C49.335 32.1312 49.6931 32.5077 49.7938 33.2379C49.805 33.3406 49.8162 33.4318 49.8162 33.5345C49.8162 34.1734 49.5364 34.8237 48.9769 35.4741C48.4175 36.1244 47.6566 36.4552 46.6831 36.4552C46.5152 36.4552 46.3586 36.4438 46.1907 36.421C44.9487 36.2727 43.8633 35.7593 42.9457 34.8694C42.017 33.9795 41.1218 33.0211 40.2378 31.9943C40.1819 31.9373 40.126 31.8802 40.07 31.8232C39.0294 33.0668 37.9104 33.6942 36.7019 33.6942C35.6053 33.6942 34.8109 33.3292 34.3074 32.6104C33.8821 32.0171 33.6695 31.3668 33.6695 30.6595C33.6695 30.5225 33.7031 30.2031 33.7591 29.7011C33.815 29.1991 34.1955 28.6743 34.878 28.1267C35.2473 27.8642 35.762 27.7273 36.3998 27.7273C36.4669 27.7273 36.7019 27.7387 37.1048 27.7502C37.5076 27.7616 38.1454 28.0468 39.0182 28.583C40.0252 26.7005 40.8757 24.5556 41.5806 22.1597C41.7708 21.5665 41.9722 20.9846 42.1625 20.4256C42.0506 20.437 41.9387 20.437 41.8268 20.437C41.1218 20.437 40.3721 20.2772 39.5665 19.9464C38.7608 19.6155 38.358 18.8968 38.358 17.7901C38.3916 16.8888 38.7496 16.1472 39.4322 15.5653C40.1036 14.9949 40.9652 14.6982 42.0058 14.6982ZM36.2879 29.1877C35.8627 29.1991 35.583 29.3132 35.4487 29.5528C35.3816 29.6555 35.3592 29.7695 35.3592 29.8722C35.3592 30.0091 35.4263 30.1803 35.5606 30.3742C35.6949 30.5682 36.0194 30.6709 36.5117 30.6709C36.9481 30.6709 37.4181 30.4427 37.9328 29.9749C37.3509 29.4615 36.8026 29.1877 36.2879 29.1877ZM47.0523 15.8506C46.6719 15.8506 46.3474 16.0559 46.0676 16.4552C45.7879 16.8545 45.5641 17.2881 45.3739 17.7559C45.8103 17.6075 46.2131 17.4136 46.5824 17.1854C46.8173 17.0371 46.9852 16.866 47.0859 16.672C47.1866 16.478 47.2425 16.3069 47.2425 16.1586C47.2425 16.1472 47.2425 16.1016 47.2425 16.0217C47.2425 15.919 47.1754 15.8734 47.0523 15.8506Z" fill="url(#paint10_linear_81669_330524)"/>
<path d="M46.9292 20.8705C47.3321 20.8705 47.7237 20.996 48.1265 21.2356C48.5293 21.4752 48.7755 21.8289 48.865 22.2853C48.8203 22.4108 48.7643 22.5363 48.7196 22.6618C48.3839 23.4718 48.0482 24.3503 47.7013 25.2972C47.3544 26.2442 47.1083 27.0656 46.9628 27.7616C46.918 27.9784 46.8845 28.1723 46.8845 28.3206C46.8845 28.6515 46.9964 28.8226 47.2202 28.8226C47.4216 28.8226 47.7461 28.4461 48.216 27.6931C48.6748 26.9401 49.1783 26.0502 49.7043 25.0348C50.2302 24.0194 50.7113 23.0725 51.1477 22.2054C51.1925 22.1027 51.2484 22.0114 51.2932 21.9088C51.3603 21.7947 51.4163 21.6692 51.4722 21.5551C51.6177 21.2699 51.7408 21.0531 51.8415 20.882C52.2443 20.882 52.6359 21.0075 53.0388 21.247C53.4416 21.4866 53.6878 21.8403 53.7773 22.2967C53.4416 23.0953 53.0835 23.9966 52.7031 25.0006C52.3226 26.0046 52.0429 26.8945 51.875 27.6589C51.8191 27.9213 51.7855 28.1381 51.7855 28.3092C51.7855 28.6515 51.8974 28.8112 52.1212 28.8112C52.4681 28.8112 52.9381 28.4005 53.5199 27.5676C54.1018 26.7348 54.6501 25.7992 55.1536 24.761H56.1047L55.6124 25.765C55.2879 26.4381 54.8627 27.2025 54.3256 28.0582C53.7885 28.9139 53.1954 29.6669 52.5464 30.3172C51.8974 30.9675 51.2372 31.2984 50.5659 31.3326C49.4581 31.3326 48.9098 30.7736 48.9098 29.6441C48.9098 29.5756 48.9098 29.4958 48.921 29.4159C48.921 29.0736 48.9546 28.7085 49.0329 28.3092C48.4734 29.1649 47.9139 29.8837 47.3321 30.4655C46.7502 31.036 46.1907 31.3326 45.6648 31.3326C44.557 31.3326 44.0087 30.7736 44.0087 29.6441C44.0087 29.5756 44.0087 29.4958 44.0199 29.4159C44.0199 28.0468 44.3892 26.4724 45.1277 24.7154C45.8774 22.947 46.4816 21.6692 46.9292 20.8705Z" fill="url(#paint11_linear_81669_330524)"/>
<path d="M59.3497 20.8591C59.9204 20.8591 60.4463 21.0987 60.9275 21.5665C61.3974 22.0228 61.6324 22.7416 61.6324 23.7114V23.7456C61.5988 24.2248 61.4646 24.5671 61.2296 24.7724C60.9946 24.9778 60.7596 25.0805 60.5246 25.0805C60.2001 25.0805 59.9875 24.9664 59.8868 24.7268C59.8421 24.6127 59.8085 24.4872 59.8085 24.3617C59.8085 24.2362 59.8421 24.0765 59.9204 23.8939C59.9987 23.7 60.1889 23.5631 60.4799 23.4718C60.3456 23.2436 60.1666 23.1295 59.9428 23.1295C59.7973 23.1295 59.5511 23.2208 59.2266 23.3919C58.891 23.5631 58.5329 24.0537 58.1412 24.8409C57.7832 25.6509 57.593 26.3925 57.593 27.0542C57.593 27.271 57.6377 27.6475 57.7384 28.1609C57.8279 28.6743 58.186 28.9709 58.8014 29.0394C58.8686 29.0508 58.9245 29.0508 58.9917 29.0508C60.1442 29.0508 61.4869 27.6133 63.0087 24.7268H63.9598C63.143 26.769 62.1359 28.3777 60.9275 29.5414C59.719 30.7051 58.6224 31.287 57.6265 31.287C55.8138 31.287 54.7955 30.4199 54.6053 28.6743C54.5718 28.3663 54.5494 28.0582 54.5494 27.7502C54.5494 26.324 54.9634 24.8066 55.8026 23.2208C56.653 21.6464 57.8279 20.8591 59.3497 20.8591Z" fill="url(#paint12_linear_81669_330524)"/>
<path d="M68.156 16.4324C68.7266 16.4324 69.1966 16.6264 69.5658 17.0143C69.8792 17.3337 70.0358 17.7102 70.0358 18.1438C70.0358 18.2351 70.0246 18.3263 70.0134 18.4176C68.9504 18.7256 68.0553 19.2961 67.3615 20.1518C66.6566 20.996 66.1306 21.8745 65.7726 22.7758C65.4145 23.6772 65.2243 24.3617 65.1795 24.8181C66.0635 23.0383 67.0818 21.8745 68.2231 21.3155C68.8273 21.0303 69.3309 20.8819 69.7449 20.8819C70.0358 20.8819 70.282 20.9504 70.4834 21.0873C70.931 21.3954 71.1436 21.7947 71.1436 22.2853C71.1436 22.3423 71.1212 22.5363 71.0876 22.8557C71.0541 23.1866 70.7072 23.4604 70.0358 23.7C69.9463 23.449 69.7337 23.2893 69.4092 23.2208C69.3421 23.2094 69.2637 23.198 69.1966 23.198C68.928 23.198 68.6371 23.2893 68.3126 23.4604C67.4622 24.0308 66.7237 24.9093 66.1194 26.0959C66.3768 27.0428 66.7796 27.773 67.3279 28.2978C67.7084 28.6743 68.1895 28.8683 68.7714 28.8683C69.0064 28.8683 69.2525 28.834 69.5211 28.7656C69.8232 29.1307 69.9687 29.53 69.9687 29.9521C69.9687 30.1689 69.8903 30.5226 69.7225 30.9903C69.5547 31.4581 69.0399 31.6977 68.1671 31.6977C67.4174 31.6977 66.802 31.344 66.3209 30.6367C65.8397 29.9293 65.4928 29.1307 65.269 28.2408C65.1012 28.8683 65.0117 29.4958 65.0117 30.1461C65.0117 30.3971 65.0229 30.6481 65.0452 30.9105C65.0341 30.9219 65.0229 30.9219 65.0117 30.9333C64.8886 31.0132 64.7319 31.093 64.5417 31.1729C64.3515 31.2527 64.1277 31.2984 63.8703 31.2984C63.0871 31.2984 62.6395 30.591 62.5164 29.1649C62.494 28.8797 62.4828 28.583 62.4828 28.275C62.4828 27.077 62.673 25.6281 63.0423 23.9624C63.4116 22.2853 64.0046 20.6994 64.7991 19.2048C65.6047 17.7102 66.5335 16.8089 67.5853 16.5123C67.8315 16.4667 68.0105 16.4324 68.156 16.4324Z" fill="url(#paint13_linear_81669_330524)"/>
<path d="M73.1689 20.8705C73.5717 20.8705 73.9745 20.996 74.3774 21.2356C74.769 21.4752 75.0152 21.8289 75.1159 22.2853C75.0711 22.4108 75.0152 22.5363 74.9704 22.6732C74.6347 23.4832 74.2879 24.3617 73.941 25.3087C73.5941 26.2556 73.3479 27.077 73.2025 27.773C73.1577 27.9898 73.1353 28.1723 73.1353 28.3206C73.1353 28.6515 73.2472 28.8226 73.4598 28.8226C73.6948 28.8226 74.0752 28.4347 74.6012 27.6475C75.1271 26.8603 75.653 25.8677 76.1565 24.6697C76.6712 23.4718 77.0517 22.2054 77.309 20.8934C77.7231 20.8934 78.1371 21.0189 78.5399 21.2585C78.9427 21.498 79.2225 21.8517 79.3903 22.3081C79.3232 22.5933 79.256 22.8899 79.1889 23.198C78.6294 26.0274 77.8014 28.9253 76.716 31.8917C75.6306 34.858 74.0081 36.3412 71.8597 36.3412C70.9645 36.3412 70.3939 35.9875 70.1589 35.2915C70.0806 35.0519 70.0358 34.8352 70.0358 34.6184C70.0358 34.1849 70.1925 33.7741 70.5169 33.409C70.7967 33.4661 71.0541 33.5003 71.3002 33.5003C72.2961 33.5003 73.1689 32.9983 73.941 31.9829C74.7131 30.9675 75.3285 29.6098 75.8096 27.9213C75.3173 28.8797 74.7466 29.7011 74.0864 30.3628C73.4374 31.0246 72.7101 31.3554 71.9268 31.3554C70.8191 31.3554 70.2708 30.785 70.2708 29.6441C70.2708 29.5756 70.2708 29.5072 70.282 29.4387C70.282 28.0696 70.6512 26.4952 71.3897 24.7382C72.1171 22.947 72.7101 21.6692 73.1689 20.8705Z" fill="url(#paint14_linear_81669_330524)"/>
<path d="M99.4645 15.7022C99.7219 15.7022 100.069 15.7935 100.494 15.9874C100.919 16.17 101.277 16.4894 101.557 16.923C101.77 17.2424 101.87 17.6532 101.87 18.1437C101.87 18.3149 101.859 18.4974 101.837 18.6914C101.512 18.6229 101.188 18.5887 100.863 18.5887C99.375 18.5887 97.9427 19.433 96.5552 21.0987C95.1677 22.7758 93.8137 24.8408 92.4822 27.3052C91.4192 29.2333 90.3673 30.9104 89.3379 32.348C88.2973 33.7855 87.2231 34.5043 86.1153 34.5043C84.7166 34.5043 83.9669 33.5573 83.8662 31.652C83.8438 31.2755 83.8326 30.8876 83.8326 30.4883C83.8326 28.8796 84.034 27.02 84.448 24.8865C84.862 22.753 85.2761 20.8591 85.7125 19.1934C85.746 19.0336 85.7908 18.8739 85.8244 18.7256C85.8579 18.5545 85.8691 18.3947 85.8691 18.2578C85.8691 17.7444 85.6565 17.4592 85.2425 17.3907C85.153 17.3679 85.0635 17.3565 84.9739 17.3565C84.5264 17.3565 84.0788 17.5619 83.6312 17.9612C83.0941 18.4974 82.8032 19.0108 82.7696 19.4786C82.7584 19.547 82.7584 19.6155 82.7584 19.684C82.7584 20.0719 82.8815 20.4027 83.1277 20.6879C83.3738 20.9732 83.6536 21.1101 83.9781 21.1101C83.9893 21.1785 83.9893 21.2356 83.9893 21.2926C83.9893 21.7148 83.7878 22.0684 83.3962 22.3308C82.9486 22.6389 82.4339 22.7872 81.852 22.7872C81.8408 22.7872 81.673 22.7872 81.3709 22.7872C81.0576 22.7872 80.6995 22.559 80.2967 22.1255C80.0169 21.806 79.8715 21.3611 79.8715 20.7678C79.8715 20.5282 79.8939 20.2544 79.9498 19.9692C80.1736 18.931 80.5988 18.1209 81.2254 17.5391C81.852 16.9572 82.5122 16.5351 83.2284 16.2727C83.9445 16.0103 84.5711 15.8505 85.1082 15.7935L85.9027 15.7136C86.8986 15.7136 87.7266 15.976 88.3644 16.5008C88.8344 16.8887 89.0693 17.425 89.0693 18.1095C89.0693 18.3719 89.0358 18.6457 88.9798 18.9538C88.8008 19.684 88.577 20.5282 88.3196 21.4866C87.9168 22.9583 87.5252 24.4529 87.1559 25.9817C86.7867 27.5105 86.5405 28.8226 86.4398 29.9064C86.4174 30.1118 86.4062 30.2829 86.4062 30.4427C86.4062 31.1614 86.5852 31.5151 86.9433 31.5151C87.514 31.5151 88.107 30.9789 88.7225 29.9064C89.3379 28.834 89.9981 27.5219 90.7142 25.9703C91.7884 23.5402 93.0305 21.2242 94.4515 19.0108C95.8391 16.8089 97.5175 15.7022 99.4645 15.7022Z" fill="url(#paint15_linear_81669_330524)"/>
<path d="M96.6335 21.7946C97.0475 21.7946 97.4504 21.9087 97.8532 22.1483C98.256 22.3879 98.5022 22.7302 98.5917 23.1865C98.5469 23.312 98.5022 23.4375 98.435 23.563C98.0993 24.3731 97.7525 25.2401 97.4056 26.1757C97.0475 27.1112 96.8014 27.9213 96.6559 28.6058C96.6111 28.8226 96.5887 28.9937 96.5887 29.142C96.5887 29.4729 96.7006 29.644 96.9244 29.644C97.2713 29.644 97.7413 29.2333 98.3231 28.4118C98.905 27.5904 99.4645 26.6663 99.9904 25.6395H100.953L100.46 26.632C100.136 27.2938 99.6995 28.0468 99.1512 28.9024C98.6029 29.7467 98.0098 30.4997 97.3496 31.1386C96.6895 31.7775 96.0293 32.1084 95.3467 32.1426C94.2389 32.1426 93.6794 31.5835 93.6794 30.4769C93.6794 30.4084 93.6794 30.3286 93.6906 30.2601C93.6906 28.9024 94.0599 27.3508 94.7984 25.6052C95.5705 23.8596 96.1747 22.5932 96.6335 21.7946ZM98.5693 18.737C98.9162 18.737 99.2071 18.8625 99.4533 19.1135C99.6995 19.3645 99.8225 19.6611 99.8225 20.0262C99.8225 20.3685 99.6995 20.6651 99.4533 20.9047C99.2071 21.1443 98.9162 21.2698 98.5693 21.2698C98.2336 21.2698 97.9427 21.1443 97.7077 20.9047C97.4727 20.6651 97.3496 20.3685 97.3496 20.0262C97.3496 19.6611 97.4727 19.3645 97.7077 19.1135C97.9427 18.8625 98.2336 18.737 98.5693 18.737Z" fill="url(#paint16_linear_81669_330524)"/>
<path d="M98.5693 18.737C98.9162 18.737 99.2072 18.8625 99.4533 19.1135C99.6995 19.3645 99.8226 19.6612 99.8226 20.0262C99.8226 20.3685 99.6995 20.6652 99.4533 20.9047C99.2072 21.1443 98.9162 21.2698 98.5693 21.2698C98.2337 21.2698 97.9427 21.1443 97.7077 20.9047C97.4728 20.6652 97.3497 20.3685 97.3497 20.0262C97.3497 19.6612 97.4728 19.3645 97.7077 19.1135C97.9427 18.8625 98.2337 18.737 98.5693 18.737ZM98.5693 18.5089C98.1777 18.5089 97.8308 18.6572 97.5511 18.9538C97.2713 19.2504 97.1259 19.6041 97.1259 20.0262C97.1259 20.4256 97.2713 20.7792 97.5511 21.0645C97.8308 21.3497 98.1777 21.498 98.5693 21.498C98.9722 21.498 99.3302 21.3497 99.61 21.0645C99.9009 20.7792 100.046 20.4256 100.046 20.0262C100.046 19.6041 99.9009 19.239 99.6212 18.9538C99.319 18.6572 98.9722 18.5089 98.5693 18.5089Z" fill="black"/>
<path d="M105.238 17.425C105.809 17.425 106.279 17.6189 106.648 17.9954C106.973 18.3263 107.129 18.7142 107.129 19.1706C107.129 19.239 107.129 19.3075 107.118 19.3873C105.037 20.1289 103.582 21.5436 102.754 23.6429C103.717 22.4107 104.746 21.7946 105.865 21.7946C107.398 21.7946 108.181 22.6617 108.215 24.3845V24.5442C108.215 26.2099 107.745 27.8985 106.794 29.587C105.854 31.2869 104.656 32.1312 103.202 32.1312C102.754 32.1312 102.351 32.0285 101.982 31.8232C101.658 32.0285 101.311 32.1312 100.942 32.1312C100.147 32.1312 99.6995 31.4238 99.5876 30.0205C99.5652 29.7353 99.554 29.4387 99.554 29.1306C99.554 27.9441 99.7442 26.518 100.113 24.8637C100.494 23.2094 101.087 21.6349 101.893 20.1517C102.709 18.6686 103.638 17.7787 104.712 17.482C104.735 17.482 104.768 17.482 104.791 17.4706C104.936 17.4478 105.082 17.425 105.238 17.425ZM104.455 24.1335C104.142 24.1335 103.806 24.3617 103.448 24.8066C103.09 25.263 102.777 25.7764 102.508 26.3811C102.24 26.9743 102.06 27.522 101.982 28.024C101.96 28.2407 101.949 28.4461 101.949 28.6172C101.949 29.3018 102.139 29.6554 102.53 29.6554C102.564 29.6554 102.732 29.6326 103.023 29.5984C103.325 29.5528 103.784 29.028 104.388 28.024C104.914 27.0314 105.194 26.1415 105.216 25.3428V25.2173C105.227 24.4986 104.97 24.1335 104.455 24.1335Z" fill="url(#paint17_linear_81669_330524)"/>
<path d="M113.105 21.7946C113.675 21.7946 114.224 22.0228 114.727 22.4906C115.186 22.9127 115.41 23.5402 115.41 24.3731C115.41 24.4643 115.41 24.567 115.399 24.6583C115.275 25.7992 114.828 26.8146 114.078 27.6931C113.317 28.583 112.467 29.0393 111.516 29.0736C111.549 29.2789 111.65 29.4501 111.807 29.6212C111.963 29.7809 112.165 29.8836 112.411 29.9064C112.489 29.9178 112.579 29.9292 112.657 29.9292C113.91 29.9292 115.298 28.5031 116.82 25.6395C117.189 24.875 117.995 25.126 117.782 25.6395C116.954 27.6588 115.936 29.2447 114.705 30.4084C113.485 31.5607 112.366 32.1426 111.37 32.1426C109.535 32.1426 108.517 31.2755 108.327 29.5527C108.293 29.2447 108.282 28.9481 108.282 28.6514C108.282 27.2253 108.707 25.7193 109.546 24.1563C110.397 22.5818 111.583 21.7946 113.105 21.7946ZM113.619 23.8368C113.586 23.8254 113.552 23.8254 113.519 23.8254C113.272 23.8254 112.937 23.9851 112.523 24.316C112.109 24.6469 111.74 25.1375 111.415 25.7992C111.281 26.13 111.214 26.4039 111.214 26.6206C111.214 26.8374 111.281 26.9971 111.404 27.1112C111.482 27.1797 111.572 27.2025 111.672 27.2025C111.93 27.2025 112.277 27.0199 112.713 26.6434C112.993 26.3924 113.239 26.0502 113.463 25.628C113.675 25.2059 113.81 24.818 113.854 24.4529C113.866 24.3731 113.866 24.3046 113.866 24.2476C113.854 24.0308 113.776 23.8939 113.619 23.8368Z" fill="url(#paint18_linear_81669_330524)"/>
</g>
<defs>
<linearGradient id="paint0_linear_81669_330524" x1="12.9683" y1="32.5059" x2="21.0998" y2="24.5308" gradientUnits="userSpaceOnUse">
<stop offset="0.0837989" stop-color="white"/>
<stop offset="0.4469" stop-color="#D6D6D6"/>
<stop offset="1" stop-color="white"/>
</linearGradient>
<linearGradient id="paint1_linear_81669_330524" x1="14.2969" y1="37.1551" x2="24.7833" y2="37.1551" gradientUnits="userSpaceOnUse">
<stop stop-color="#CECECE"/>
<stop offset="0.4693" stop-color="white"/>
<stop offset="1" stop-color="#CECECE"/>
</linearGradient>
<linearGradient id="paint2_linear_81669_330524" x1="2.23845" y1="24.8791" x2="10.8023" y2="25.5642" gradientUnits="userSpaceOnUse">
<stop stop-color="#CECECE"/>
<stop offset="0.4693" stop-color="white"/>
<stop offset="1" stop-color="#CECECE"/>
</linearGradient>
<linearGradient id="paint3_linear_81669_330524" x1="20.9877" y1="6.69026" x2="29.8925" y2="6.87647" gradientUnits="userSpaceOnUse">
<stop stop-color="#B5B5B5"/>
<stop offset="0.4693" stop-color="white"/>
<stop offset="1" stop-color="#B5B5B5"/>
</linearGradient>
<linearGradient id="paint4_linear_81669_330524" x1="4.96779" y1="29.3226" x2="16.0642" y2="29.3226" gradientUnits="userSpaceOnUse">
<stop stop-color="#CECECE"/>
<stop offset="0.4693" stop-color="white"/>
<stop offset="1" stop-color="#CECECE"/>
</linearGradient>
<radialGradient id="paint5_radial_81669_330524" cx="0" cy="0" r="1" gradientUnits="userSpaceOnUse" gradientTransform="translate(22.1955 10.221) scale(8.15541 8.31531)">
<stop stop-color="#027FF3"/>
<stop offset="0.5413" stop-color="#2C93F3"/>
<stop offset="1" stop-color="#0A2FC0"/>
</radialGradient>
<linearGradient id="paint6_linear_81669_330524" x1="19.0232" y1="16.7982" x2="21.8314" y2="24.3655" gradientUnits="userSpaceOnUse">
<stop stop-color="#0A2FC0"/>
<stop offset="0.4117" stop-color="#0377EE"/>
<stop offset="0.5056" stop-color="#31A1F4"/>
<stop offset="0.5117" stop-color="#2A9CF4"/>
<stop offset="0.5336" stop-color="#148CF3"/>
<stop offset="0.5548" stop-color="#0682F3"/>
<stop offset="0.574" stop-color="#027FF3"/>
<stop offset="0.7362" stop-color="#065BDC"/>
<stop offset="0.9059" stop-color="#093BC8"/>
<stop offset="1" stop-color="#0A2FC0"/>
</linearGradient>
<radialGradient id="paint7_radial_81669_330524" cx="0" cy="0" r="1" gradientUnits="userSpaceOnUse" gradientTransform="translate(20.3801 20.5993) scale(3.96625 4.04402)">
<stop stop-color="#0A2FC0"/>
<stop offset="0.4117" stop-color="#0377EE"/>
<stop offset="0.5056" stop-color="#31A1F4"/>
<stop offset="0.5117" stop-color="#2A9CF4"/>
<stop offset="0.5336" stop-color="#148CF3"/>
<stop offset="0.5548" stop-color="#0682F3"/>
<stop offset="0.574" stop-color="#027FF3"/>
<stop offset="0.7362" stop-color="#065BDC"/>
<stop offset="0.9059" stop-color="#093BC8"/>
<stop offset="1" stop-color="#0A2FC0"/>
</radialGradient>
<linearGradient id="paint8_linear_81669_330524" x1="20.3201" y1="15.2921" x2="23.7817" y2="24.62" gradientUnits="userSpaceOnUse">
<stop stop-color="#0A2FC0"/>
<stop offset="0.4117" stop-color="#027FF3"/>
<stop offset="0.5056" stop-color="#31A1F4"/>
<stop offset="0.5117" stop-color="#2A9CF4"/>
<stop offset="0.5336" stop-color="#148CF3"/>
<stop offset="0.5548" stop-color="#0682F3"/>
<stop offset="0.574" stop-color="#027FF3"/>
<stop offset="1" stop-color="#027FF3"/>
</linearGradient>
<linearGradient id="paint9_linear_81669_330524" x1="18.8152" y1="14.8469" x2="22.7491" y2="25.4474" gradientUnits="userSpaceOnUse">
<stop stop-color="#0A2FC0"/>
<stop offset="0.4117" stop-color="#0377EE"/>
<stop offset="0.5056" stop-color="#31A1F4"/>
<stop offset="0.5117" stop-color="#2A9CF4"/>
<stop offset="0.5336" stop-color="#148CF3"/>
<stop offset="0.5548" stop-color="#0682F3"/>
<stop offset="0.574" stop-color="#027FF3"/>
<stop offset="1" stop-color="#027FF3"/>
</linearGradient>
<linearGradient id="paint10_linear_81669_330524" x1="36.1233" y1="18.6381" x2="65.0614" y2="47.0197" gradientUnits="userSpaceOnUse">
<stop stop-color="#CECECE"/>
<stop offset="0.4972" stop-color="white"/>
<stop offset="1" stop-color="#CECECE"/>
</linearGradient>
<linearGradient id="paint11_linear_81669_330524" x1="38.8109" y1="15.8979" x2="67.7489" y2="44.2795" gradientUnits="userSpaceOnUse">
<stop stop-color="#CECECE"/>
<stop offset="0.4972" stop-color="white"/>
<stop offset="1" stop-color="#CECECE"/>
</linearGradient>
<linearGradient id="paint12_linear_81669_330524" x1="43.505" y1="11.1117" x2="72.4431" y2="39.4933" gradientUnits="userSpaceOnUse">
<stop stop-color="#CECECE"/>
<stop offset="0.4972" stop-color="white"/>
<stop offset="1" stop-color="#CECECE"/>
</linearGradient>
<linearGradient id="paint13_linear_81669_330524" x1="48.6078" y1="5.90894" x2="77.5458" y2="34.2905" gradientUnits="userSpaceOnUse">
<stop stop-color="#CECECE"/>
<stop offset="0.4972" stop-color="white"/>
<stop offset="1" stop-color="#CECECE"/>
</linearGradient>
<linearGradient id="paint14_linear_81669_330524" x1="50.4889" y1="3.99087" x2="79.427" y2="32.3725" gradientUnits="userSpaceOnUse">
<stop stop-color="#CECECE"/>
<stop offset="0.4972" stop-color="white"/>
<stop offset="1" stop-color="#CECECE"/>
</linearGradient>
<linearGradient id="paint15_linear_81669_330524" x1="89.4956" y1="14.7006" x2="96.0374" y2="36.6133" gradientUnits="userSpaceOnUse">
<stop stop-color="#0A2FC0"/>
<stop offset="0.1648" stop-color="#027FF3"/>
<stop offset="0.3089" stop-color="#027FF3"/>
<stop offset="0.5101" stop-color="#23C9FF"/>
<stop offset="0.5156" stop-color="#21C5FE"/>
<stop offset="0.5667" stop-color="#14A7F9"/>
<stop offset="0.6166" stop-color="#0A91F6"/>
<stop offset="0.6645" stop-color="#0483F4"/>
<stop offset="0.7081" stop-color="#027FF3"/>
<stop offset="0.7115" stop-color="#027FF2"/>
<stop offset="0.8181" stop-color="#0175D2"/>
<stop offset="0.8771" stop-color="#0071C6"/>
<stop offset="1" stop-color="#0A2FC0"/>
</linearGradient>
<linearGradient id="paint16_linear_81669_330524" x1="93.3761" y1="13.5421" x2="99.9179" y2="35.4548" gradientUnits="userSpaceOnUse">
<stop stop-color="#0A2FC0"/>
<stop offset="0.1648" stop-color="#027FF3"/>
<stop offset="0.3089" stop-color="#027FF3"/>
<stop offset="0.5101" stop-color="#23C9FF"/>
<stop offset="0.5156" stop-color="#21C5FE"/>
<stop offset="0.5667" stop-color="#14A7F9"/>
<stop offset="0.6166" stop-color="#0A91F6"/>
<stop offset="0.6645" stop-color="#0483F4"/>
<stop offset="0.7081" stop-color="#027FF3"/>
<stop offset="0.7115" stop-color="#027FF2"/>
<stop offset="0.8181" stop-color="#0175D2"/>
<stop offset="0.8771" stop-color="#0071C6"/>
<stop offset="1" stop-color="#0A2FC0"/>
</linearGradient>
<linearGradient id="paint17_linear_81669_330524" x1="99.6273" y1="11.6759" x2="106.169" y2="33.5886" gradientUnits="userSpaceOnUse">
<stop stop-color="#0A2FC0"/>
<stop offset="0.1648" stop-color="#027FF3"/>
<stop offset="0.3089" stop-color="#027FF3"/>
<stop offset="0.5101" stop-color="#23C9FF"/>
<stop offset="0.5156" stop-color="#21C5FE"/>
<stop offset="0.5667" stop-color="#14A7F9"/>
<stop offset="0.6166" stop-color="#0A91F6"/>
<stop offset="0.6645" stop-color="#0483F4"/>
<stop offset="0.7081" stop-color="#027FF3"/>
<stop offset="0.7115" stop-color="#027FF2"/>
<stop offset="0.8181" stop-color="#0175D2"/>
<stop offset="0.8771" stop-color="#0071C6"/>
<stop offset="1" stop-color="#0A2FC0"/>
</linearGradient>
<linearGradient id="paint18_linear_81669_330524" x1="107.795" y1="9.23757" x2="114.337" y2="31.1503" gradientUnits="userSpaceOnUse">
<stop stop-color="#0A2FC0"/>
<stop offset="0.1648" stop-color="#027FF3"/>
<stop offset="0.3089" stop-color="#027FF3"/>
<stop offset="0.5101" stop-color="#23C9FF"/>
<stop offset="0.5156" stop-color="#21C5FE"/>
<stop offset="0.5667" stop-color="#14A7F9"/>
<stop offset="0.6166" stop-color="#0A91F6"/>
<stop offset="0.6645" stop-color="#0483F4"/>
<stop offset="0.7081" stop-color="#027FF3"/>
<stop offset="0.7115" stop-color="#027FF2"/>
<stop offset="0.8181" stop-color="#0175D2"/>
<stop offset="0.8771" stop-color="#0071C6"/>
<stop offset="1" stop-color="#0A2FC0"/>
</linearGradient>
<clipPath id="clip0_81669_330524">
<rect width="120" height="44" fill="white"/>
</clipPath>
</defs>
</svg>
